<?xml version="1.0" encoding="utf-8" standalone="no"?>
<!DOCTYPE svg PUBLIC "-//W3C//DTD SVG 1.1//EN"
  "http://www.w3.org/Graphics/SVG/1.1/DTD/svg11.dtd">
<svg xmlns:xlink="http://www.w3.org/1999/xlink" width="744.399375pt" height="515.869062pt" viewBox="0 0 744.399375 515.869062" xmlns="http://www.w3.org/2000/svg" version="1.1">
 <metadata>
  <rdf:RDF xmlns:dc="http://purl.org/dc/elements/1.1/" xmlns:cc="http://creativecommons.org/ns#" xmlns:rdf="http://www.w3.org/1999/02/22-rdf-syntax-ns#">
   <cc:Work>
    <dc:type rdf:resource="http://purl.org/dc/dcmitype/StillImage"/>
    <dc:date>2026-04-14T16:09:58.804167</dc:date>
    <dc:format>image/svg+xml</dc:format>
    <dc:creator>
     <cc:Agent>
      <dc:title>Matplotlib v3.10.8, https://matplotlib.org/</dc:title>
     </cc:Agent>
    </dc:creator>
   </cc:Work>
  </rdf:RDF>
 </metadata>
 <defs>
  <style type="text/css">*{stroke-linejoin: round; stroke-linecap: butt}</style>
 </defs>
 <g id="figure_1">
  <g id="patch_1">
   <path d="M 0 515.869062 
L 744.399375 515.869062 
L 744.399375 0 
L 0 0 
z
" style="fill: #ffffff"/>
  </g>
  <g id="axes_1">
   <g id="patch_2">
    <path d="M 53.761875 470.24 
L 723.361875 470.24 
L 723.361875 82.16 
L 53.761875 82.16 
z
" style="fill: #ffffff"/>
   </g>
   <g id="patch_3">
    <path d="M 84.198239 470.24 
L 113.185252 470.24 
L 113.185252 468.933993 
L 84.198239 468.933993 
z
" clip-path="url(#p27216bfd7d)" style="fill: #388f30; opacity: 0.1"/>
   </g>
   <g id="patch_4">
    <path d="M 113.185252 470.24 
L 142.172265 470.24 
L 142.172265 455.873922 
L 113.185252 455.873922 
z
" clip-path="url(#p27216bfd7d)" style="fill: #388f30; opacity: 0.1"/>
   </g>
   <g id="patch_5">
    <path d="M 142.172265 470.24 
L 171.159278 470.24 
L 171.159278 384.043534 
L 142.172265 384.043534 
z
" clip-path="url(#p27216bfd7d)" style="fill: #388f30; opacity: 0.1"/>
   </g>
   <g id="patch_6">
    <path d="M 171.159278 470.24 
L 200.146291 470.24 
L 200.146291 434.977809 
L 171.159278 434.977809 
z
" clip-path="url(#p27216bfd7d)" style="fill: #388f30; opacity: 0.1"/>
   </g>
   <g id="patch_7">
    <path d="M 200.146291 470.24 
L 229.133304 470.24 
L 229.133304 457.179929 
L 200.146291 457.179929 
z
" clip-path="url(#p27216bfd7d)" style="fill: #388f30; opacity: 0.1"/>
   </g>
   <g id="patch_8">
    <path d="M 229.133304 470.24 
L 258.120317 470.24 
L 258.120317 455.873922 
L 229.133304 455.873922 
z
" clip-path="url(#p27216bfd7d)" style="fill: #388f30; opacity: 0.1"/>
   </g>
   <g id="patch_9">
    <path d="M 258.120317 470.24 
L 287.10733 470.24 
L 287.10733 431.059788 
L 258.120317 431.059788 
z
" clip-path="url(#p27216bfd7d)" style="fill: #388f30; opacity: 0.1"/>
   </g>
   <g id="patch_10">
    <path d="M 287.10733 470.24 
L 316.094343 470.24 
L 316.094343 437.589823 
L 287.10733 437.589823 
z
" clip-path="url(#p27216bfd7d)" style="fill: #388f30; opacity: 0.1"/>
   </g>
   <g id="patch_11">
    <path d="M 316.094343 470.24 
L 345.081356 470.24 
L 345.081356 428.447774 
L 316.094343 428.447774 
z
" clip-path="url(#p27216bfd7d)" style="fill: #388f30; opacity: 0.1"/>
   </g>
   <g id="patch_12">
    <path d="M 345.081356 470.24 
L 374.068369 470.24 
L 374.068369 440.201837 
L 345.081356 440.201837 
z
" clip-path="url(#p27216bfd7d)" style="fill: #388f30; opacity: 0.1"/>
   </g>
   <g id="patch_13">
    <path d="M 374.068369 470.24 
L 403.055381 470.24 
L 403.055381 446.731873 
L 374.068369 446.731873 
z
" clip-path="url(#p27216bfd7d)" style="fill: #388f30; opacity: 0.1"/>
   </g>
   <g id="patch_14">
    <path d="M 403.055381 470.24 
L 432.042394 470.24 
L 432.042394 441.507845 
L 403.055381 441.507845 
z
" clip-path="url(#p27216bfd7d)" style="fill: #388f30; opacity: 0.1"/>
   </g>
   <g id="patch_15">
    <path d="M 432.042394 470.24 
L 461.029407 470.24 
L 461.029407 450.649894 
L 432.042394 450.649894 
z
" clip-path="url(#p27216bfd7d)" style="fill: #388f30; opacity: 0.1"/>
   </g>
   <g id="patch_16">
    <path d="M 461.029407 470.24 
L 490.01642 470.24 
L 490.01642 446.731873 
L 461.029407 446.731873 
z
" clip-path="url(#p27216bfd7d)" style="fill: #388f30; opacity: 0.1"/>
   </g>
   <g id="patch_17">
    <path d="M 490.01642 470.24 
L 519.003433 470.24 
L 519.003433 451.955901 
L 490.01642 451.955901 
z
" clip-path="url(#p27216bfd7d)" style="fill: #388f30; opacity: 0.1"/>
   </g>
   <g id="patch_18">
    <path d="M 519.003433 470.24 
L 547.990446 470.24 
L 547.990446 450.649894 
L 519.003433 450.649894 
z
" clip-path="url(#p27216bfd7d)" style="fill: #388f30; opacity: 0.1"/>
   </g>
   <g id="patch_19">
    <path d="M 547.990446 470.24 
L 576.977459 470.24 
L 576.977459 445.425866 
L 547.990446 445.425866 
z
" clip-path="url(#p27216bfd7d)" style="fill: #388f30; opacity: 0.1"/>
   </g>
   <g id="patch_20">
    <path d="M 576.977459 470.24 
L 605.964472 470.24 
L 605.964472 382.737527 
L 576.977459 382.737527 
z
" clip-path="url(#p27216bfd7d)" style="fill: #388f30; opacity: 0.1"/>
   </g>
   <g id="patch_21">
    <path d="M 605.964472 470.24 
L 634.951485 470.24 
L 634.951485 100.64 
L 605.964472 100.64 
z
" clip-path="url(#p27216bfd7d)" style="fill: #388f30; opacity: 0.1"/>
   </g>
   <g id="patch_22">
    <path d="M 634.951485 470.24 
L 663.938498 470.24 
L 663.938498 303.071095 
L 634.951485 303.071095 
z
" clip-path="url(#p27216bfd7d)" style="fill: #388f30; opacity: 0.1"/>
   </g>
   <g id="patch_23">
    <path d="M 663.938498 470.24 
L 692.925511 470.24 
L 692.925511 461.097951 
L 663.938498 461.097951 
z
" clip-path="url(#p27216bfd7d)" style="fill: #388f30; opacity: 0.1"/>
   </g>
   <g id="line2d_1">
    <path d="M 358.125511 470.24 
L 358.125511 82.16 
" clip-path="url(#p27216bfd7d)" style="fill: none; stroke-dasharray: 12,8; stroke-dashoffset: 0; stroke: #950404; stroke-opacity: 0.5"/>
   </g>
   <g id="patch_24">
    <path d="M 501.241045 345.979509 
Q 554.912124 285.932672 625.263018 322.941896 
" clip-path="url(#p27216bfd7d)" style="fill: none; stroke: #000000; stroke-width: 0.6; stroke-linecap: round"/>
    <path d="M 620.790995 318.555439 
L 625.263018 322.941896 
L 619.114931 321.741473 
z
" clip-path="url(#p27216bfd7d)" style="stroke: #000000; stroke-width: 0.6; stroke-linecap: round"/>
   </g>
   <g id="matplotlib.axis_1">
    <g id="xtick_1">
     <g id="line2d_2">
      <path d="M 84.198239 470.24 
L 84.198239 82.16 
" clip-path="url(#p27216bfd7d)" style="fill: none; stroke: #b0b0b0; stroke-opacity: 0.15; stroke-width: 0.8; stroke-linecap: square"/>
     </g>
     <g id="line2d_3"/>
     <g id="text_1">
      <!-- 03:00 -->
      <g transform="translate(70.670895 485.799375) scale(0.1 -0.1)">
       <defs>
        <path id="Georgia-30" d="M 3209 2919 
Q 3409 2678 3507 2354 
Q 3606 2031 3606 1678 
Q 3606 1253 3484 917 
Q 3363 581 3150 359 
Q 2931 131 2631 15 
Q 2331 -100 1963 -100 
Q 1559 -100 1243 34 
Q 928 169 731 403 
Q 525 647 423 973 
Q 322 1300 322 1678 
Q 322 2050 420 2362 
Q 519 2675 728 2928 
Q 928 3172 1243 3312 
Q 1559 3453 1966 3453 
Q 2394 3453 2700 3309 
Q 3006 3166 3209 2919 
z
M 2916 1678 
Q 2916 2422 2661 2831 
Q 2406 3241 1969 3241 
Q 1525 3241 1269 2831 
Q 1013 2422 1013 1678 
Q 1013 972 1258 542 
Q 1503 113 1963 113 
Q 2422 113 2669 542 
Q 2916 972 2916 1678 
z
" transform="scale(0.015625)"/>
        <path id="Georgia-33" d="M 1522 -1141 
Q 1228 -1141 984 -1067 
Q 741 -994 566 -869 
Q 391 -744 295 -581 
Q 200 -419 200 -247 
Q 200 -94 275 29 
Q 350 153 516 153 
Q 703 153 801 61 
Q 900 -31 900 -150 
Q 900 -250 867 -403 
Q 834 -556 816 -622 
Q 838 -650 895 -697 
Q 953 -744 1038 -781 
Q 1138 -828 1247 -856 
Q 1356 -884 1556 -884 
Q 1744 -884 1917 -821 
Q 2091 -759 2222 -622 
Q 2359 -478 2436 -286 
Q 2513 -94 2513 219 
Q 2513 388 2477 553 
Q 2441 719 2344 841 
Q 2247 963 2080 1030 
Q 1913 1097 1656 1097 
L 1247 1097 
L 1247 1456 
L 1519 1456 
Q 1950 1456 2140 1693 
Q 2331 1931 2331 2409 
Q 2331 2800 2147 2998 
Q 1963 3197 1625 3197 
Q 1463 3197 1358 3158 
Q 1253 3119 1188 3081 
Q 1109 3038 1059 2984 
Q 1009 2931 984 2906 
Q 1006 2806 1037 2661 
Q 1069 2516 1069 2384 
Q 1069 2269 970 2176 
Q 872 2084 681 2084 
Q 516 2084 439 2203 
Q 363 2322 363 2478 
Q 363 2641 453 2809 
Q 544 2978 722 3125 
Q 900 3272 1156 3362 
Q 1413 3453 1747 3453 
Q 2131 3453 2382 3339 
Q 2634 3225 2778 3063 
Q 2919 2903 2972 2728 
Q 3025 2553 3025 2428 
Q 3025 2272 2981 2114 
Q 2938 1956 2838 1822 
Q 2728 1675 2548 1554 
Q 2369 1434 2097 1359 
L 2097 1309 
Q 2272 1294 2470 1231 
Q 2669 1169 2828 1047 
Q 2994 919 3100 717 
Q 3206 516 3206 206 
Q 3206 -394 2725 -767 
Q 2244 -1141 1522 -1141 
z
" transform="scale(0.015625)"/>
        <path id="Georgia-3a" d="M 1428 2666 
Q 1428 2491 1301 2366 
Q 1175 2241 1000 2241 
Q 825 2241 698 2366 
Q 572 2491 572 2666 
Q 572 2841 697 2967 
Q 822 3094 1000 3094 
Q 1178 3094 1303 2967 
Q 1428 2841 1428 2666 
z
M 1428 359 
Q 1428 184 1301 60 
Q 1175 -63 1000 -63 
Q 825 -63 698 60 
Q 572 184 572 359 
Q 572 534 698 661 
Q 825 788 1000 788 
Q 1175 788 1301 661 
Q 1428 534 1428 359 
z
" transform="scale(0.015625)"/>
       </defs>
       <use xlink:href="#Georgia-30"/>
       <use xlink:href="#Georgia-33" transform="translate(61.376953 0)"/>
       <use xlink:href="#Georgia-3a" transform="translate(116.552734 0)"/>
       <use xlink:href="#Georgia-30" transform="translate(147.802734 0)"/>
       <use xlink:href="#Georgia-30" transform="translate(209.179688 0)"/>
      </g>
     </g>
    </g>
    <g id="xtick_2">
     <g id="line2d_4">
      <path d="M 175.50733 470.24 
L 175.50733 82.16 
" clip-path="url(#p27216bfd7d)" style="fill: none; stroke: #b0b0b0; stroke-opacity: 0.15; stroke-width: 0.8; stroke-linecap: square"/>
     </g>
     <g id="line2d_5"/>
     <g id="text_2">
      <!-- 06:00 -->
      <g transform="translate(161.908892 485.799375) scale(0.1 -0.1)">
       <defs>
        <path id="Georgia-36" d="M 3359 1441 
Q 3359 1116 3242 831 
Q 3125 547 2928 347 
Q 2700 119 2423 9 
Q 2147 -100 1847 -100 
Q 1500 -100 1219 28 
Q 938 156 741 391 
Q 541 628 431 972 
Q 322 1316 322 1744 
Q 322 2859 986 3625 
Q 1650 4391 2766 4544 
L 2822 4263 
L 2541 4213 
Q 1863 3994 1492 3531 
Q 1122 3069 1013 2409 
Q 1281 2644 1543 2741 
Q 1806 2838 2097 2838 
Q 2619 2838 2989 2438 
Q 3359 2038 3359 1441 
z
M 2681 1356 
Q 2681 1863 2448 2169 
Q 2216 2475 1825 2475 
Q 1591 2475 1389 2387 
Q 1188 2300 1000 2094 
Q 997 2056 990 1920 
Q 984 1784 984 1706 
Q 984 975 1223 561 
Q 1463 147 1853 147 
Q 2225 147 2453 470 
Q 2681 794 2681 1356 
z
" transform="scale(0.015625)"/>
       </defs>
       <use xlink:href="#Georgia-30"/>
       <use xlink:href="#Georgia-36" transform="translate(61.376953 0)"/>
       <use xlink:href="#Georgia-3a" transform="translate(117.96875 0)"/>
       <use xlink:href="#Georgia-30" transform="translate(149.21875 0)"/>
       <use xlink:href="#Georgia-30" transform="translate(210.595703 0)"/>
      </g>
     </g>
    </g>
    <g id="xtick_3">
     <g id="line2d_6">
      <path d="M 266.81642 470.24 
L 266.81642 82.16 
" clip-path="url(#p27216bfd7d)" style="fill: none; stroke: #b0b0b0; stroke-opacity: 0.15; stroke-width: 0.8; stroke-linecap: square"/>
     </g>
     <g id="line2d_7"/>
     <g id="text_3">
      <!-- 09:00 -->
      <g transform="translate(253.217983 485.799375) scale(0.1 -0.1)">
       <defs>
        <path id="Georgia-39" d="M 3300 1613 
Q 3300 1069 3128 589 
Q 2956 109 2634 -253 
Q 2319 -609 1864 -845 
Q 1409 -1081 847 -1156 
L 791 -875 
L 1072 -825 
Q 1744 -613 2122 -172 
Q 2500 269 2609 947 
Q 2353 728 2098 626 
Q 1844 525 1525 525 
Q 1016 525 639 922 
Q 263 1319 263 1922 
Q 263 2569 698 3012 
Q 1134 3456 1775 3456 
Q 2472 3456 2886 2959 
Q 3300 2463 3300 1613 
z
M 2638 1650 
Q 2638 2381 2398 2795 
Q 2159 3209 1769 3209 
Q 1397 3209 1169 2889 
Q 941 2569 941 2006 
Q 941 1500 1173 1194 
Q 1406 888 1797 888 
Q 2041 888 2244 977 
Q 2447 1066 2622 1263 
Q 2622 1275 2626 1312 
Q 2631 1350 2631 1419 
Q 2631 1463 2634 1525 
Q 2638 1588 2638 1650 
z
" transform="scale(0.015625)"/>
       </defs>
       <use xlink:href="#Georgia-30"/>
       <use xlink:href="#Georgia-39" transform="translate(61.376953 0)"/>
       <use xlink:href="#Georgia-3a" transform="translate(117.96875 0)"/>
       <use xlink:href="#Georgia-30" transform="translate(149.21875 0)"/>
       <use xlink:href="#Georgia-30" transform="translate(210.595703 0)"/>
      </g>
     </g>
    </g>
    <g id="xtick_4">
     <g id="line2d_8">
      <path d="M 358.125511 470.24 
L 358.125511 82.16 
" clip-path="url(#p27216bfd7d)" style="fill: none; stroke: #b0b0b0; stroke-opacity: 0.15; stroke-width: 0.8; stroke-linecap: square"/>
     </g>
     <g id="line2d_9"/>
     <g id="text_4">
      <!-- 12:00 -->
      <g style="fill: #950404" transform="translate(343.696605 485.799375) scale(0.1 -0.1)">
       <defs>
        <path id="Georgia-Bold-31" d="M 2956 0 
L 378 0 
L 378 238 
Q 472 244 676 269 
Q 881 294 956 319 
Q 1050 350 1103 425 
Q 1156 500 1156 631 
L 1156 2613 
L 366 2613 
L 366 2909 
L 538 2909 
Q 809 2909 1007 2968 
Q 1206 3028 1338 3113 
Q 1472 3200 1558 3294 
Q 1644 3388 1694 3459 
L 2244 3459 
Q 2234 3256 2225 2984 
Q 2216 2713 2216 2497 
L 2216 666 
Q 2216 553 2264 470 
Q 2313 388 2403 344 
Q 2484 306 2675 275 
Q 2866 244 2956 238 
L 2956 0 
z
" transform="scale(0.015625)"/>
        <path id="Georgia-Bold-32" d="M 3731 0 
L 344 0 
L 344 566 
Q 566 791 830 977 
Q 1094 1163 1366 1306 
Q 1656 1459 1853 1579 
Q 2050 1700 2163 1831 
Q 2275 1953 2323 2097 
Q 2372 2241 2372 2419 
Q 2372 2816 2184 2997 
Q 1997 3178 1688 3178 
Q 1591 3178 1505 3164 
Q 1419 3150 1325 3113 
Q 1372 2972 1415 2822 
Q 1459 2672 1459 2488 
Q 1459 2266 1300 2134 
Q 1141 2003 894 2003 
Q 659 2003 520 2156 
Q 381 2309 381 2528 
Q 381 2909 825 3187 
Q 1269 3466 1906 3466 
Q 2644 3466 3098 3212 
Q 3553 2959 3553 2397 
Q 3553 2106 3433 1928 
Q 3313 1750 3078 1616 
Q 2869 1494 2614 1416 
Q 2359 1338 2069 1266 
Q 1759 1188 1529 1100 
Q 1300 1013 1122 891 
L 1122 856 
L 3731 856 
L 3731 0 
z
" transform="scale(0.015625)"/>
        <path id="Georgia-Bold-3a" d="M 1794 2497 
Q 1794 2250 1611 2069 
Q 1428 1888 1178 1888 
Q 925 1888 742 2067 
Q 559 2247 559 2497 
Q 559 2747 742 2930 
Q 925 3113 1178 3113 
Q 1428 3113 1611 2928 
Q 1794 2744 1794 2497 
z
M 1794 519 
Q 1794 272 1611 90 
Q 1428 -91 1178 -91 
Q 925 -91 742 89 
Q 559 269 559 519 
Q 559 769 742 951 
Q 925 1134 1178 1134 
Q 1428 1134 1611 950 
Q 1794 766 1794 519 
z
" transform="scale(0.015625)"/>
        <path id="Georgia-Bold-30" d="M 3700 2913 
Q 3938 2663 4052 2342 
Q 4166 2022 4166 1678 
Q 4166 1269 4023 939 
Q 3881 609 3634 381 
Q 3375 144 3031 19 
Q 2688 -106 2241 -106 
Q 1769 -106 1408 41 
Q 1047 188 806 428 
Q 569 666 445 987 
Q 322 1309 322 1678 
Q 322 2044 439 2356 
Q 556 2669 800 2922 
Q 1038 3169 1403 3317 
Q 1769 3466 2244 3466 
Q 2734 3466 3100 3312 
Q 3466 3159 3700 2913 
z
M 2819 584 
Q 2909 794 2948 1051 
Q 2988 1309 2988 1678 
Q 2988 2009 2952 2275 
Q 2916 2541 2831 2747 
Q 2744 2959 2600 3075 
Q 2456 3191 2247 3191 
Q 2034 3191 1890 3077 
Q 1747 2963 1656 2753 
Q 1575 2563 1537 2286 
Q 1500 2009 1500 1678 
Q 1500 1331 1533 1087 
Q 1566 844 1653 619 
Q 1731 416 1878 291 
Q 2025 166 2241 166 
Q 2441 166 2587 278 
Q 2734 391 2819 584 
z
" transform="scale(0.015625)"/>
       </defs>
       <use xlink:href="#Georgia-Bold-31"/>
       <use xlink:href="#Georgia-Bold-32" transform="translate(48.974609 0)"/>
       <use xlink:href="#Georgia-Bold-3a" transform="translate(111.621094 0)"/>
       <use xlink:href="#Georgia-Bold-30" transform="translate(148.339844 0)"/>
       <use xlink:href="#Georgia-Bold-30" transform="translate(218.457031 0)"/>
      </g>
     </g>
    </g>
    <g id="xtick_5">
     <g id="line2d_10">
      <path d="M 449.434602 470.24 
L 449.434602 82.16 
" clip-path="url(#p27216bfd7d)" style="fill: none; stroke: #b0b0b0; stroke-opacity: 0.15; stroke-width: 0.8; stroke-linecap: square"/>
     </g>
     <g id="line2d_11"/>
     <g id="text_5">
      <!-- 15:00 -->
      <g transform="translate(436.944759 485.799375) scale(0.1 -0.1)">
       <defs>
        <path id="Georgia-31" d="M 2528 0 
L 422 0 
L 422 222 
Q 516 228 714 248 
Q 913 269 988 291 
Q 1084 322 1136 392 
Q 1188 463 1188 603 
L 1188 2797 
L 409 2797 
L 409 3059 
L 581 3059 
Q 919 3059 1186 3184 
Q 1453 3309 1569 3453 
L 1828 3453 
Q 1819 3250 1809 2978 
Q 1800 2706 1800 2491 
L 1800 638 
Q 1800 528 1848 442 
Q 1897 356 1988 316 
Q 2069 281 2253 253 
Q 2438 225 2528 222 
L 2528 0 
z
" transform="scale(0.015625)"/>
        <path id="Georgia-35" d="M 2634 1466 
Q 2841 1303 2977 1047 
Q 3113 791 3113 406 
Q 3113 -266 2653 -703 
Q 2194 -1141 1488 -1141 
Q 941 -1141 562 -881 
Q 184 -622 184 -278 
Q 184 -119 262 0 
Q 341 119 503 119 
Q 691 119 789 20 
Q 888 -78 888 -194 
Q 888 -294 853 -444 
Q 819 -594 800 -666 
Q 825 -688 881 -725 
Q 938 -763 1016 -797 
Q 1097 -831 1214 -857 
Q 1331 -884 1488 -884 
Q 1688 -884 1866 -803 
Q 2044 -722 2166 -563 
Q 2300 -388 2367 -164 
Q 2434 59 2434 403 
Q 2434 844 2189 1133 
Q 1944 1422 1544 1422 
Q 1294 1422 1076 1328 
Q 859 1234 688 1016 
L 478 1097 
L 744 3353 
L 2981 3353 
L 2981 2797 
L 997 2797 
L 834 1472 
Q 975 1572 1204 1670 
Q 1434 1769 1709 1769 
Q 1938 1769 2183 1698 
Q 2428 1628 2634 1466 
z
" transform="scale(0.015625)"/>
       </defs>
       <use xlink:href="#Georgia-31"/>
       <use xlink:href="#Georgia-35" transform="translate(42.96875 0)"/>
       <use xlink:href="#Georgia-3a" transform="translate(95.800781 0)"/>
       <use xlink:href="#Georgia-30" transform="translate(127.050781 0)"/>
       <use xlink:href="#Georgia-30" transform="translate(188.427734 0)"/>
      </g>
     </g>
    </g>
    <g id="xtick_6">
     <g id="line2d_12">
      <path d="M 540.743693 470.24 
L 540.743693 82.16 
" clip-path="url(#p27216bfd7d)" style="fill: none; stroke: #b0b0b0; stroke-opacity: 0.15; stroke-width: 0.8; stroke-linecap: square"/>
     </g>
     <g id="line2d_13"/>
     <g id="text_6">
      <!-- 18:00 -->
      <g transform="translate(527.914006 485.799375) scale(0.1 -0.1)">
       <defs>
        <path id="Georgia-38" d="M 3491 1175 
Q 3491 650 3037 272 
Q 2584 -106 1847 -106 
Q 1156 -106 740 241 
Q 325 588 325 1134 
Q 325 1538 570 1808 
Q 816 2078 1297 2266 
Q 900 2488 703 2753 
Q 506 3019 506 3353 
Q 506 3863 939 4206 
Q 1372 4550 1975 4550 
Q 2578 4550 2951 4225 
Q 3325 3900 3325 3409 
Q 3325 3094 3119 2811 
Q 2913 2528 2513 2347 
Q 3031 2125 3261 1856 
Q 3491 1588 3491 1175 
z
M 2734 3444 
Q 2734 3825 2507 4064 
Q 2281 4303 1928 4303 
Q 1575 4303 1350 4073 
Q 1125 3844 1125 3503 
Q 1125 3175 1381 2947 
Q 1638 2719 2294 2459 
Q 2528 2609 2631 2856 
Q 2734 3103 2734 3444 
z
M 2866 1028 
Q 2866 1225 2781 1373 
Q 2697 1522 2538 1644 
Q 2384 1763 2111 1892 
Q 1838 2022 1519 2156 
Q 1219 1994 1078 1742 
Q 938 1491 938 1169 
Q 938 709 1208 426 
Q 1478 144 1928 144 
Q 2359 144 2612 394 
Q 2866 644 2866 1028 
z
" transform="scale(0.015625)"/>
       </defs>
       <use xlink:href="#Georgia-31"/>
       <use xlink:href="#Georgia-38" transform="translate(42.96875 0)"/>
       <use xlink:href="#Georgia-3a" transform="translate(102.587891 0)"/>
       <use xlink:href="#Georgia-30" transform="translate(133.837891 0)"/>
       <use xlink:href="#Georgia-30" transform="translate(195.214844 0)"/>
      </g>
     </g>
    </g>
    <g id="xtick_7">
     <g id="line2d_14">
      <path d="M 632.052784 470.24 
L 632.052784 82.16 
" clip-path="url(#p27216bfd7d)" style="fill: none; stroke: #b0b0b0; stroke-opacity: 0.15; stroke-width: 0.8; stroke-linecap: square"/>
     </g>
     <g id="line2d_15"/>
     <g id="text_7">
      <!-- 21:00 -->
      <g transform="translate(619.411378 485.799375) scale(0.1 -0.1)">
       <defs>
        <path id="Georgia-32" d="M 3272 0 
L 344 0 
L 344 425 
Q 428 522 578 642 
Q 728 763 934 903 
Q 1059 988 1234 1088 
Q 1409 1188 1631 1306 
Q 1878 1438 2011 1538 
Q 2144 1638 2253 1784 
Q 2325 1881 2369 2026 
Q 2413 2172 2413 2441 
Q 2413 2831 2203 3014 
Q 1994 3197 1666 3197 
Q 1463 3197 1281 3117 
Q 1100 3038 1009 2897 
Q 1031 2797 1064 2659 
Q 1097 2522 1097 2391 
Q 1097 2272 998 2180 
Q 900 2088 706 2088 
Q 550 2088 465 2195 
Q 381 2303 381 2484 
Q 381 2653 475 2823 
Q 569 2994 744 3138 
Q 916 3278 1169 3365 
Q 1422 3453 1716 3453 
Q 2356 3453 2732 3167 
Q 3109 2881 3109 2403 
Q 3109 2175 3042 1987 
Q 2975 1800 2825 1656 
Q 2659 1497 2437 1383 
Q 2216 1269 1759 1066 
Q 1488 944 1253 811 
Q 1019 678 869 553 
L 3272 553 
L 3272 0 
z
" transform="scale(0.015625)"/>
       </defs>
       <use xlink:href="#Georgia-32"/>
       <use xlink:href="#Georgia-31" transform="translate(55.859375 0)"/>
       <use xlink:href="#Georgia-3a" transform="translate(98.828125 0)"/>
       <use xlink:href="#Georgia-30" transform="translate(130.078125 0)"/>
       <use xlink:href="#Georgia-30" transform="translate(191.455078 0)"/>
      </g>
     </g>
    </g>
    <g id="xtick_8">
     <g id="line2d_16">
      <path d="M 723.361875 470.24 
L 723.361875 82.16 
" clip-path="url(#p27216bfd7d)" style="fill: none; stroke: #b0b0b0; stroke-opacity: 0.15; stroke-width: 0.8; stroke-linecap: square"/>
     </g>
     <g id="line2d_17"/>
     <g id="text_8">
      <!-- 00:00 -->
      <g transform="translate(709.524375 485.799375) scale(0.1 -0.1)">
       <use xlink:href="#Georgia-30"/>
       <use xlink:href="#Georgia-30" transform="translate(61.376953 0)"/>
       <use xlink:href="#Georgia-3a" transform="translate(122.753906 0)"/>
       <use xlink:href="#Georgia-30" transform="translate(154.003906 0)"/>
       <use xlink:href="#Georgia-30" transform="translate(215.380859 0)"/>
      </g>
     </g>
    </g>
    <g id="text_9">
     <!-- Activity Start Time -->
     <g transform="translate(342.837969 506.283437) scale(0.11 -0.11)">
      <defs>
       <path id="Georgia-41" d="M 4441 0 
L 2594 0 
L 2594 222 
Q 2838 238 2998 284 
Q 3159 331 3159 400 
Q 3159 428 3153 468 
Q 3147 509 3134 541 
L 2766 1534 
L 1213 1534 
Q 1125 1316 1070 1153 
Q 1016 991 972 853 
Q 931 719 915 634 
Q 900 550 900 497 
Q 900 372 1097 303 
Q 1294 234 1541 222 
L 1541 0 
L -128 0 
L -128 222 
Q -47 228 75 258 
Q 197 288 275 338 
Q 400 422 469 514 
Q 538 606 603 769 
Q 938 1603 1341 2643 
Q 1744 3684 2059 4497 
L 2309 4497 
L 3788 672 
Q 3834 550 3893 475 
Q 3953 400 4059 328 
Q 4131 284 4247 254 
Q 4363 225 4441 222 
L 4441 0 
z
M 2653 1813 
L 1981 3531 
L 1322 1813 
L 2653 1813 
z
" transform="scale(0.015625)"/>
       <path id="Georgia-63" d="M 1650 -81 
Q 981 -81 603 362 
Q 225 806 225 1553 
Q 225 1878 326 2161 
Q 428 2444 622 2675 
Q 806 2897 1084 3033 
Q 1363 3169 1691 3169 
Q 2144 3169 2428 2951 
Q 2713 2734 2713 2359 
Q 2713 2203 2638 2083 
Q 2563 1963 2391 1963 
Q 2206 1963 2104 2056 
Q 2003 2150 2003 2266 
Q 2003 2406 2040 2554 
Q 2078 2703 2084 2772 
Q 2028 2869 1917 2901 
Q 1806 2934 1678 2934 
Q 1528 2934 1392 2870 
Q 1256 2806 1128 2634 
Q 1013 2478 941 2212 
Q 869 1947 869 1578 
Q 869 997 1126 630 
Q 1384 263 1803 263 
Q 2106 263 2311 409 
Q 2516 556 2691 850 
L 2891 719 
Q 2684 350 2346 134 
Q 2009 -81 1650 -81 
z
" transform="scale(0.015625)"/>
       <path id="Georgia-74" d="M 2128 134 
Q 1925 50 1744 -8 
Q 1563 -66 1300 -66 
Q 913 -66 755 129 
Q 597 325 597 681 
L 597 2769 
L 41 2769 
L 41 3069 
L 609 3069 
L 609 4028 
L 1178 4028 
L 1178 3069 
L 2063 3069 
L 2063 2769 
L 1184 2769 
L 1184 1047 
Q 1184 853 1198 723 
Q 1213 594 1266 497 
Q 1316 406 1416 359 
Q 1516 313 1684 313 
Q 1763 313 1914 327 
Q 2066 341 2128 363 
L 2128 134 
z
" transform="scale(0.015625)"/>
       <path id="Georgia-69" d="M 1722 0 
L 231 0 
L 231 206 
Q 303 213 379 219 
Q 456 225 513 244 
Q 600 272 642 342 
Q 684 413 684 525 
L 684 2428 
Q 684 2528 639 2611 
Q 594 2694 513 2750 
Q 453 2788 340 2814 
Q 228 2841 134 2847 
L 134 3050 
L 1222 3119 
L 1266 3075 
L 1266 563 
Q 1266 453 1308 381 
Q 1350 309 1441 275 
Q 1509 247 1575 230 
Q 1641 213 1722 206 
L 1722 0 
z
M 1328 4334 
Q 1328 4156 1211 4023 
Q 1094 3891 922 3891 
Q 763 3891 645 4017 
Q 528 4144 528 4306 
Q 528 4478 645 4606 
Q 763 4734 922 4734 
Q 1100 4734 1214 4614 
Q 1328 4494 1328 4334 
z
" transform="scale(0.015625)"/>
       <path id="Georgia-76" d="M 3269 2891 
Q 3128 2866 3001 2789 
Q 2875 2713 2784 2519 
Q 2600 2100 2403 1645 
Q 2206 1191 1994 691 
Q 1931 547 1861 350 
Q 1791 153 1731 -28 
L 1488 -28 
Q 1191 706 941 1311 
Q 691 1916 422 2550 
Q 359 2694 220 2773 
Q 81 2853 -59 2875 
L -59 3081 
L 1366 3081 
L 1366 2863 
Q 1272 2859 1131 2823 
Q 991 2788 991 2725 
Q 991 2716 1006 2677 
Q 1022 2638 1038 2588 
Q 1166 2269 1400 1697 
Q 1634 1125 1781 775 
Q 1894 1044 2064 1444 
Q 2234 1844 2431 2338 
Q 2463 2422 2491 2495 
Q 2519 2569 2519 2644 
Q 2519 2697 2467 2739 
Q 2416 2781 2344 2813 
Q 2272 2844 2203 2859 
Q 2134 2875 2091 2881 
L 2091 3081 
L 3269 3081 
L 3269 2891 
z
" transform="scale(0.015625)"/>
       <path id="Georgia-79" d="M -9 -1006 
Q -9 -850 77 -751 
Q 163 -653 291 -653 
Q 391 -653 462 -690 
Q 534 -728 591 -788 
Q 638 -834 691 -915 
Q 744 -997 775 -1050 
Q 931 -966 1148 -609 
Q 1366 -253 1463 16 
Q 1166 756 925 1340 
Q 684 1925 422 2550 
Q 363 2694 222 2773 
Q 81 2853 -59 2875 
L -59 3081 
L 1347 3081 
L 1347 2863 
Q 1253 2859 1122 2823 
Q 991 2788 991 2741 
Q 991 2722 1005 2678 
Q 1019 2634 1038 2588 
Q 1156 2278 1400 1695 
Q 1644 1113 1778 763 
Q 1919 1097 2070 1455 
Q 2222 1813 2409 2300 
Q 2431 2359 2472 2464 
Q 2513 2569 2513 2644 
Q 2513 2725 2370 2795 
Q 2228 2866 2100 2881 
L 2100 3081 
L 3244 3081 
L 3244 2888 
Q 3150 2872 2997 2780 
Q 2844 2688 2769 2519 
Q 2397 1656 2108 947 
Q 1819 238 1669 -97 
Q 1472 -534 1317 -779 
Q 1163 -1025 1016 -1166 
Q 872 -1297 755 -1342 
Q 638 -1388 513 -1388 
Q 269 -1388 130 -1272 
Q -9 -1156 -9 -1006 
z
" transform="scale(0.015625)"/>
       <path id="Georgia-20" transform="scale(0.015625)"/>
       <path id="Georgia-53" d="M 3066 2034 
Q 3206 1878 3273 1692 
Q 3341 1506 3341 1259 
Q 3341 672 2906 290 
Q 2472 -91 1828 -91 
Q 1531 -91 1234 1 
Q 938 94 722 225 
L 588 -3 
L 338 -3 
L 294 1516 
L 547 1516 
Q 625 1234 729 1007 
Q 834 781 1006 584 
Q 1169 400 1386 290 
Q 1603 181 1891 181 
Q 2106 181 2267 237 
Q 2428 294 2528 397 
Q 2628 500 2676 639 
Q 2725 778 2725 959 
Q 2725 1225 2575 1454 
Q 2425 1684 2128 1803 
Q 1925 1884 1662 1982 
Q 1400 2081 1209 2169 
Q 834 2338 626 2611 
Q 419 2884 419 3325 
Q 419 3578 522 3797 
Q 625 4016 816 4188 
Q 997 4350 1244 4442 
Q 1491 4534 1759 4534 
Q 2066 4534 2308 4440 
Q 2550 4347 2750 4222 
L 2878 4434 
L 3128 4434 
L 3153 2963 
L 2900 2963 
Q 2831 3216 2745 3447 
Q 2659 3678 2522 3866 
Q 2388 4047 2194 4155 
Q 2000 4263 1719 4263 
Q 1422 4263 1212 4072 
Q 1003 3881 1003 3606 
Q 1003 3319 1137 3130 
Q 1272 2941 1528 2819 
Q 1756 2709 1976 2629 
Q 2197 2550 2403 2459 
Q 2591 2378 2764 2275 
Q 2938 2172 3066 2034 
z
" transform="scale(0.015625)"/>
       <path id="Georgia-61" d="M 3144 56 
Q 2997 3 2886 -30 
Q 2775 -63 2634 -63 
Q 2391 -63 2245 51 
Q 2100 166 2059 384 
L 2041 384 
Q 1838 159 1605 40 
Q 1372 -78 1044 -78 
Q 697 -78 473 134 
Q 250 347 250 691 
Q 250 869 300 1009 
Q 350 1150 450 1263 
Q 528 1356 656 1429 
Q 784 1503 897 1547 
Q 1038 1600 1467 1744 
Q 1897 1888 2047 1969 
L 2047 2278 
Q 2047 2319 2030 2434 
Q 2013 2550 1956 2653 
Q 1894 2769 1780 2855 
Q 1666 2941 1456 2941 
Q 1313 2941 1189 2892 
Q 1066 2844 1016 2791 
Q 1016 2728 1045 2606 
Q 1075 2484 1075 2381 
Q 1075 2272 976 2181 
Q 878 2091 703 2091 
Q 547 2091 473 2202 
Q 400 2313 400 2450 
Q 400 2594 501 2725 
Q 603 2856 766 2959 
Q 906 3047 1106 3108 
Q 1306 3169 1497 3169 
Q 1759 3169 1954 3133 
Q 2150 3097 2309 2978 
Q 2469 2863 2551 2664 
Q 2634 2466 2634 2153 
Q 2634 1706 2625 1361 
Q 2616 1016 2616 606 
Q 2616 484 2658 412 
Q 2700 341 2788 291 
Q 2834 263 2936 259 
Q 3038 256 3144 256 
L 3144 56 
z
M 2053 1706 
Q 1788 1628 1588 1553 
Q 1388 1478 1216 1366 
Q 1059 1259 968 1114 
Q 878 969 878 769 
Q 878 509 1014 387 
Q 1150 266 1359 266 
Q 1581 266 1750 373 
Q 1919 481 2034 628 
L 2053 1706 
z
" transform="scale(0.015625)"/>
       <path id="Georgia-72" d="M 2584 2684 
Q 2584 2525 2506 2401 
Q 2428 2278 2266 2278 
Q 2091 2278 1998 2368 
Q 1906 2459 1906 2569 
Q 1906 2638 1917 2694 
Q 1928 2750 1938 2806 
Q 1791 2806 1594 2687 
Q 1397 2569 1259 2350 
L 1259 556 
Q 1259 447 1301 378 
Q 1344 309 1434 275 
Q 1513 244 1636 228 
Q 1759 213 1850 206 
L 1850 0 
L 225 0 
L 225 206 
Q 297 213 373 219 
Q 450 225 506 244 
Q 594 272 636 342 
Q 678 413 678 525 
L 678 2428 
Q 678 2525 633 2619 
Q 588 2713 506 2769 
Q 447 2806 365 2823 
Q 284 2841 191 2847 
L 191 3050 
L 1216 3119 
L 1259 3075 
L 1259 2641 
L 1275 2641 
Q 1469 2894 1706 3025 
Q 1944 3156 2141 3156 
Q 2338 3156 2461 3028 
Q 2584 2900 2584 2684 
z
" transform="scale(0.015625)"/>
       <path id="Georgia-54" d="M 3909 3231 
L 3694 3231 
Q 3666 3344 3592 3498 
Q 3519 3653 3428 3791 
Q 3334 3934 3223 4042 
Q 3113 4150 3009 4166 
Q 2913 4178 2766 4184 
Q 2619 4191 2494 4191 
L 2313 4191 
L 2313 644 
Q 2313 541 2356 455 
Q 2400 369 2509 322 
Q 2566 300 2745 262 
Q 2925 225 3025 222 
L 3025 0 
L 931 0 
L 931 222 
Q 1019 228 1198 247 
Q 1378 266 1447 294 
Q 1550 334 1598 411 
Q 1647 488 1647 616 
L 1647 4191 
L 1466 4191 
Q 1369 4191 1225 4186 
Q 1081 4181 950 4166 
Q 847 4153 736 4042 
Q 625 3931 531 3791 
Q 438 3650 366 3492 
Q 294 3334 266 3231 
L 47 3231 
L 47 4434 
L 3909 4434 
L 3909 3231 
z
" transform="scale(0.015625)"/>
       <path id="Georgia-6d" d="M 5503 0 
L 4000 0 
L 4000 206 
Q 4072 213 4145 219 
Q 4219 225 4275 244 
Q 4363 272 4405 342 
Q 4447 413 4447 525 
L 4447 2116 
Q 4447 2441 4298 2617 
Q 4150 2794 3928 2794 
Q 3775 2794 3640 2747 
Q 3506 2700 3394 2616 
Q 3303 2547 3242 2467 
Q 3181 2388 3150 2334 
L 3150 556 
Q 3150 447 3187 376 
Q 3225 306 3316 269 
Q 3388 241 3445 227 
Q 3503 213 3597 206 
L 3597 0 
L 2125 0 
L 2125 206 
Q 2197 213 2264 219 
Q 2331 225 2388 244 
Q 2475 272 2517 342 
Q 2559 413 2559 525 
L 2559 2116 
Q 2559 2441 2411 2617 
Q 2263 2794 2041 2794 
Q 1888 2794 1753 2745 
Q 1619 2697 1506 2613 
Q 1416 2544 1353 2458 
Q 1291 2372 1259 2328 
L 1259 563 
Q 1259 456 1303 384 
Q 1347 313 1434 275 
Q 1500 244 1569 228 
Q 1638 213 1722 206 
L 1722 0 
L 225 0 
L 225 206 
Q 297 213 373 219 
Q 450 225 506 244 
Q 594 272 636 342 
Q 678 413 678 525 
L 678 2441 
Q 678 2541 633 2620 
Q 588 2700 506 2756 
Q 447 2794 359 2817 
Q 272 2841 178 2847 
L 178 3050 
L 1209 3119 
L 1253 3075 
L 1253 2634 
L 1275 2634 
Q 1353 2713 1465 2819 
Q 1578 2925 1675 2991 
Q 1784 3066 1948 3116 
Q 2113 3166 2303 3166 
Q 2603 3166 2818 3005 
Q 3034 2844 3128 2616 
Q 3241 2725 3327 2808 
Q 3413 2891 3553 2984 
Q 3672 3066 3833 3116 
Q 3994 3166 4191 3166 
Q 4581 3166 4809 2909 
Q 5038 2653 5038 2122 
L 5038 556 
Q 5038 447 5075 376 
Q 5113 306 5203 269 
Q 5275 241 5345 227 
Q 5416 213 5503 206 
L 5503 0 
z
" transform="scale(0.015625)"/>
       <path id="Georgia-65" d="M 2963 725 
Q 2769 356 2444 137 
Q 2119 -81 1697 -81 
Q 1325 -81 1045 50 
Q 766 181 584 406 
Q 403 631 314 931 
Q 225 1231 225 1566 
Q 225 1866 320 2155 
Q 416 2444 600 2675 
Q 778 2897 1042 3033 
Q 1306 3169 1634 3169 
Q 1972 3169 2212 3062 
Q 2453 2956 2603 2772 
Q 2747 2597 2817 2359 
Q 2888 2122 2888 1844 
L 2888 1638 
L 847 1638 
Q 847 1334 905 1087 
Q 963 841 1088 653 
Q 1209 472 1406 367 
Q 1603 263 1875 263 
Q 2153 263 2354 392 
Q 2556 522 2744 859 
L 2963 725 
z
M 2272 1900 
Q 2272 2075 2242 2275 
Q 2213 2475 2147 2609 
Q 2075 2753 1950 2843 
Q 1825 2934 1628 2934 
Q 1300 2934 1083 2661 
Q 866 2388 847 1900 
L 2272 1900 
z
" transform="scale(0.015625)"/>
      </defs>
      <use xlink:href="#Georgia-41"/>
      <use xlink:href="#Georgia-63" transform="translate(67.089844 0)"/>
      <use xlink:href="#Georgia-74" transform="translate(112.5 0)"/>
      <use xlink:href="#Georgia-69" transform="translate(147.021484 0)"/>
      <use xlink:href="#Georgia-76" transform="translate(176.318359 0)"/>
      <use xlink:href="#Georgia-69" transform="translate(225.976562 0)"/>
      <use xlink:href="#Georgia-74" transform="translate(255.273438 0)"/>
      <use xlink:href="#Georgia-79" transform="translate(289.794922 0)"/>
      <use xlink:href="#Georgia-20" transform="translate(339.013672 0)"/>
      <use xlink:href="#Georgia-53" transform="translate(363.134766 0)"/>
      <use xlink:href="#Georgia-74" transform="translate(419.238281 0)"/>
      <use xlink:href="#Georgia-61" transform="translate(453.759766 0)"/>
      <use xlink:href="#Georgia-72" transform="translate(504.150391 0)"/>
      <use xlink:href="#Georgia-74" transform="translate(545.117188 0)"/>
      <use xlink:href="#Georgia-20" transform="translate(579.638672 0)"/>
      <use xlink:href="#Georgia-54" transform="translate(603.759766 0)"/>
      <use xlink:href="#Georgia-69" transform="translate(665.625 0)"/>
      <use xlink:href="#Georgia-6d" transform="translate(694.921875 0)"/>
      <use xlink:href="#Georgia-65" transform="translate(783.007812 0)"/>
     </g>
    </g>
   </g>
   <g id="matplotlib.axis_2">
    <g id="ytick_1">
     <g id="line2d_18">
      <path d="M 53.761875 470.24 
L 723.361875 470.24 
" clip-path="url(#p27216bfd7d)" style="fill: none; stroke: #b0b0b0; stroke-opacity: 0.15; stroke-width: 0.8; stroke-linecap: square"/>
     </g>
     <g id="line2d_19"/>
     <g id="text_10">
      <!-- 0 -->
      <g transform="translate(39.624375 474.019687) scale(0.1 -0.1)">
       <use xlink:href="#Georgia-30"/>
      </g>
     </g>
    </g>
    <g id="ytick_2">
     <g id="line2d_20">
      <path d="M 53.761875 404.939647 
L 723.361875 404.939647 
" clip-path="url(#p27216bfd7d)" style="fill: none; stroke: #b0b0b0; stroke-opacity: 0.15; stroke-width: 0.8; stroke-linecap: square"/>
     </g>
     <g id="line2d_21"/>
     <g id="text_11">
      <!-- 50 -->
      <g transform="translate(34.341563 408.719334) scale(0.1 -0.1)">
       <use xlink:href="#Georgia-35"/>
       <use xlink:href="#Georgia-30" transform="translate(52.832031 0)"/>
      </g>
     </g>
    </g>
    <g id="ytick_3">
     <g id="line2d_22">
      <path d="M 53.761875 339.639293 
L 723.361875 339.639293 
" clip-path="url(#p27216bfd7d)" style="fill: none; stroke: #b0b0b0; stroke-opacity: 0.15; stroke-width: 0.8; stroke-linecap: square"/>
     </g>
     <g id="line2d_23"/>
     <g id="text_12">
      <!-- 100 -->
      <g transform="translate(29.19 343.418981) scale(0.1 -0.1)">
       <use xlink:href="#Georgia-31"/>
       <use xlink:href="#Georgia-30" transform="translate(42.96875 0)"/>
       <use xlink:href="#Georgia-30" transform="translate(104.345703 0)"/>
      </g>
     </g>
    </g>
    <g id="ytick_4">
     <g id="line2d_24">
      <path d="M 53.761875 274.33894 
L 723.361875 274.33894 
" clip-path="url(#p27216bfd7d)" style="fill: none; stroke: #b0b0b0; stroke-opacity: 0.15; stroke-width: 0.8; stroke-linecap: square"/>
     </g>
     <g id="line2d_25"/>
     <g id="text_13">
      <!-- 150 -->
      <g transform="translate(30.044688 278.118627) scale(0.1 -0.1)">
       <use xlink:href="#Georgia-31"/>
       <use xlink:href="#Georgia-35" transform="translate(42.96875 0)"/>
       <use xlink:href="#Georgia-30" transform="translate(95.800781 0)"/>
      </g>
     </g>
    </g>
    <g id="ytick_5">
     <g id="line2d_26">
      <path d="M 53.761875 209.038587 
L 723.361875 209.038587 
" clip-path="url(#p27216bfd7d)" style="fill: none; stroke: #b0b0b0; stroke-opacity: 0.15; stroke-width: 0.8; stroke-linecap: square"/>
     </g>
     <g id="line2d_27"/>
     <g id="text_14">
      <!-- 200 -->
      <g transform="translate(27.900938 212.818274) scale(0.1 -0.1)">
       <use xlink:href="#Georgia-32"/>
       <use xlink:href="#Georgia-30" transform="translate(55.859375 0)"/>
       <use xlink:href="#Georgia-30" transform="translate(117.236328 0)"/>
      </g>
     </g>
    </g>
    <g id="ytick_6">
     <g id="line2d_28">
      <path d="M 53.761875 143.738233 
L 723.361875 143.738233 
" clip-path="url(#p27216bfd7d)" style="fill: none; stroke: #b0b0b0; stroke-opacity: 0.15; stroke-width: 0.8; stroke-linecap: square"/>
     </g>
     <g id="line2d_29"/>
     <g id="text_15">
      <!-- 250 -->
      <g transform="translate(28.755625 147.517921) scale(0.1 -0.1)">
       <use xlink:href="#Georgia-32"/>
       <use xlink:href="#Georgia-35" transform="translate(55.859375 0)"/>
       <use xlink:href="#Georgia-30" transform="translate(108.691406 0)"/>
      </g>
     </g>
    </g>
    <g id="text_16">
     <!-- Number of Strava Activities -->
     <g transform="translate(15.515313 343.250156) rotate(-90) scale(0.11 -0.11)">
      <defs>
       <path id="Georgia-4e" d="M 4856 4213 
Q 4769 4209 4587 4162 
Q 4406 4116 4328 4066 
Q 4216 3988 4177 3766 
Q 4138 3544 4138 3203 
L 4138 -44 
L 3866 -44 
L 1178 3584 
L 1178 1297 
Q 1178 913 1226 706 
Q 1275 500 1375 413 
Q 1447 344 1672 284 
Q 1897 225 1969 222 
L 1969 0 
L 150 0 
L 150 222 
Q 234 228 434 283 
Q 634 338 684 381 
Q 794 469 834 648 
Q 875 828 875 1263 
L 875 3447 
Q 875 3591 825 3734 
Q 775 3878 691 3956 
Q 578 4059 386 4132 
Q 194 4206 75 4213 
L 75 4434 
L 1341 4434 
L 3834 1053 
L 3834 3163 
Q 3834 3550 3784 3758 
Q 3734 3966 3641 4034 
Q 3553 4094 3354 4150 
Q 3156 4206 3053 4213 
L 3053 4434 
L 4856 4434 
L 4856 4213 
z
" transform="scale(0.015625)"/>
       <path id="Georgia-75" d="M 3528 56 
L 2525 -13 
L 2478 31 
L 2478 422 
L 2459 422 
Q 2384 344 2290 255 
Q 2197 166 2075 94 
Q 1934 9 1803 -34 
Q 1672 -78 1431 -78 
Q 1022 -78 808 189 
Q 594 456 594 966 
L 594 2441 
Q 594 2553 551 2629 
Q 509 2706 428 2763 
Q 372 2800 287 2817 
Q 203 2834 109 2841 
L 109 3044 
L 1138 3119 
L 1184 3075 
L 1184 934 
Q 1184 600 1334 431 
Q 1484 263 1694 263 
Q 1866 263 2000 316 
Q 2134 369 2225 441 
Q 2309 506 2373 579 
Q 2438 653 2472 716 
L 2472 2463 
Q 2472 2566 2428 2645 
Q 2384 2725 2306 2781 
Q 2250 2819 2139 2826 
Q 2028 2834 1891 2841 
L 1891 3044 
L 3009 3119 
L 3056 3075 
L 3056 628 
Q 3056 522 3100 447 
Q 3144 372 3222 319 
Q 3278 284 3356 273 
Q 3434 263 3528 259 
L 3528 56 
z
" transform="scale(0.015625)"/>
       <path id="Georgia-62" d="M 3353 1544 
Q 3353 850 2915 378 
Q 2478 -94 1900 -94 
Q 1647 -94 1401 -15 
Q 1156 63 941 194 
L 709 -166 
L 516 -122 
Q 531 109 537 434 
Q 544 759 544 1063 
L 544 4113 
Q 544 4219 495 4325 
Q 447 4431 372 4478 
Q 313 4519 173 4539 
Q 34 4559 -50 4566 
L -50 4766 
L 1081 4838 
L 1125 4791 
L 1125 2759 
L 1147 2753 
Q 1341 2959 1570 3062 
Q 1800 3166 2022 3166 
Q 2591 3166 2972 2716 
Q 3353 2266 3353 1544 
z
M 2700 1522 
Q 2700 1753 2650 1993 
Q 2600 2234 2494 2413 
Q 2388 2594 2216 2706 
Q 2044 2819 1803 2819 
Q 1584 2819 1420 2733 
Q 1256 2647 1125 2500 
L 1125 706 
Q 1144 631 1198 531 
Q 1253 431 1347 341 
Q 1441 253 1559 198 
Q 1678 144 1850 144 
Q 2231 144 2465 512 
Q 2700 881 2700 1522 
z
" transform="scale(0.015625)"/>
       <path id="Georgia-6f" d="M 3228 1572 
Q 3228 1247 3125 933 
Q 3022 619 2831 400 
Q 2616 150 2331 28 
Q 2047 -94 1694 -94 
Q 1400 -94 1134 17 
Q 869 128 663 341 
Q 459 550 339 851 
Q 219 1153 219 1528 
Q 219 2250 639 2709 
Q 1059 3169 1741 3169 
Q 2388 3169 2808 2733 
Q 3228 2297 3228 1572 
z
M 2581 1566 
Q 2581 1800 2534 2061 
Q 2488 2322 2394 2503 
Q 2294 2697 2131 2814 
Q 1969 2931 1734 2931 
Q 1494 2931 1323 2812 
Q 1153 2694 1047 2488 
Q 947 2297 906 2053 
Q 866 1809 866 1581 
Q 866 1281 914 1026 
Q 963 772 1069 572 
Q 1175 372 1336 258 
Q 1497 144 1734 144 
Q 2125 144 2353 522 
Q 2581 900 2581 1566 
z
" transform="scale(0.015625)"/>
       <path id="Georgia-66" d="M 2519 4466 
Q 2519 4325 2444 4228 
Q 2369 4131 2216 4131 
Q 2119 4131 2045 4172 
Q 1972 4213 1909 4281 
Q 1847 4350 1794 4437 
Q 1741 4525 1703 4578 
Q 1494 4569 1380 4286 
Q 1266 4003 1266 3384 
L 1266 3069 
L 2059 3069 
L 2059 2769 
L 1266 2769 
L 1266 556 
Q 1266 447 1308 378 
Q 1350 309 1441 275 
Q 1516 247 1641 230 
Q 1766 213 1856 206 
L 1856 0 
L 231 0 
L 231 206 
Q 303 213 379 219 
Q 456 225 513 244 
Q 600 272 642 342 
Q 684 413 684 525 
L 684 2769 
L 75 2769 
L 75 3069 
L 684 3069 
L 684 3266 
Q 684 3969 1048 4405 
Q 1413 4841 1959 4841 
Q 2238 4841 2378 4731 
Q 2519 4622 2519 4466 
z
" transform="scale(0.015625)"/>
       <path id="Georgia-73" d="M 2259 1509 
Q 2388 1397 2456 1250 
Q 2525 1103 2525 891 
Q 2525 463 2204 191 
Q 1884 -81 1375 -81 
Q 1106 -81 879 16 
Q 653 113 556 194 
L 494 -9 
L 259 -9 
L 228 1063 
L 444 1063 
Q 469 941 550 778 
Q 631 616 747 484 
Q 869 347 1039 253 
Q 1209 159 1422 159 
Q 1722 159 1884 295 
Q 2047 431 2047 684 
Q 2047 816 1995 911 
Q 1944 1006 1844 1078 
Q 1741 1150 1591 1208 
Q 1441 1266 1256 1322 
Q 1109 1366 929 1442 
Q 750 1519 622 1622 
Q 484 1731 396 1890 
Q 309 2050 309 2266 
Q 309 2644 590 2906 
Q 872 3169 1344 3169 
Q 1525 3169 1714 3122 
Q 1903 3075 2022 3009 
L 2094 3172 
L 2319 3172 
L 2366 2181 
L 2150 2181 
Q 2084 2513 1867 2720 
Q 1650 2928 1338 2928 
Q 1081 2928 934 2800 
Q 788 2672 788 2491 
Q 788 2350 836 2256 
Q 884 2163 981 2097 
Q 1075 2034 1217 1979 
Q 1359 1925 1569 1856 
Q 1775 1791 1958 1703 
Q 2141 1616 2259 1509 
z
" transform="scale(0.015625)"/>
      </defs>
      <use xlink:href="#Georgia-4e"/>
      <use xlink:href="#Georgia-75" transform="translate(76.708984 0)"/>
      <use xlink:href="#Georgia-6d" transform="translate(134.228516 0)"/>
      <use xlink:href="#Georgia-62" transform="translate(222.314453 0)"/>
      <use xlink:href="#Georgia-65" transform="translate(278.320312 0)"/>
      <use xlink:href="#Georgia-72" transform="translate(326.660156 0)"/>
      <use xlink:href="#Georgia-20" transform="translate(367.626953 0)"/>
      <use xlink:href="#Georgia-6f" transform="translate(391.748047 0)"/>
      <use xlink:href="#Georgia-66" transform="translate(445.654297 0)"/>
      <use xlink:href="#Georgia-20" transform="translate(478.173828 0)"/>
      <use xlink:href="#Georgia-53" transform="translate(502.294922 0)"/>
      <use xlink:href="#Georgia-74" transform="translate(558.398438 0)"/>
      <use xlink:href="#Georgia-72" transform="translate(592.919922 0)"/>
      <use xlink:href="#Georgia-61" transform="translate(633.886719 0)"/>
      <use xlink:href="#Georgia-76" transform="translate(684.277344 0)"/>
      <use xlink:href="#Georgia-61" transform="translate(733.935547 0)"/>
      <use xlink:href="#Georgia-20" transform="translate(784.326172 0)"/>
      <use xlink:href="#Georgia-41" transform="translate(808.447266 0)"/>
      <use xlink:href="#Georgia-63" transform="translate(875.537109 0)"/>
      <use xlink:href="#Georgia-74" transform="translate(920.947266 0)"/>
      <use xlink:href="#Georgia-69" transform="translate(955.46875 0)"/>
      <use xlink:href="#Georgia-76" transform="translate(984.765625 0)"/>
      <use xlink:href="#Georgia-69" transform="translate(1034.423828 0)"/>
      <use xlink:href="#Georgia-74" transform="translate(1063.720703 0)"/>
      <use xlink:href="#Georgia-69" transform="translate(1098.242188 0)"/>
      <use xlink:href="#Georgia-65" transform="translate(1127.539062 0)"/>
      <use xlink:href="#Georgia-73" transform="translate(1175.878906 0)"/>
     </g>
    </g>
   </g>
   <g id="line2d_30">
    <path d="M 84.198239 456.284068 
L 92.737499 453.196763 
L 119.575174 443.275947 
L 125.674646 441.345273 
L 131.774118 439.662839 
L 136.653695 438.527841 
L 141.533272 437.600652 
L 146.41285 436.893457 
L 151.292427 436.411626 
L 156.172004 436.153415 
L 161.051582 436.110005 
L 165.931159 436.265875 
L 172.030631 436.707654 
L 178.130102 437.373974 
L 186.669363 438.566131 
L 209.847355 442.009627 
L 217.166721 442.807119 
L 224.486087 443.357849 
L 230.585559 443.611298 
L 237.904925 443.669778 
L 245.224291 443.481596 
L 253.763551 443.003783 
L 263.522706 442.219952 
L 294.020064 439.57713 
L 303.779219 439.053565 
L 312.318479 438.811953 
L 320.857739 438.784196 
L 329.397 438.964155 
L 339.156154 439.398325 
L 350.135203 440.123326 
L 364.773935 441.349099 
L 413.569709 445.656857 
L 430.64823 446.851018 
L 446.506856 447.735027 
L 458.705799 448.204258 
L 468.464954 448.37454 
L 477.004214 448.299946 
L 484.32358 448.002566 
L 490.423052 447.536662 
L 496.522524 446.81929 
L 501.402101 446.025259 
L 506.281678 444.999417 
L 511.161256 443.705493 
L 514.820939 442.536128 
L 518.480622 441.177839 
L 522.140305 439.613973 
L 525.799988 437.82818 
L 529.459671 435.804818 
L 533.119354 433.52941 
L 536.779037 430.989144 
L 540.43872 428.173413 
L 544.098403 425.07438 
L 547.758086 421.687554 
L 551.417769 418.01236 
L 555.077452 414.052686 
L 558.737135 409.817385 
L 563.616712 403.767013 
L 568.496289 397.302397 
L 573.375867 390.49228 
L 580.695233 379.826445 
L 594.11407 360.064828 
L 598.993648 353.265505 
L 602.653331 348.449477 
L 606.313014 343.948015 
L 609.972697 339.823903 
L 613.63238 336.136943 
L 616.072168 333.949442 
L 618.511957 331.996101 
L 620.951746 330.290745 
L 623.391534 328.845781 
L 625.831323 327.67206 
L 628.271112 326.778756 
L 630.7109 326.173264 
L 633.150689 325.861116 
L 635.590478 325.845918 
L 638.030266 326.129309 
L 640.470055 326.710935 
L 642.909844 327.588457 
L 645.349632 328.757569 
L 647.789421 330.212049 
L 650.22921 331.943819 
L 652.668998 333.943039 
L 655.108787 336.198206 
L 657.548576 338.696278 
L 661.208259 342.866897 
L 664.867942 347.497422 
L 668.527625 352.528929 
L 672.187308 357.898746 
L 677.066885 365.472134 
L 683.166357 375.383656 
L 692.925511 391.573128 
L 692.925511 391.573128 
" clip-path="url(#p27216bfd7d)" style="fill: none; stroke: #388f30; stroke-width: 1.5; stroke-linecap: square"/>
   </g>
   <g id="AnnotationBbox_1">
    <g id="text_17">
     <!-- You started most of your -->
     <g transform="translate(420.652383 359.055589) scale(0.11 -0.11)">
      <defs>
       <path id="Georgia-59" d="M 4106 4213 
Q 4053 4209 3937 4170 
Q 3822 4131 3772 4094 
Q 3650 4019 3606 3978 
Q 3563 3938 3438 3766 
Q 3194 3422 2987 3069 
Q 2781 2716 2472 2172 
Q 2356 1972 2318 1850 
Q 2281 1728 2281 1497 
L 2281 650 
Q 2281 538 2326 455 
Q 2372 372 2481 322 
Q 2547 297 2715 261 
Q 2884 225 2988 222 
L 2988 0 
L 913 0 
L 913 222 
Q 1000 228 1175 245 
Q 1350 263 1419 291 
Q 1531 338 1573 419 
Q 1616 500 1616 619 
L 1616 1697 
Q 1616 1747 1555 1880 
Q 1494 2013 1409 2175 
Q 1222 2538 994 2959 
Q 766 3381 597 3681 
Q 494 3859 414 3950 
Q 334 4041 231 4109 
Q 156 4156 51 4181 
Q -53 4206 -138 4213 
L -138 4434 
L 1753 4434 
L 1753 4213 
Q 1434 4206 1303 4168 
Q 1172 4131 1172 4063 
Q 1172 4044 1190 3997 
Q 1209 3950 1244 3878 
Q 1284 3797 1340 3692 
Q 1397 3588 1447 3491 
Q 1594 3213 1747 2936 
Q 1900 2659 2147 2216 
Q 2638 3006 2895 3448 
Q 3153 3891 3153 3978 
Q 3153 4050 3100 4094 
Q 3047 4138 2959 4163 
Q 2869 4188 2762 4195 
Q 2656 4203 2566 4213 
L 2566 4434 
L 4106 4434 
L 4106 4213 
z
" transform="scale(0.015625)"/>
       <path id="Georgia-64" d="M 3600 56 
L 2525 -13 
L 2478 31 
L 2478 319 
L 2453 325 
Q 2291 144 2052 28 
Q 1813 -88 1559 -88 
Q 1297 -88 1051 29 
Q 806 147 625 359 
Q 441 575 333 878 
Q 225 1181 225 1547 
Q 225 1881 340 2181 
Q 456 2481 659 2706 
Q 850 2916 1126 3041 
Q 1403 3166 1691 3166 
Q 1906 3166 2114 3111 
Q 2322 3056 2472 2972 
L 2472 4044 
Q 2472 4175 2428 4283 
Q 2384 4391 2306 4447 
Q 2219 4506 2070 4532 
Q 1922 4559 1750 4572 
L 1750 4766 
L 3009 4838 
L 3056 4791 
L 3056 634 
Q 3056 525 3098 448 
Q 3141 372 3222 319 
Q 3281 281 3393 272 
Q 3506 263 3600 259 
L 3600 56 
z
M 2472 597 
L 2472 2400 
Q 2447 2481 2390 2575 
Q 2334 2669 2250 2747 
Q 2159 2825 2037 2876 
Q 1916 2928 1753 2928 
Q 1566 2928 1408 2831 
Q 1250 2734 1128 2553 
Q 1013 2378 945 2108 
Q 878 1838 878 1509 
Q 878 1247 928 1033 
Q 978 819 1097 634 
Q 1206 459 1376 353 
Q 1547 247 1781 247 
Q 2031 247 2195 356 
Q 2359 466 2472 597 
z
" transform="scale(0.015625)"/>
      </defs>
      <use xlink:href="#Georgia-59"/>
      <use xlink:href="#Georgia-6f" transform="translate(61.523438 0)"/>
      <use xlink:href="#Georgia-75" transform="translate(115.429688 0)"/>
      <use xlink:href="#Georgia-20" transform="translate(172.949219 0)"/>
      <use xlink:href="#Georgia-73" transform="translate(197.070312 0)"/>
      <use xlink:href="#Georgia-74" transform="translate(240.283203 0)"/>
      <use xlink:href="#Georgia-61" transform="translate(274.804688 0)"/>
      <use xlink:href="#Georgia-72" transform="translate(325.195312 0)"/>
      <use xlink:href="#Georgia-74" transform="translate(366.162109 0)"/>
      <use xlink:href="#Georgia-65" transform="translate(400.683594 0)"/>
      <use xlink:href="#Georgia-64" transform="translate(449.023438 0)"/>
      <use xlink:href="#Georgia-20" transform="translate(506.445312 0)"/>
      <use xlink:href="#Georgia-6d" transform="translate(530.566406 0)"/>
      <use xlink:href="#Georgia-6f" transform="translate(618.652344 0)"/>
      <use xlink:href="#Georgia-73" transform="translate(672.558594 0)"/>
      <use xlink:href="#Georgia-74" transform="translate(715.771484 0)"/>
      <use xlink:href="#Georgia-20" transform="translate(750.292969 0)"/>
      <use xlink:href="#Georgia-6f" transform="translate(774.414062 0)"/>
      <use xlink:href="#Georgia-66" transform="translate(828.320312 0)"/>
      <use xlink:href="#Georgia-20" transform="translate(860.839844 0)"/>
      <use xlink:href="#Georgia-79" transform="translate(884.960938 0)"/>
      <use xlink:href="#Georgia-6f" transform="translate(934.179688 0)"/>
      <use xlink:href="#Georgia-75" transform="translate(988.085938 0)"/>
      <use xlink:href="#Georgia-72" transform="translate(1045.605469 0)"/>
     </g>
    </g>
    <g id="text_18">
     <!-- activities around  -->
     <g transform="translate(422.947773 373.756527) scale(0.11 -0.11)">
      <defs>
       <path id="Georgia-6e" d="M 3628 0 
L 2119 0 
L 2119 206 
Q 2191 213 2277 219 
Q 2363 225 2419 244 
Q 2506 272 2548 342 
Q 2591 413 2591 525 
L 2591 2109 
Q 2591 2438 2436 2616 
Q 2281 2794 2059 2794 
Q 1894 2794 1756 2742 
Q 1619 2691 1513 2616 
Q 1409 2544 1348 2461 
Q 1288 2378 1259 2328 
L 1259 556 
Q 1259 450 1303 381 
Q 1347 313 1434 275 
Q 1500 244 1576 228 
Q 1653 213 1734 206 
L 1734 0 
L 225 0 
L 225 206 
Q 297 213 373 219 
Q 450 225 506 244 
Q 594 272 636 342 
Q 678 413 678 525 
L 678 2428 
Q 678 2534 633 2623 
Q 588 2713 506 2769 
Q 447 2806 365 2823 
Q 284 2841 191 2847 
L 191 3050 
L 1216 3119 
L 1259 3075 
L 1259 2641 
L 1275 2641 
Q 1350 2716 1462 2820 
Q 1575 2925 1675 2991 
Q 1791 3066 1950 3116 
Q 2109 3166 2309 3166 
Q 2753 3166 2967 2889 
Q 3181 2613 3181 2153 
L 3181 550 
Q 3181 441 3218 373 
Q 3256 306 3347 269 
Q 3422 238 3476 225 
Q 3531 213 3628 206 
L 3628 0 
z
" transform="scale(0.015625)"/>
      </defs>
      <use xlink:href="#Georgia-61"/>
      <use xlink:href="#Georgia-63" transform="translate(50.390625 0)"/>
      <use xlink:href="#Georgia-74" transform="translate(95.800781 0)"/>
      <use xlink:href="#Georgia-69" transform="translate(130.322266 0)"/>
      <use xlink:href="#Georgia-76" transform="translate(159.619141 0)"/>
      <use xlink:href="#Georgia-69" transform="translate(209.277344 0)"/>
      <use xlink:href="#Georgia-74" transform="translate(238.574219 0)"/>
      <use xlink:href="#Georgia-69" transform="translate(273.095703 0)"/>
      <use xlink:href="#Georgia-65" transform="translate(302.392578 0)"/>
      <use xlink:href="#Georgia-73" transform="translate(350.732422 0)"/>
      <use xlink:href="#Georgia-20" transform="translate(393.945312 0)"/>
      <use xlink:href="#Georgia-61" transform="translate(418.066406 0)"/>
      <use xlink:href="#Georgia-72" transform="translate(468.457031 0)"/>
      <use xlink:href="#Georgia-6f" transform="translate(509.423828 0)"/>
      <use xlink:href="#Georgia-75" transform="translate(563.330078 0)"/>
      <use xlink:href="#Georgia-6e" transform="translate(620.849609 0)"/>
      <use xlink:href="#Georgia-64" transform="translate(679.931641 0)"/>
      <use xlink:href="#Georgia-20" transform="translate(737.353516 0)"/>
     </g>
    </g>
    <g id="text_19">
     <!-- 21:04 -->
     <g transform="translate(506.709336 373.756527) scale(0.11 -0.11)">
      <defs>
       <path id="Georgia-Bold-34" d="M 3941 31 
L 3269 31 
L 3269 -1153 
L 2222 -1153 
L 2222 31 
L 153 31 
L 153 606 
L 2397 3447 
L 3269 3447 
L 3269 691 
L 3941 691 
L 3941 31 
z
M 2222 691 
L 2222 2700 
L 631 691 
L 2222 691 
z
" transform="scale(0.015625)"/>
      </defs>
      <use xlink:href="#Georgia-Bold-32"/>
      <use xlink:href="#Georgia-Bold-31" transform="translate(62.646484 0)"/>
      <use xlink:href="#Georgia-Bold-3a" transform="translate(111.621094 0)"/>
      <use xlink:href="#Georgia-Bold-30" transform="translate(148.339844 0)"/>
      <use xlink:href="#Georgia-Bold-34" transform="translate(218.457031 0)"/>
     </g>
    </g>
   </g>
   <g id="AnnotationBbox_2">
    <g id="text_20">
     <!-- Distrbiution of Your Activity  -->
     <g transform="translate(53.761875 26.728125) scale(0.2 -0.2)">
      <defs>
       <path id="Georgia-Bold-44" d="M 4209 3978 
Q 4616 3713 4866 3270 
Q 5116 2828 5116 2188 
Q 5116 1625 4892 1208 
Q 4669 791 4300 525 
Q 3925 259 3448 129 
Q 2972 0 2450 0 
L 216 0 
L 216 244 
Q 316 247 466 262 
Q 616 278 666 300 
Q 778 347 822 426 
Q 866 506 866 619 
L 866 3763 
Q 866 3869 825 3955 
Q 784 4041 666 4094 
Q 547 4147 414 4165 
Q 281 4184 209 4191 
L 209 4434 
L 2569 4434 
Q 2947 4434 3378 4337 
Q 3809 4241 4209 3978 
z
M 3572 800 
Q 3725 1050 3795 1395 
Q 3866 1741 3866 2191 
Q 3866 2631 3772 2993 
Q 3678 3356 3497 3613 
Q 3316 3869 3045 4009 
Q 2775 4150 2431 4150 
Q 2322 4150 2183 4145 
Q 2044 4141 1975 4138 
L 1975 772 
Q 1975 659 2004 573 
Q 2034 488 2106 422 
Q 2178 356 2283 320 
Q 2388 284 2556 284 
Q 2909 284 3162 415 
Q 3416 547 3572 800 
z
" transform="scale(0.015625)"/>
       <path id="Georgia-Bold-69" d="M 2156 0 
L 181 0 
L 181 228 
Q 263 234 341 243 
Q 419 253 475 275 
Q 575 313 615 383 
Q 656 453 656 569 
L 656 2388 
Q 656 2497 606 2580 
Q 556 2663 481 2713 
Q 425 2750 311 2784 
Q 197 2819 103 2828 
L 103 3056 
L 1634 3138 
L 1681 3091 
L 1681 609 
Q 1681 500 1728 423 
Q 1775 347 1863 309 
Q 1925 281 2000 259 
Q 2075 238 2156 228 
L 2156 0 
z
M 1700 4263 
Q 1700 4025 1517 3858 
Q 1334 3691 1084 3691 
Q 831 3691 648 3858 
Q 466 4025 466 4263 
Q 466 4500 648 4669 
Q 831 4838 1084 4838 
Q 1338 4838 1519 4669 
Q 1700 4500 1700 4263 
z
" transform="scale(0.015625)"/>
       <path id="Georgia-Bold-73" d="M 1628 -106 
Q 1325 -106 1036 -17 
Q 747 72 588 172 
L 494 -41 
L 250 -41 
L 209 1125 
L 438 1125 
Q 484 984 593 807 
Q 703 631 844 491 
Q 991 350 1180 253 
Q 1369 156 1584 156 
Q 1869 156 2008 267 
Q 2147 378 2147 609 
Q 2147 734 2084 815 
Q 2022 897 1913 956 
Q 1791 1019 1645 1062 
Q 1500 1106 1288 1169 
Q 1075 1231 923 1295 
Q 772 1359 609 1497 
Q 469 1619 384 1791 
Q 300 1963 300 2200 
Q 300 2641 670 2912 
Q 1041 3184 1641 3184 
Q 1925 3184 2164 3126 
Q 2403 3069 2566 3000 
L 2631 3184 
L 2869 3184 
L 2919 2119 
L 2697 2119 
Q 2588 2444 2322 2680 
Q 2056 2916 1750 2916 
Q 1509 2916 1371 2816 
Q 1234 2716 1234 2538 
Q 1234 2300 1436 2194 
Q 1638 2088 2000 1994 
Q 2559 1850 2818 1601 
Q 3078 1353 3078 969 
Q 3078 456 2676 175 
Q 2275 -106 1628 -106 
z
" transform="scale(0.015625)"/>
       <path id="Georgia-Bold-74" d="M 2506 144 
Q 2306 56 2078 -14 
Q 1850 -84 1522 -84 
Q 1034 -84 798 153 
Q 563 391 563 831 
L 563 2750 
L 0 2750 
L 0 3088 
L 575 3088 
L 575 4034 
L 1591 4034 
L 1591 3088 
L 2466 3088 
L 2466 2750 
L 1597 2750 
L 1597 1038 
Q 1597 672 1698 519 
Q 1800 366 2063 366 
Q 2147 366 2297 378 
Q 2447 391 2506 406 
L 2506 144 
z
" transform="scale(0.015625)"/>
       <path id="Georgia-Bold-72" d="M 3294 2528 
Q 3294 2291 3147 2111 
Q 3000 1931 2759 1931 
Q 2531 1931 2373 2047 
Q 2216 2163 2216 2388 
Q 2216 2497 2231 2558 
Q 2247 2619 2259 2672 
Q 2116 2666 1956 2572 
Q 1797 2478 1675 2322 
L 1675 606 
Q 1675 497 1709 425 
Q 1744 353 1825 313 
Q 1894 278 2048 254 
Q 2203 231 2272 228 
L 2272 0 
L 181 0 
L 181 228 
Q 259 234 339 245 
Q 419 256 475 275 
Q 575 309 612 381 
Q 650 453 650 569 
L 650 2388 
Q 650 2500 597 2589 
Q 544 2678 469 2731 
Q 413 2769 327 2794 
Q 241 2819 138 2828 
L 138 3056 
L 1628 3138 
L 1675 3091 
L 1675 2638 
L 1688 2638 
Q 1903 2888 2145 3030 
Q 2388 3172 2650 3172 
Q 2941 3172 3117 2992 
Q 3294 2813 3294 2528 
z
" transform="scale(0.015625)"/>
       <path id="Georgia-Bold-62" d="M 3909 1528 
Q 3909 825 3445 362 
Q 2981 -100 2269 -100 
Q 1994 -100 1795 -61 
Q 1597 -22 1459 34 
Q 1316 94 1230 151 
Q 1144 209 1094 247 
L 647 -159 
L 463 -88 
Q 478 141 489 408 
Q 500 675 500 1128 
L 500 4053 
Q 500 4172 451 4273 
Q 403 4375 322 4428 
Q 263 4466 148 4494 
Q 34 4522 -63 4528 
L -63 4756 
L 1481 4838 
L 1528 4788 
L 1528 2756 
L 1547 2756 
Q 1775 2978 2015 3081 
Q 2256 3184 2497 3184 
Q 3153 3184 3531 2737 
Q 3909 2291 3909 1528 
z
M 2788 1491 
Q 2788 1728 2752 1948 
Q 2716 2169 2631 2338 
Q 2547 2506 2409 2607 
Q 2272 2709 2069 2709 
Q 1878 2709 1753 2646 
Q 1628 2584 1528 2463 
L 1528 644 
Q 1547 581 1598 479 
Q 1650 378 1703 322 
Q 1778 241 1862 198 
Q 1947 156 2100 156 
Q 2419 156 2603 504 
Q 2788 853 2788 1491 
z
" transform="scale(0.015625)"/>
       <path id="Georgia-Bold-75" d="M 4259 66 
L 2769 -25 
L 2722 19 
L 2722 428 
L 2703 428 
Q 2597 331 2495 239 
Q 2394 147 2253 72 
Q 2094 -13 1951 -53 
Q 1809 -94 1538 -94 
Q 1066 -94 814 190 
Q 563 475 563 994 
L 563 2400 
Q 563 2522 516 2598 
Q 469 2675 391 2734 
Q 328 2781 228 2801 
Q 128 2822 47 2828 
L 47 3056 
L 1563 3138 
L 1597 3091 
L 1597 1013 
Q 1597 691 1720 537 
Q 1844 384 2059 384 
Q 2281 384 2457 500 
Q 2634 616 2716 747 
L 2716 2431 
Q 2716 2538 2675 2622 
Q 2634 2706 2556 2759 
Q 2500 2797 2395 2809 
Q 2291 2822 2181 2828 
L 2181 3056 
L 3697 3138 
L 3744 3091 
L 3744 678 
Q 3744 569 3787 492 
Q 3831 416 3916 363 
Q 3975 325 4070 311 
Q 4166 297 4259 294 
L 4259 66 
z
" transform="scale(0.015625)"/>
       <path id="Georgia-Bold-6f" d="M 3372 2731 
Q 3603 2516 3725 2216 
Q 3847 1916 3847 1566 
Q 3847 1219 3726 911 
Q 3606 603 3375 384 
Q 3128 150 2786 25 
Q 2444 -100 2003 -100 
Q 1622 -100 1301 9 
Q 981 119 734 338 
Q 497 547 359 855 
Q 222 1163 222 1544 
Q 222 1919 342 2211 
Q 463 2503 703 2731 
Q 934 2950 1273 3070 
Q 1613 3191 2031 3191 
Q 2469 3191 2801 3070 
Q 3134 2950 3372 2731 
z
M 2572 566 
Q 2641 741 2673 991 
Q 2706 1241 2706 1572 
Q 2706 1791 2675 2072 
Q 2644 2353 2581 2516 
Q 2506 2713 2373 2825 
Q 2241 2938 2038 2938 
Q 1816 2938 1683 2816 
Q 1550 2694 1478 2500 
Q 1413 2322 1388 2083 
Q 1363 1844 1363 1584 
Q 1363 1244 1384 1020 
Q 1406 797 1491 572 
Q 1563 378 1697 265 
Q 1831 153 2038 153 
Q 2225 153 2359 258 
Q 2494 363 2572 566 
z
" transform="scale(0.015625)"/>
       <path id="Georgia-Bold-6e" d="M 4306 0 
L 2425 0 
L 2425 228 
Q 2484 234 2568 243 
Q 2653 253 2697 275 
Q 2763 309 2791 375 
Q 2819 441 2819 569 
L 2819 2031 
Q 2819 2350 2701 2511 
Q 2584 2672 2356 2672 
Q 2231 2672 2123 2634 
Q 2016 2597 1913 2525 
Q 1822 2463 1767 2397 
Q 1713 2331 1675 2281 
L 1675 603 
Q 1675 494 1706 420 
Q 1738 347 1809 309 
Q 1859 281 1934 259 
Q 2009 238 2081 228 
L 2081 0 
L 181 0 
L 181 228 
Q 259 234 339 245 
Q 419 256 475 275 
Q 575 309 612 381 
Q 650 453 650 569 
L 650 2388 
Q 650 2484 600 2578 
Q 550 2672 469 2731 
Q 413 2769 327 2794 
Q 241 2819 138 2828 
L 138 3056 
L 1628 3138 
L 1675 3091 
L 1675 2638 
L 1688 2638 
Q 1775 2716 1900 2825 
Q 2025 2934 2131 3003 
Q 2247 3078 2434 3131 
Q 2622 3184 2834 3184 
Q 3344 3184 3598 2895 
Q 3853 2606 3853 2128 
L 3853 597 
Q 3853 481 3887 412 
Q 3922 344 4016 303 
Q 4066 281 4139 259 
Q 4213 238 4306 228 
L 4306 0 
z
" transform="scale(0.015625)"/>
       <path id="Georgia-Bold-20" transform="scale(0.015625)"/>
       <path id="Georgia-Bold-66" d="M 3138 4309 
Q 3138 4231 3113 4137 
Q 3088 4044 3031 3978 
Q 2966 3900 2884 3859 
Q 2803 3819 2641 3819 
Q 2394 3819 2253 3991 
Q 2113 4163 1953 4563 
Q 1828 4509 1750 4287 
Q 1672 4066 1672 3334 
L 1672 3088 
L 2534 3088 
L 2534 2750 
L 1678 2750 
L 1678 597 
Q 1678 475 1734 408 
Q 1791 341 1881 309 
Q 1956 284 2078 261 
Q 2200 238 2297 228 
L 2297 0 
L 188 0 
L 188 228 
Q 269 234 345 243 
Q 422 253 481 275 
Q 581 313 617 383 
Q 653 453 653 569 
L 653 2750 
L 19 2750 
L 19 3088 
L 653 3088 
Q 653 3422 750 3736 
Q 847 4050 1050 4297 
Q 1247 4541 1569 4691 
Q 1891 4841 2325 4841 
Q 2713 4841 2925 4694 
Q 3138 4547 3138 4309 
z
" transform="scale(0.015625)"/>
       <path id="Georgia-Bold-59" d="M 4897 4191 
Q 4784 4178 4690 4150 
Q 4597 4122 4513 4072 
Q 4378 3997 4273 3880 
Q 4169 3763 4069 3619 
Q 3866 3322 3642 2973 
Q 3419 2625 3156 2206 
Q 2984 1941 2945 1798 
Q 2906 1656 2906 1306 
L 2906 678 
Q 2906 566 2948 481 
Q 2991 397 3109 344 
Q 3163 322 3334 286 
Q 3506 250 3588 244 
L 3588 0 
L 1116 0 
L 1116 244 
Q 1203 250 1367 269 
Q 1531 288 1597 313 
Q 1713 363 1755 445 
Q 1797 528 1797 647 
L 1797 1428 
Q 1797 1531 1794 1609 
Q 1791 1688 1772 1741 
Q 1750 1800 1697 1892 
Q 1644 1984 1559 2131 
Q 1319 2553 1094 2931 
Q 869 3309 666 3641 
Q 559 3813 451 3917 
Q 344 4022 231 4088 
Q 147 4134 26 4159 
Q -94 4184 -191 4191 
L -191 4434 
L 2350 4434 
L 2350 4191 
Q 2000 4181 1878 4142 
Q 1756 4103 1756 4034 
Q 1756 4000 1801 3897 
Q 1847 3794 1963 3578 
Q 2069 3375 2273 3019 
Q 2478 2663 2766 2184 
Q 3359 3125 3581 3498 
Q 3803 3872 3803 3956 
Q 3803 4063 3673 4119 
Q 3544 4175 3253 4191 
L 3253 4434 
L 4897 4434 
L 4897 4191 
z
" transform="scale(0.015625)"/>
       <path id="Georgia-Bold-41" d="M 5028 0 
L 2613 0 
L 2613 244 
Q 2781 256 3009 304 
Q 3238 353 3238 425 
Q 3238 450 3233 481 
Q 3228 513 3206 566 
L 2828 1484 
L 1297 1484 
Q 1244 1356 1180 1184 
Q 1116 1013 1069 878 
Q 1009 703 998 625 
Q 988 547 988 516 
Q 988 416 1139 345 
Q 1291 275 1644 244 
L 1644 0 
L -175 0 
L -175 244 
Q -72 250 58 276 
Q 188 303 263 350 
Q 391 425 480 534 
Q 569 644 628 794 
Q 991 1672 1355 2553 
Q 1719 3434 2159 4497 
L 2784 4497 
Q 3397 2991 3744 2116 
Q 4091 1241 4334 666 
Q 4375 572 4437 495 
Q 4500 419 4616 350 
Q 4703 300 4818 275 
Q 4934 250 5028 244 
L 5028 0 
z
M 2700 1794 
L 2056 3400 
L 1422 1794 
L 2700 1794 
z
" transform="scale(0.015625)"/>
       <path id="Georgia-Bold-63" d="M 1966 -100 
Q 1531 -100 1198 26 
Q 866 153 650 372 
Q 434 594 328 897 
Q 222 1200 222 1556 
Q 222 1881 351 2175 
Q 481 2469 703 2691 
Q 931 2919 1270 3055 
Q 1609 3191 2019 3191 
Q 2594 3191 2928 2973 
Q 3263 2756 3263 2388 
Q 3263 2163 3144 2025 
Q 3025 1888 2734 1888 
Q 2500 1888 2342 2000 
Q 2184 2113 2184 2294 
Q 2184 2447 2234 2597 
Q 2284 2747 2294 2825 
Q 2259 2881 2206 2911 
Q 2153 2941 2041 2941 
Q 1900 2941 1784 2875 
Q 1669 2809 1569 2644 
Q 1472 2488 1414 2225 
Q 1356 1963 1356 1594 
Q 1356 1038 1617 697 
Q 1878 356 2241 356 
Q 2588 356 2792 511 
Q 2997 666 3156 950 
L 3391 788 
Q 3294 597 3159 439 
Q 3025 281 2838 159 
Q 2641 31 2437 -34 
Q 2234 -100 1966 -100 
z
" transform="scale(0.015625)"/>
       <path id="Georgia-Bold-76" d="M 3744 2872 
Q 3603 2850 3470 2765 
Q 3338 2681 3250 2503 
Q 3031 2047 2820 1583 
Q 2609 1119 2406 684 
Q 2344 553 2264 347 
Q 2184 141 2131 -28 
L 1556 -28 
Q 1197 806 942 1356 
Q 688 1906 403 2538 
Q 338 2684 198 2768 
Q 59 2853 -84 2872 
L -84 3100 
L 1841 3100 
L 1841 2872 
Q 1734 2869 1590 2825 
Q 1447 2781 1447 2713 
Q 1447 2694 1459 2656 
Q 1472 2619 1491 2572 
Q 1591 2334 1792 1887 
Q 1994 1441 2219 947 
Q 2375 1288 2517 1614 
Q 2659 1941 2869 2447 
Q 2897 2522 2901 2569 
Q 2906 2616 2906 2631 
Q 2906 2688 2851 2730 
Q 2797 2772 2722 2803 
Q 2644 2834 2572 2850 
Q 2500 2866 2453 2872 
L 2453 3100 
L 3744 3100 
L 3744 2872 
z
" transform="scale(0.015625)"/>
       <path id="Georgia-Bold-79" d="M 3713 2872 
Q 3572 2850 3439 2765 
Q 3306 2681 3219 2503 
Q 2950 1934 2665 1292 
Q 2381 650 2034 -97 
Q 1841 -516 1659 -766 
Q 1478 -1016 1319 -1150 
Q 1169 -1275 1022 -1331 
Q 875 -1388 725 -1388 
Q 428 -1388 245 -1222 
Q 63 -1056 63 -850 
Q 63 -763 83 -688 
Q 103 -613 169 -531 
Q 219 -463 323 -414 
Q 428 -366 559 -366 
Q 734 -366 893 -487 
Q 1053 -609 1225 -825 
Q 1328 -722 1479 -517 
Q 1631 -313 1703 -97 
Q 1331 684 1043 1257 
Q 756 1831 400 2538 
Q 322 2688 190 2770 
Q 59 2853 -88 2872 
L -88 3100 
L 1825 3100 
L 1825 2872 
Q 1719 2869 1580 2825 
Q 1441 2781 1441 2713 
Q 1441 2688 1450 2658 
Q 1459 2628 1484 2572 
Q 1591 2353 1786 1964 
Q 1981 1575 2241 1053 
Q 2434 1497 2570 1817 
Q 2706 2138 2834 2447 
Q 2866 2525 2870 2570 
Q 2875 2616 2875 2631 
Q 2875 2688 2820 2730 
Q 2766 2772 2691 2803 
Q 2613 2834 2541 2850 
Q 2469 2866 2422 2872 
L 2422 3100 
L 3713 3100 
L 3713 2872 
z
" transform="scale(0.015625)"/>
      </defs>
      <use xlink:href="#Georgia-Bold-44"/>
      <use xlink:href="#Georgia-Bold-69" transform="translate(83.398438 0)"/>
      <use xlink:href="#Georgia-Bold-73" transform="translate(118.75 0)"/>
      <use xlink:href="#Georgia-Bold-74" transform="translate(170.019531 0)"/>
      <use xlink:href="#Georgia-Bold-72" transform="translate(209.765625 0)"/>
      <use xlink:href="#Georgia-Bold-62" transform="translate(261.767578 0)"/>
      <use xlink:href="#Georgia-Bold-69" transform="translate(326.318359 0)"/>
      <use xlink:href="#Georgia-Bold-75" transform="translate(361.669922 0)"/>
      <use xlink:href="#Georgia-Bold-74" transform="translate(429.345703 0)"/>
      <use xlink:href="#Georgia-Bold-69" transform="translate(469.091797 0)"/>
      <use xlink:href="#Georgia-Bold-6f" transform="translate(504.443359 0)"/>
      <use xlink:href="#Georgia-Bold-6e" transform="translate(568.017578 0)"/>
      <use xlink:href="#Georgia-Bold-20" transform="translate(637.011719 0)"/>
      <use xlink:href="#Georgia-Bold-6f" transform="translate(662.402344 0)"/>
      <use xlink:href="#Georgia-Bold-66" transform="translate(725.976562 0)"/>
      <use xlink:href="#Georgia-Bold-20" transform="translate(765.283203 0)"/>
      <use xlink:href="#Georgia-Bold-59" transform="translate(790.673828 0)"/>
      <use xlink:href="#Georgia-Bold-6f" transform="translate(863.867188 0)"/>
      <use xlink:href="#Georgia-Bold-75" transform="translate(927.441406 0)"/>
      <use xlink:href="#Georgia-Bold-72" transform="translate(995.117188 0)"/>
      <use xlink:href="#Georgia-Bold-20" transform="translate(1047.119141 0)"/>
      <use xlink:href="#Georgia-Bold-41" transform="translate(1072.509766 0)"/>
      <use xlink:href="#Georgia-Bold-63" transform="translate(1148.339844 0)"/>
      <use xlink:href="#Georgia-Bold-74" transform="translate(1201.464844 0)"/>
      <use xlink:href="#Georgia-Bold-69" transform="translate(1241.210938 0)"/>
      <use xlink:href="#Georgia-Bold-76" transform="translate(1276.5625 0)"/>
      <use xlink:href="#Georgia-Bold-69" transform="translate(1333.251953 0)"/>
      <use xlink:href="#Georgia-Bold-74" transform="translate(1368.603516 0)"/>
      <use xlink:href="#Georgia-Bold-79" transform="translate(1408.349609 0)"/>
      <use xlink:href="#Georgia-Bold-20" transform="translate(1464.550781 0)"/>
     </g>
    </g>
    <g id="text_21">
     <!-- Start Times -->
     <g style="fill: #388f30" transform="translate(351.761875 26.728125) scale(0.2 -0.2)">
      <defs>
       <path id="Georgia-Bold-53" d="M 2075 -119 
Q 1669 -119 1317 -19 
Q 966 81 722 219 
L 506 0 
L 241 0 
L 200 1603 
L 469 1603 
Q 559 1375 700 1122 
Q 841 869 1025 669 
Q 1216 459 1452 328 
Q 1688 197 2003 197 
Q 2428 197 2654 405 
Q 2881 613 2881 928 
Q 2881 1188 2689 1364 
Q 2497 1541 2094 1669 
Q 1831 1753 1611 1825 
Q 1391 1897 1197 1972 
Q 750 2150 533 2481 
Q 316 2813 316 3222 
Q 316 3481 428 3720 
Q 541 3959 756 4150 
Q 963 4328 1284 4440 
Q 1606 4553 1984 4553 
Q 2353 4553 2675 4451 
Q 2997 4350 3181 4247 
L 3372 4434 
L 3644 4434 
L 3669 2922 
L 3400 2922 
Q 3306 3166 3179 3420 
Q 3053 3675 2913 3844 
Q 2759 4025 2559 4133 
Q 2359 4241 2091 4241 
Q 1753 4241 1539 4050 
Q 1325 3859 1325 3578 
Q 1325 3313 1511 3144 
Q 1697 2975 2091 2847 
Q 2322 2769 2562 2691 
Q 2803 2613 2991 2541 
Q 3444 2366 3680 2058 
Q 3916 1750 3916 1294 
Q 3916 1006 3781 737 
Q 3647 469 3419 291 
Q 3169 94 2841 -12 
Q 2513 -119 2075 -119 
z
" transform="scale(0.015625)"/>
       <path id="Georgia-Bold-61" d="M 3753 66 
Q 3616 6 3428 -44 
Q 3241 -94 3031 -94 
Q 2647 -94 2465 20 
Q 2284 134 2219 347 
L 2200 347 
Q 2094 241 1995 166 
Q 1897 91 1784 38 
Q 1638 -31 1502 -64 
Q 1366 -97 1122 -97 
Q 759 -97 503 117 
Q 247 331 247 684 
Q 247 888 303 1030 
Q 359 1172 463 1281 
Q 556 1381 679 1447 
Q 803 1513 950 1569 
Q 1231 1672 1625 1783 
Q 2019 1894 2200 1981 
L 2200 2281 
Q 2200 2359 2187 2487 
Q 2175 2616 2134 2703 
Q 2091 2803 1997 2872 
Q 1903 2941 1750 2941 
Q 1613 2941 1520 2902 
Q 1428 2863 1372 2822 
Q 1381 2759 1425 2631 
Q 1469 2503 1469 2384 
Q 1469 2331 1441 2251 
Q 1413 2172 1359 2125 
Q 1288 2063 1198 2028 
Q 1109 1994 925 1994 
Q 663 1994 528 2120 
Q 394 2247 394 2450 
Q 394 2625 533 2764 
Q 672 2903 872 2994 
Q 1069 3088 1325 3139 
Q 1581 3191 1800 3191 
Q 2103 3191 2356 3155 
Q 2609 3119 2813 3006 
Q 3006 2897 3120 2689 
Q 3234 2481 3234 2147 
Q 3234 1794 3220 1309 
Q 3206 825 3206 672 
Q 3206 531 3248 450 
Q 3291 369 3378 328 
Q 3431 303 3545 298 
Q 3659 294 3753 294 
L 3753 66 
z
M 2200 1694 
Q 2025 1634 1853 1557 
Q 1681 1481 1572 1397 
Q 1456 1309 1390 1173 
Q 1325 1038 1325 853 
Q 1325 609 1436 500 
Q 1547 391 1709 391 
Q 1881 391 1992 461 
Q 2103 531 2188 634 
L 2200 1694 
z
" transform="scale(0.015625)"/>
       <path id="Georgia-Bold-54" d="M 4338 3166 
L 4097 3166 
Q 4000 3450 3786 3775 
Q 3572 4100 3391 4125 
Q 3291 4138 3144 4147 
Q 2997 4156 2891 4156 
L 2744 4156 
L 2744 678 
Q 2744 566 2784 480 
Q 2825 394 2944 344 
Q 3016 316 3167 286 
Q 3319 256 3425 244 
L 3425 0 
L 953 0 
L 953 244 
Q 1044 253 1208 270 
Q 1372 288 1431 313 
Q 1553 363 1593 447 
Q 1634 531 1634 647 
L 1634 4156 
L 1488 4156 
Q 1381 4156 1234 4147 
Q 1088 4138 988 4125 
Q 806 4100 592 3775 
Q 378 3450 281 3166 
L 41 3166 
L 41 4434 
L 4338 4434 
L 4338 3166 
z
" transform="scale(0.015625)"/>
       <path id="Georgia-Bold-6d" d="M 6391 0 
L 4528 0 
L 4528 228 
Q 4597 238 4672 244 
Q 4747 250 4797 275 
Q 4866 306 4884 379 
Q 4903 453 4903 569 
L 4903 2028 
Q 4903 2350 4789 2511 
Q 4675 2672 4463 2672 
Q 4328 2672 4223 2630 
Q 4119 2588 4031 2525 
Q 3941 2459 3891 2393 
Q 3841 2328 3806 2281 
L 3806 603 
Q 3806 491 3832 420 
Q 3859 350 3931 309 
Q 3981 281 4045 259 
Q 4109 238 4181 228 
L 4181 0 
L 2397 0 
L 2397 228 
Q 2456 234 2540 243 
Q 2625 253 2666 275 
Q 2731 309 2751 375 
Q 2772 441 2772 569 
L 2772 2028 
Q 2772 2350 2658 2511 
Q 2544 2672 2331 2672 
Q 2197 2672 2092 2630 
Q 1988 2588 1900 2525 
Q 1809 2459 1759 2393 
Q 1709 2328 1675 2281 
L 1675 603 
Q 1675 494 1703 422 
Q 1731 350 1803 309 
Q 1853 281 1917 259 
Q 1981 238 2053 228 
L 2053 0 
L 181 0 
L 181 228 
Q 263 234 341 243 
Q 419 253 475 275 
Q 575 313 612 383 
Q 650 453 650 569 
L 650 2388 
Q 650 2488 597 2583 
Q 544 2678 469 2731 
Q 413 2769 327 2794 
Q 241 2819 138 2828 
L 138 3056 
L 1628 3138 
L 1675 3091 
L 1675 2650 
L 1688 2650 
Q 1775 2728 1895 2836 
Q 2016 2944 2122 3009 
Q 2238 3084 2419 3134 
Q 2600 3184 2816 3184 
Q 3172 3184 3411 3029 
Q 3650 2875 3750 2619 
L 3778 2619 
Q 3869 2703 4000 2817 
Q 4131 2931 4241 3000 
Q 4363 3078 4552 3131 
Q 4741 3184 4956 3184 
Q 5428 3184 5683 2906 
Q 5938 2628 5938 2116 
L 5938 597 
Q 5938 481 5972 411 
Q 6006 341 6097 303 
Q 6147 281 6220 259 
Q 6294 238 6391 228 
L 6391 0 
z
" transform="scale(0.015625)"/>
       <path id="Georgia-Bold-65" d="M 3541 747 
Q 3431 569 3276 411 
Q 3122 253 2925 141 
Q 2716 22 2502 -39 
Q 2288 -100 2009 -100 
Q 1547 -100 1211 31 
Q 875 163 656 384 
Q 438 606 330 907 
Q 222 1209 222 1563 
Q 222 1881 339 2173 
Q 456 2466 672 2694 
Q 884 2916 1207 3053 
Q 1531 3191 1931 3191 
Q 2369 3191 2650 3084 
Q 2931 2978 3116 2791 
Q 3294 2613 3375 2370 
Q 3456 2128 3456 1863 
L 3456 1659 
L 1344 1659 
Q 1344 1019 1591 684 
Q 1838 350 2375 350 
Q 2669 350 2903 511 
Q 3138 672 3303 919 
L 3541 747 
z
M 2347 1934 
Q 2347 2122 2328 2319 
Q 2309 2516 2263 2641 
Q 2209 2788 2117 2863 
Q 2025 2938 1884 2938 
Q 1644 2938 1500 2694 
Q 1356 2450 1344 1922 
L 2347 1934 
z
" transform="scale(0.015625)"/>
      </defs>
      <use xlink:href="#Georgia-Bold-53"/>
      <use xlink:href="#Georgia-Bold-74" transform="translate(64.892578 0)"/>
      <use xlink:href="#Georgia-Bold-61" transform="translate(104.638672 0)"/>
      <use xlink:href="#Georgia-Bold-72" transform="translate(164.208984 0)"/>
      <use xlink:href="#Georgia-Bold-74" transform="translate(216.210938 0)"/>
      <use xlink:href="#Georgia-Bold-20" transform="translate(255.957031 0)"/>
      <use xlink:href="#Georgia-Bold-54" transform="translate(281.347656 0)"/>
      <use xlink:href="#Georgia-Bold-69" transform="translate(349.755859 0)"/>
      <use xlink:href="#Georgia-Bold-6d" transform="translate(385.107422 0)"/>
      <use xlink:href="#Georgia-Bold-65" transform="translate(486.669922 0)"/>
      <use xlink:href="#Georgia-Bold-73" transform="translate(543.847656 0)"/>
     </g>
    </g>
   </g>
  </g>
  <g id="text_22">
   <!-- Visualise the time of day when you most often started your Strava activities -->
   <g style="fill: #6e6e6e" transform="translate(53.761875 50.156) scale(0.12 -0.12)">
    <defs>
     <path id="Georgia-56" d="M 4397 4213 
Q 4316 4209 4200 4176 
Q 4084 4144 4009 4097 
Q 3903 4031 3839 3928 
Q 3775 3825 3713 3684 
Q 3503 3188 3084 2136 
Q 2666 1084 2222 -56 
L 1963 -56 
Q 1513 1153 1094 2275 
Q 675 3397 525 3791 
Q 488 3888 425 3961 
Q 363 4034 259 4100 
Q 175 4153 72 4179 
Q -31 4206 -119 4213 
L -119 4434 
L 1716 4434 
L 1716 4213 
Q 1481 4200 1320 4165 
Q 1159 4131 1159 4044 
Q 1159 4009 1171 3962 
Q 1184 3916 1194 3888 
Q 1309 3581 1568 2889 
Q 1828 2197 2306 919 
Q 2544 1497 2853 2284 
Q 3163 3072 3269 3366 
Q 3372 3650 3389 3759 
Q 3406 3869 3406 3938 
Q 3406 4009 3342 4057 
Q 3278 4106 3172 4141 
Q 3069 4172 2962 4187 
Q 2856 4203 2747 4213 
L 2747 4434 
L 4397 4434 
L 4397 4213 
z
" transform="scale(0.015625)"/>
     <path id="Georgia-6c" d="M 1669 0 
L 166 0 
L 166 206 
Q 238 213 319 220 
Q 400 228 453 244 
Q 541 272 584 342 
Q 628 413 628 525 
L 628 4094 
Q 628 4206 579 4304 
Q 531 4403 453 4459 
Q 397 4497 247 4528 
Q 97 4559 6 4566 
L 6 4766 
L 1166 4838 
L 1209 4791 
L 1209 563 
Q 1209 453 1250 383 
Q 1291 313 1381 275 
Q 1450 244 1517 228 
Q 1584 213 1669 206 
L 1669 0 
z
" transform="scale(0.015625)"/>
     <path id="Georgia-68" d="M 3572 0 
L 2059 0 
L 2059 206 
Q 2131 213 2218 219 
Q 2306 225 2363 244 
Q 2450 272 2492 342 
Q 2534 413 2534 525 
L 2534 2109 
Q 2534 2438 2379 2616 
Q 2225 2794 2003 2794 
Q 1841 2794 1702 2742 
Q 1563 2691 1453 2616 
Q 1347 2538 1290 2459 
Q 1234 2381 1203 2328 
L 1203 556 
Q 1203 450 1245 381 
Q 1288 313 1375 275 
Q 1444 244 1517 228 
Q 1591 213 1678 206 
L 1678 0 
L 166 0 
L 166 206 
Q 238 213 316 220 
Q 394 228 447 244 
Q 534 272 578 342 
Q 622 413 622 525 
L 622 4113 
Q 622 4219 573 4325 
Q 525 4431 447 4484 
Q 391 4525 248 4542 
Q 106 4559 19 4566 
L 19 4766 
L 1159 4838 
L 1203 4791 
L 1203 2641 
L 1216 2641 
Q 1319 2744 1403 2823 
Q 1488 2903 1625 2991 
Q 1744 3066 1905 3116 
Q 2066 3166 2266 3166 
Q 2678 3166 2900 2905 
Q 3122 2644 3122 2153 
L 3122 550 
Q 3122 441 3161 373 
Q 3200 306 3291 269 
Q 3363 241 3420 227 
Q 3478 213 3572 206 
L 3572 0 
z
" transform="scale(0.015625)"/>
     <path id="Georgia-77" d="M 4816 2881 
Q 4684 2869 4532 2772 
Q 4381 2675 4313 2481 
Q 4156 2022 4017 1611 
Q 3878 1200 3706 688 
Q 3650 525 3592 337 
Q 3534 150 3488 -22 
L 3219 -22 
L 2391 2247 
L 1556 -22 
L 1300 -22 
Q 1066 672 842 1355 
Q 619 2038 447 2544 
Q 397 2691 256 2775 
Q 116 2859 -16 2875 
L -16 3081 
L 1359 3081 
L 1359 2863 
Q 1256 2859 1136 2828 
Q 1016 2797 1016 2725 
Q 1016 2713 1027 2672 
Q 1038 2631 1053 2584 
Q 1153 2256 1279 1851 
Q 1406 1447 1606 800 
L 2394 3019 
L 2694 3019 
L 3497 831 
Q 3631 1250 3764 1642 
Q 3897 2034 3997 2378 
Q 4019 2459 4039 2526 
Q 4059 2594 4059 2659 
Q 4059 2716 4009 2759 
Q 3959 2803 3888 2831 
Q 3825 2856 3751 2868 
Q 3678 2881 3644 2881 
L 3644 3081 
L 4816 3081 
L 4816 2881 
z
" transform="scale(0.015625)"/>
    </defs>
    <use xlink:href="#Georgia-56"/>
    <use xlink:href="#Georgia-69" transform="translate(66.650391 0)"/>
    <use xlink:href="#Georgia-73" transform="translate(95.947266 0)"/>
    <use xlink:href="#Georgia-75" transform="translate(139.160156 0)"/>
    <use xlink:href="#Georgia-61" transform="translate(196.679688 0)"/>
    <use xlink:href="#Georgia-6c" transform="translate(247.070312 0)"/>
    <use xlink:href="#Georgia-69" transform="translate(275.683594 0)"/>
    <use xlink:href="#Georgia-73" transform="translate(304.980469 0)"/>
    <use xlink:href="#Georgia-65" transform="translate(348.193359 0)"/>
    <use xlink:href="#Georgia-20" transform="translate(396.533203 0)"/>
    <use xlink:href="#Georgia-74" transform="translate(420.654297 0)"/>
    <use xlink:href="#Georgia-68" transform="translate(455.175781 0)"/>
    <use xlink:href="#Georgia-65" transform="translate(513.378906 0)"/>
    <use xlink:href="#Georgia-20" transform="translate(561.71875 0)"/>
    <use xlink:href="#Georgia-74" transform="translate(585.839844 0)"/>
    <use xlink:href="#Georgia-69" transform="translate(620.361328 0)"/>
    <use xlink:href="#Georgia-6d" transform="translate(649.658203 0)"/>
    <use xlink:href="#Georgia-65" transform="translate(737.744141 0)"/>
    <use xlink:href="#Georgia-20" transform="translate(786.083984 0)"/>
    <use xlink:href="#Georgia-6f" transform="translate(810.205078 0)"/>
    <use xlink:href="#Georgia-66" transform="translate(864.111328 0)"/>
    <use xlink:href="#Georgia-20" transform="translate(896.630859 0)"/>
    <use xlink:href="#Georgia-64" transform="translate(920.751953 0)"/>
    <use xlink:href="#Georgia-61" transform="translate(978.173828 0)"/>
    <use xlink:href="#Georgia-79" transform="translate(1028.564453 0)"/>
    <use xlink:href="#Georgia-20" transform="translate(1077.783203 0)"/>
    <use xlink:href="#Georgia-77" transform="translate(1101.904297 0)"/>
    <use xlink:href="#Georgia-68" transform="translate(1175.634766 0)"/>
    <use xlink:href="#Georgia-65" transform="translate(1233.837891 0)"/>
    <use xlink:href="#Georgia-6e" transform="translate(1282.177734 0)"/>
    <use xlink:href="#Georgia-20" transform="translate(1341.259766 0)"/>
    <use xlink:href="#Georgia-79" transform="translate(1365.380859 0)"/>
    <use xlink:href="#Georgia-6f" transform="translate(1414.599609 0)"/>
    <use xlink:href="#Georgia-75" transform="translate(1468.505859 0)"/>
    <use xlink:href="#Georgia-20" transform="translate(1526.025391 0)"/>
    <use xlink:href="#Georgia-6d" transform="translate(1550.146484 0)"/>
    <use xlink:href="#Georgia-6f" transform="translate(1638.232422 0)"/>
    <use xlink:href="#Georgia-73" transform="translate(1692.138672 0)"/>
    <use xlink:href="#Georgia-74" transform="translate(1735.351562 0)"/>
    <use xlink:href="#Georgia-20" transform="translate(1769.873047 0)"/>
    <use xlink:href="#Georgia-6f" transform="translate(1793.994141 0)"/>
    <use xlink:href="#Georgia-66" transform="translate(1847.900391 0)"/>
    <use xlink:href="#Georgia-74" transform="translate(1880.419922 0)"/>
    <use xlink:href="#Georgia-65" transform="translate(1914.941406 0)"/>
    <use xlink:href="#Georgia-6e" transform="translate(1963.28125 0)"/>
    <use xlink:href="#Georgia-20" transform="translate(2022.363281 0)"/>
    <use xlink:href="#Georgia-73" transform="translate(2046.484375 0)"/>
    <use xlink:href="#Georgia-74" transform="translate(2089.697266 0)"/>
    <use xlink:href="#Georgia-61" transform="translate(2124.21875 0)"/>
    <use xlink:href="#Georgia-72" transform="translate(2174.609375 0)"/>
    <use xlink:href="#Georgia-74" transform="translate(2215.576172 0)"/>
    <use xlink:href="#Georgia-65" transform="translate(2250.097656 0)"/>
    <use xlink:href="#Georgia-64" transform="translate(2298.4375 0)"/>
    <use xlink:href="#Georgia-20" transform="translate(2355.859375 0)"/>
    <use xlink:href="#Georgia-79" transform="translate(2379.980469 0)"/>
    <use xlink:href="#Georgia-6f" transform="translate(2429.199219 0)"/>
    <use xlink:href="#Georgia-75" transform="translate(2483.105469 0)"/>
    <use xlink:href="#Georgia-72" transform="translate(2540.625 0)"/>
    <use xlink:href="#Georgia-20" transform="translate(2581.591797 0)"/>
    <use xlink:href="#Georgia-53" transform="translate(2605.712891 0)"/>
    <use xlink:href="#Georgia-74" transform="translate(2661.816406 0)"/>
    <use xlink:href="#Georgia-72" transform="translate(2696.337891 0)"/>
    <use xlink:href="#Georgia-61" transform="translate(2737.304688 0)"/>
    <use xlink:href="#Georgia-76" transform="translate(2787.695312 0)"/>
    <use xlink:href="#Georgia-61" transform="translate(2837.353516 0)"/>
    <use xlink:href="#Georgia-20" transform="translate(2887.744141 0)"/>
    <use xlink:href="#Georgia-61" transform="translate(2911.865234 0)"/>
    <use xlink:href="#Georgia-63" transform="translate(2962.255859 0)"/>
    <use xlink:href="#Georgia-74" transform="translate(3007.666016 0)"/>
    <use xlink:href="#Georgia-69" transform="translate(3042.1875 0)"/>
    <use xlink:href="#Georgia-76" transform="translate(3071.484375 0)"/>
    <use xlink:href="#Georgia-69" transform="translate(3121.142578 0)"/>
    <use xlink:href="#Georgia-74" transform="translate(3150.439453 0)"/>
    <use xlink:href="#Georgia-69" transform="translate(3184.960938 0)"/>
    <use xlink:href="#Georgia-65" transform="translate(3214.257812 0)"/>
    <use xlink:href="#Georgia-73" transform="translate(3262.597656 0)"/>
   </g>
  </g>
 </g>
 <defs>
  <clipPath id="p27216bfd7d">
   <rect x="53.761875" y="82.16" width="669.6" height="388.08"/>
  </clipPath>
 </defs>
</svg>
