<?xml version="1.0" encoding="utf-8" standalone="no"?>
<!DOCTYPE svg PUBLIC "-//W3C//DTD SVG 1.1//EN"
  "http://www.w3.org/Graphics/SVG/1.1/DTD/svg11.dtd">
<svg xmlns:xlink="http://www.w3.org/1999/xlink" width="724.800937pt" height="515.869062pt" viewBox="0 0 724.800937 515.869062" xmlns="http://www.w3.org/2000/svg" version="1.1">
 <metadata>
  <rdf:RDF xmlns:dc="http://purl.org/dc/elements/1.1/" xmlns:cc="http://creativecommons.org/ns#" xmlns:rdf="http://www.w3.org/1999/02/22-rdf-syntax-ns#">
   <cc:Work>
    <dc:type rdf:resource="http://purl.org/dc/dcmitype/StillImage"/>
    <dc:date>2026-04-14T15:41:50.131618</dc:date>
    <dc:format>image/svg+xml</dc:format>
    <dc:creator>
     <cc:Agent>
      <dc:title>Matplotlib v3.10.8, https://matplotlib.org/</dc:title>
     </cc:Agent>
    </dc:creator>
   </cc:Work>
  </rdf:RDF>
 </metadata>
 <defs>
  <style type="text/css">*{stroke-linejoin: round; stroke-linecap: butt}</style>
 </defs>
 <g id="figure_1">
  <g id="patch_1">
   <path d="M 0 515.869062 
L 724.800937 515.869062 
L 724.800937 0 
L 0 0 
z
" style="fill: #ffffff"/>
  </g>
  <g id="axes_1">
   <g id="patch_2">
    <path d="M 48.000938 470.24 
L 717.600937 470.24 
L 717.600937 82.16 
L 48.000938 82.16 
z
" style="fill: #ffffff"/>
   </g>
   <g id="patch_3">
    <path d="M 78.437301 470.24 
L 95.346392 470.24 
L 95.346392 453.813333 
L 78.437301 453.813333 
z
" clip-path="url(#p99402984fd)" style="fill: #c38961; opacity: 0.12"/>
   </g>
   <g id="patch_4">
    <path d="M 95.346392 470.24 
L 112.255483 470.24 
L 112.255483 449.706667 
L 95.346392 449.706667 
z
" clip-path="url(#p99402984fd)" style="fill: #c38961; opacity: 0.12"/>
   </g>
   <g id="patch_5">
    <path d="M 112.255483 470.24 
L 129.164574 470.24 
L 129.164574 445.6 
L 112.255483 445.6 
z
" clip-path="url(#p99402984fd)" style="fill: #c38961; opacity: 0.12"/>
   </g>
   <g id="patch_6">
    <path d="M 129.164574 470.24 
L 146.073665 470.24 
L 146.073665 338.826667 
L 129.164574 338.826667 
z
" clip-path="url(#p99402984fd)" style="fill: #c38961; opacity: 0.12"/>
   </g>
   <g id="patch_7">
    <path d="M 146.073665 470.24 
L 162.982756 470.24 
L 162.982756 371.68 
L 146.073665 371.68 
z
" clip-path="url(#p99402984fd)" style="fill: #c38961; opacity: 0.12"/>
   </g>
   <g id="patch_8">
    <path d="M 162.982756 470.24 
L 179.891847 470.24 
L 179.891847 342.933333 
L 162.982756 342.933333 
z
" clip-path="url(#p99402984fd)" style="fill: #c38961; opacity: 0.12"/>
   </g>
   <g id="patch_9">
    <path d="M 179.891847 470.24 
L 196.800938 470.24 
L 196.800938 252.586667 
L 179.891847 252.586667 
z
" clip-path="url(#p99402984fd)" style="fill: #c38961; opacity: 0.12"/>
   </g>
   <g id="patch_10">
    <path d="M 196.800938 470.24 
L 213.710028 470.24 
L 213.710028 256.693333 
L 196.800938 256.693333 
z
" clip-path="url(#p99402984fd)" style="fill: #c38961; opacity: 0.12"/>
   </g>
   <g id="patch_11">
    <path d="M 213.710028 470.24 
L 230.619119 470.24 
L 230.619119 281.333333 
L 213.710028 281.333333 
z
" clip-path="url(#p99402984fd)" style="fill: #c38961; opacity: 0.12"/>
   </g>
   <g id="patch_12">
    <path d="M 230.619119 470.24 
L 247.52821 470.24 
L 247.52821 342.933333 
L 230.619119 342.933333 
z
" clip-path="url(#p99402984fd)" style="fill: #c38961; opacity: 0.12"/>
   </g>
   <g id="patch_13">
    <path d="M 247.52821 470.24 
L 264.437301 470.24 
L 264.437301 141.706667 
L 247.52821 141.706667 
z
" clip-path="url(#p99402984fd)" style="fill: #c38961; opacity: 0.12"/>
   </g>
   <g id="patch_14">
    <path d="M 264.437301 470.24 
L 281.346392 470.24 
L 281.346392 100.64 
L 264.437301 100.64 
z
" clip-path="url(#p99402984fd)" style="fill: #c38961; opacity: 0.12"/>
   </g>
   <g id="patch_15">
    <path d="M 281.346392 470.24 
L 298.255483 470.24 
L 298.255483 170.453333 
L 281.346392 170.453333 
z
" clip-path="url(#p99402984fd)" style="fill: #c38961; opacity: 0.12"/>
   </g>
   <g id="patch_16">
    <path d="M 298.255483 470.24 
L 315.164574 470.24 
L 315.164574 318.293333 
L 298.255483 318.293333 
z
" clip-path="url(#p99402984fd)" style="fill: #c38961; opacity: 0.12"/>
   </g>
   <g id="patch_17">
    <path d="M 315.164574 470.24 
L 332.073665 470.24 
L 332.073665 351.146667 
L 315.164574 351.146667 
z
" clip-path="url(#p99402984fd)" style="fill: #c38961; opacity: 0.12"/>
   </g>
   <g id="patch_18">
    <path d="M 332.073665 470.24 
L 348.982756 470.24 
L 348.982756 371.68 
L 332.073665 371.68 
z
" clip-path="url(#p99402984fd)" style="fill: #c38961; opacity: 0.12"/>
   </g>
   <g id="patch_19">
    <path d="M 348.982756 470.24 
L 365.891847 470.24 
L 365.891847 408.64 
L 348.982756 408.64 
z
" clip-path="url(#p99402984fd)" style="fill: #c38961; opacity: 0.12"/>
   </g>
   <g id="patch_20">
    <path d="M 365.891847 470.24 
L 382.800937 470.24 
L 382.800937 429.173333 
L 365.891847 429.173333 
z
" clip-path="url(#p99402984fd)" style="fill: #c38961; opacity: 0.12"/>
   </g>
   <g id="patch_21">
    <path d="M 382.800937 470.24 
L 399.710028 470.24 
L 399.710028 425.066667 
L 382.800937 425.066667 
z
" clip-path="url(#p99402984fd)" style="fill: #c38961; opacity: 0.12"/>
   </g>
   <g id="patch_22">
    <path d="M 399.710028 470.24 
L 416.619119 470.24 
L 416.619119 420.96 
L 399.710028 420.96 
z
" clip-path="url(#p99402984fd)" style="fill: #c38961; opacity: 0.12"/>
   </g>
   <g id="patch_23">
    <path d="M 416.619119 470.24 
L 433.52821 470.24 
L 433.52821 441.493333 
L 416.619119 441.493333 
z
" clip-path="url(#p99402984fd)" style="fill: #c38961; opacity: 0.12"/>
   </g>
   <g id="patch_24">
    <path d="M 433.52821 470.24 
L 450.437301 470.24 
L 450.437301 441.493333 
L 433.52821 441.493333 
z
" clip-path="url(#p99402984fd)" style="fill: #c38961; opacity: 0.12"/>
   </g>
   <g id="patch_25">
    <path d="M 450.437301 470.24 
L 467.346392 470.24 
L 467.346392 441.493333 
L 450.437301 441.493333 
z
" clip-path="url(#p99402984fd)" style="fill: #c38961; opacity: 0.12"/>
   </g>
   <g id="patch_26">
    <path d="M 467.346392 470.24 
L 484.255483 470.24 
L 484.255483 412.746667 
L 467.346392 412.746667 
z
" clip-path="url(#p99402984fd)" style="fill: #c38961; opacity: 0.12"/>
   </g>
   <g id="patch_27">
    <path d="M 484.255483 470.24 
L 501.164574 470.24 
L 501.164574 429.173333 
L 484.255483 429.173333 
z
" clip-path="url(#p99402984fd)" style="fill: #c38961; opacity: 0.12"/>
   </g>
   <g id="patch_28">
    <path d="M 501.164574 470.24 
L 518.073665 470.24 
L 518.073665 462.026667 
L 501.164574 462.026667 
z
" clip-path="url(#p99402984fd)" style="fill: #c38961; opacity: 0.12"/>
   </g>
   <g id="patch_29">
    <path d="M 518.073665 470.24 
L 534.982756 470.24 
L 534.982756 453.813333 
L 518.073665 453.813333 
z
" clip-path="url(#p99402984fd)" style="fill: #c38961; opacity: 0.12"/>
   </g>
   <g id="patch_30">
    <path d="M 534.982756 470.24 
L 551.891847 470.24 
L 551.891847 457.92 
L 534.982756 457.92 
z
" clip-path="url(#p99402984fd)" style="fill: #c38961; opacity: 0.12"/>
   </g>
   <g id="patch_31">
    <path d="M 551.891847 470.24 
L 568.800937 470.24 
L 568.800937 470.24 
L 551.891847 470.24 
z
" clip-path="url(#p99402984fd)" style="fill: #c38961; opacity: 0.12"/>
   </g>
   <g id="patch_32">
    <path d="M 568.800937 470.24 
L 585.710028 470.24 
L 585.710028 462.026667 
L 568.800937 462.026667 
z
" clip-path="url(#p99402984fd)" style="fill: #c38961; opacity: 0.12"/>
   </g>
   <g id="patch_33">
    <path d="M 585.710028 470.24 
L 602.619119 470.24 
L 602.619119 470.24 
L 585.710028 470.24 
z
" clip-path="url(#p99402984fd)" style="fill: #c38961; opacity: 0.12"/>
   </g>
   <g id="patch_34">
    <path d="M 602.619119 470.24 
L 619.52821 470.24 
L 619.52821 466.133333 
L 602.619119 466.133333 
z
" clip-path="url(#p99402984fd)" style="fill: #c38961; opacity: 0.12"/>
   </g>
   <g id="patch_35">
    <path d="M 619.52821 470.24 
L 636.437301 470.24 
L 636.437301 470.24 
L 619.52821 470.24 
z
" clip-path="url(#p99402984fd)" style="fill: #c38961; opacity: 0.12"/>
   </g>
   <g id="patch_36">
    <path d="M 636.437301 470.24 
L 653.346392 470.24 
L 653.346392 462.026667 
L 636.437301 462.026667 
z
" clip-path="url(#p99402984fd)" style="fill: #c38961; opacity: 0.12"/>
   </g>
   <g id="patch_37">
    <path d="M 653.346392 470.24 
L 670.255483 470.24 
L 670.255483 470.24 
L 653.346392 470.24 
z
" clip-path="url(#p99402984fd)" style="fill: #c38961; opacity: 0.12"/>
   </g>
   <g id="patch_38">
    <path d="M 670.255483 470.24 
L 687.164574 470.24 
L 687.164574 462.026667 
L 670.255483 462.026667 
z
" clip-path="url(#p99402984fd)" style="fill: #c38961; opacity: 0.12"/>
   </g>
   <g id="patch_39">
    <path d="M 264.186704 470.24 
L 275.734719 470.24 
L 275.734719 82.16 
L 264.186704 82.16 
z
" clip-path="url(#p99402984fd)" style="fill: #0f542f; opacity: 0.12; stroke: #0f542f; stroke-linejoin: miter"/>
   </g>
   <g id="patch_40">
    <path d="M 423.76254 234.70125 
Q 368.326177 154.90211 278.573397 189.309763 
" clip-path="url(#p99402984fd)" style="fill: none; stroke: #000000; stroke-width: 0.6; stroke-linecap: round"/>
    <path d="M 284.820148 188.842743 
L 278.573397 189.309763 
L 283.531499 185.481287 
z
" clip-path="url(#p99402984fd)" style="stroke: #000000; stroke-width: 0.6; stroke-linecap: round"/>
   </g>
   <g id="matplotlib.axis_1">
    <g id="xtick_1">
     <g id="line2d_1">
      <path d="M 77.493796 470.24 
L 77.493796 82.16 
" clip-path="url(#p99402984fd)" style="fill: none; stroke: #b0b0b0; stroke-opacity: 0.15; stroke-width: 0.8; stroke-linecap: square"/>
     </g>
     <g id="line2d_2"/>
     <g id="text_1">
      <!-- 00:00 -->
      <g transform="translate(63.656296 485.799375) scale(0.1 -0.1)">
       <defs>
        <path id="Georgia-30" d="M 3209 2919 
Q 3409 2678 3507 2354 
Q 3606 2031 3606 1678 
Q 3606 1253 3484 917 
Q 3363 581 3150 359 
Q 2931 131 2631 15 
Q 2331 -100 1963 -100 
Q 1559 -100 1243 34 
Q 928 169 731 403 
Q 525 647 423 973 
Q 322 1300 322 1678 
Q 322 2050 420 2362 
Q 519 2675 728 2928 
Q 928 3172 1243 3312 
Q 1559 3453 1966 3453 
Q 2394 3453 2700 3309 
Q 3006 3166 3209 2919 
z
M 2916 1678 
Q 2916 2422 2661 2831 
Q 2406 3241 1969 3241 
Q 1525 3241 1269 2831 
Q 1013 2422 1013 1678 
Q 1013 972 1258 542 
Q 1503 113 1963 113 
Q 2422 113 2669 542 
Q 2916 972 2916 1678 
z
" transform="scale(0.015625)"/>
        <path id="Georgia-3a" d="M 1428 2666 
Q 1428 2491 1301 2366 
Q 1175 2241 1000 2241 
Q 825 2241 698 2366 
Q 572 2491 572 2666 
Q 572 2841 697 2967 
Q 822 3094 1000 3094 
Q 1178 3094 1303 2967 
Q 1428 2841 1428 2666 
z
M 1428 359 
Q 1428 184 1301 60 
Q 1175 -63 1000 -63 
Q 825 -63 698 60 
Q 572 184 572 359 
Q 572 534 698 661 
Q 825 788 1000 788 
Q 1175 788 1301 661 
Q 1428 534 1428 359 
z
" transform="scale(0.015625)"/>
       </defs>
       <use xlink:href="#Georgia-30"/>
       <use xlink:href="#Georgia-30" transform="translate(61.376953 0)"/>
       <use xlink:href="#Georgia-3a" transform="translate(122.753906 0)"/>
       <use xlink:href="#Georgia-30" transform="translate(154.003906 0)"/>
       <use xlink:href="#Georgia-30" transform="translate(215.380859 0)"/>
      </g>
     </g>
    </g>
    <g id="xtick_2">
     <g id="line2d_3">
      <path d="M 177.394333 470.24 
L 177.394333 82.16 
" clip-path="url(#p99402984fd)" style="fill: none; stroke: #b0b0b0; stroke-opacity: 0.15; stroke-width: 0.8; stroke-linecap: square"/>
     </g>
     <g id="line2d_4"/>
     <g id="text_2">
      <!-- 00:30 -->
      <g transform="translate(163.866989 485.799375) scale(0.1 -0.1)">
       <defs>
        <path id="Georgia-33" d="M 1522 -1141 
Q 1228 -1141 984 -1067 
Q 741 -994 566 -869 
Q 391 -744 295 -581 
Q 200 -419 200 -247 
Q 200 -94 275 29 
Q 350 153 516 153 
Q 703 153 801 61 
Q 900 -31 900 -150 
Q 900 -250 867 -403 
Q 834 -556 816 -622 
Q 838 -650 895 -697 
Q 953 -744 1038 -781 
Q 1138 -828 1247 -856 
Q 1356 -884 1556 -884 
Q 1744 -884 1917 -821 
Q 2091 -759 2222 -622 
Q 2359 -478 2436 -286 
Q 2513 -94 2513 219 
Q 2513 388 2477 553 
Q 2441 719 2344 841 
Q 2247 963 2080 1030 
Q 1913 1097 1656 1097 
L 1247 1097 
L 1247 1456 
L 1519 1456 
Q 1950 1456 2140 1693 
Q 2331 1931 2331 2409 
Q 2331 2800 2147 2998 
Q 1963 3197 1625 3197 
Q 1463 3197 1358 3158 
Q 1253 3119 1188 3081 
Q 1109 3038 1059 2984 
Q 1009 2931 984 2906 
Q 1006 2806 1037 2661 
Q 1069 2516 1069 2384 
Q 1069 2269 970 2176 
Q 872 2084 681 2084 
Q 516 2084 439 2203 
Q 363 2322 363 2478 
Q 363 2641 453 2809 
Q 544 2978 722 3125 
Q 900 3272 1156 3362 
Q 1413 3453 1747 3453 
Q 2131 3453 2382 3339 
Q 2634 3225 2778 3063 
Q 2919 2903 2972 2728 
Q 3025 2553 3025 2428 
Q 3025 2272 2981 2114 
Q 2938 1956 2838 1822 
Q 2728 1675 2548 1554 
Q 2369 1434 2097 1359 
L 2097 1309 
Q 2272 1294 2470 1231 
Q 2669 1169 2828 1047 
Q 2994 919 3100 717 
Q 3206 516 3206 206 
Q 3206 -394 2725 -767 
Q 2244 -1141 1522 -1141 
z
" transform="scale(0.015625)"/>
       </defs>
       <use xlink:href="#Georgia-30"/>
       <use xlink:href="#Georgia-30" transform="translate(61.376953 0)"/>
       <use xlink:href="#Georgia-3a" transform="translate(122.753906 0)"/>
       <use xlink:href="#Georgia-33" transform="translate(154.003906 0)"/>
       <use xlink:href="#Georgia-30" transform="translate(209.179688 0)"/>
      </g>
     </g>
    </g>
    <g id="xtick_3">
     <g id="line2d_5">
      <path d="M 277.29487 470.24 
L 277.29487 82.16 
" clip-path="url(#p99402984fd)" style="fill: none; stroke: #b0b0b0; stroke-opacity: 0.15; stroke-width: 0.8; stroke-linecap: square"/>
     </g>
     <g id="line2d_6"/>
     <g id="text_3">
      <!-- 01:00 -->
      <g transform="translate(264.377683 485.799375) scale(0.1 -0.1)">
       <defs>
        <path id="Georgia-31" d="M 2528 0 
L 422 0 
L 422 222 
Q 516 228 714 248 
Q 913 269 988 291 
Q 1084 322 1136 392 
Q 1188 463 1188 603 
L 1188 2797 
L 409 2797 
L 409 3059 
L 581 3059 
Q 919 3059 1186 3184 
Q 1453 3309 1569 3453 
L 1828 3453 
Q 1819 3250 1809 2978 
Q 1800 2706 1800 2491 
L 1800 638 
Q 1800 528 1848 442 
Q 1897 356 1988 316 
Q 2069 281 2253 253 
Q 2438 225 2528 222 
L 2528 0 
z
" transform="scale(0.015625)"/>
       </defs>
       <use xlink:href="#Georgia-30"/>
       <use xlink:href="#Georgia-31" transform="translate(61.376953 0)"/>
       <use xlink:href="#Georgia-3a" transform="translate(104.345703 0)"/>
       <use xlink:href="#Georgia-30" transform="translate(135.595703 0)"/>
       <use xlink:href="#Georgia-30" transform="translate(196.972656 0)"/>
      </g>
     </g>
    </g>
    <g id="xtick_4">
     <g id="line2d_7">
      <path d="M 377.195407 470.24 
L 377.195407 82.16 
" clip-path="url(#p99402984fd)" style="fill: none; stroke: #b0b0b0; stroke-opacity: 0.15; stroke-width: 0.8; stroke-linecap: square"/>
     </g>
     <g id="line2d_8"/>
     <g id="text_4">
      <!-- 01:30 -->
      <g transform="translate(364.588376 485.799375) scale(0.1 -0.1)">
       <use xlink:href="#Georgia-30"/>
       <use xlink:href="#Georgia-31" transform="translate(61.376953 0)"/>
       <use xlink:href="#Georgia-3a" transform="translate(104.345703 0)"/>
       <use xlink:href="#Georgia-33" transform="translate(135.595703 0)"/>
       <use xlink:href="#Georgia-30" transform="translate(190.771484 0)"/>
      </g>
     </g>
    </g>
    <g id="xtick_5">
     <g id="line2d_9">
      <path d="M 477.095944 470.24 
L 477.095944 82.16 
" clip-path="url(#p99402984fd)" style="fill: none; stroke: #b0b0b0; stroke-opacity: 0.15; stroke-width: 0.8; stroke-linecap: square"/>
     </g>
     <g id="line2d_10"/>
     <g id="text_5">
      <!-- 02:00 -->
      <g transform="translate(463.534226 485.799375) scale(0.1 -0.1)">
       <defs>
        <path id="Georgia-32" d="M 3272 0 
L 344 0 
L 344 425 
Q 428 522 578 642 
Q 728 763 934 903 
Q 1059 988 1234 1088 
Q 1409 1188 1631 1306 
Q 1878 1438 2011 1538 
Q 2144 1638 2253 1784 
Q 2325 1881 2369 2026 
Q 2413 2172 2413 2441 
Q 2413 2831 2203 3014 
Q 1994 3197 1666 3197 
Q 1463 3197 1281 3117 
Q 1100 3038 1009 2897 
Q 1031 2797 1064 2659 
Q 1097 2522 1097 2391 
Q 1097 2272 998 2180 
Q 900 2088 706 2088 
Q 550 2088 465 2195 
Q 381 2303 381 2484 
Q 381 2653 475 2823 
Q 569 2994 744 3138 
Q 916 3278 1169 3365 
Q 1422 3453 1716 3453 
Q 2356 3453 2732 3167 
Q 3109 2881 3109 2403 
Q 3109 2175 3042 1987 
Q 2975 1800 2825 1656 
Q 2659 1497 2437 1383 
Q 2216 1269 1759 1066 
Q 1488 944 1253 811 
Q 1019 678 869 553 
L 3272 553 
L 3272 0 
z
" transform="scale(0.015625)"/>
       </defs>
       <use xlink:href="#Georgia-30"/>
       <use xlink:href="#Georgia-32" transform="translate(61.376953 0)"/>
       <use xlink:href="#Georgia-3a" transform="translate(117.236328 0)"/>
       <use xlink:href="#Georgia-30" transform="translate(148.486328 0)"/>
       <use xlink:href="#Georgia-30" transform="translate(209.863281 0)"/>
      </g>
     </g>
    </g>
    <g id="xtick_6">
     <g id="line2d_11">
      <path d="M 576.996482 470.24 
L 576.996482 82.16 
" clip-path="url(#p99402984fd)" style="fill: none; stroke: #b0b0b0; stroke-opacity: 0.15; stroke-width: 0.8; stroke-linecap: square"/>
     </g>
     <g id="line2d_12"/>
     <g id="text_6">
      <!-- 02:30 -->
      <g transform="translate(563.744919 485.799375) scale(0.1 -0.1)">
       <use xlink:href="#Georgia-30"/>
       <use xlink:href="#Georgia-32" transform="translate(61.376953 0)"/>
       <use xlink:href="#Georgia-3a" transform="translate(117.236328 0)"/>
       <use xlink:href="#Georgia-33" transform="translate(148.486328 0)"/>
       <use xlink:href="#Georgia-30" transform="translate(203.662109 0)"/>
      </g>
     </g>
    </g>
    <g id="xtick_7">
     <g id="line2d_13">
      <path d="M 676.897019 470.24 
L 676.897019 82.16 
" clip-path="url(#p99402984fd)" style="fill: none; stroke: #b0b0b0; stroke-opacity: 0.15; stroke-width: 0.8; stroke-linecap: square"/>
     </g>
     <g id="line2d_14"/>
     <g id="text_7">
      <!-- 03:00 -->
      <g transform="translate(663.369675 485.799375) scale(0.1 -0.1)">
       <use xlink:href="#Georgia-30"/>
       <use xlink:href="#Georgia-33" transform="translate(61.376953 0)"/>
       <use xlink:href="#Georgia-3a" transform="translate(116.552734 0)"/>
       <use xlink:href="#Georgia-30" transform="translate(147.802734 0)"/>
       <use xlink:href="#Georgia-30" transform="translate(209.179688 0)"/>
      </g>
     </g>
    </g>
    <g id="text_8">
     <!-- Elapsed Time (hh:mm) -->
     <g transform="translate(326.419063 506.283437) scale(0.11 -0.11)">
      <defs>
       <path id="Georgia-45" d="M 4034 1306 
L 3950 0 
L 269 0 
L 269 222 
Q 363 228 519 248 
Q 675 269 722 291 
Q 822 338 861 413 
Q 900 488 900 603 
L 900 3791 
Q 900 3894 865 3973 
Q 831 4053 722 4103 
Q 638 4144 495 4175 
Q 353 4206 269 4213 
L 269 4434 
L 3700 4434 
L 3700 3366 
L 3466 3366 
Q 3403 3603 3195 3870 
Q 2988 4138 2800 4163 
Q 2703 4175 2568 4181 
Q 2434 4188 2263 4188 
L 1566 4188 
L 1566 2425 
L 2066 2425 
Q 2306 2425 2417 2470 
Q 2528 2516 2613 2622 
Q 2681 2713 2729 2864 
Q 2778 3016 2794 3150 
L 3028 3150 
L 3028 1416 
L 2794 1416 
Q 2781 1566 2726 1733 
Q 2672 1900 2613 1975 
Q 2516 2097 2392 2134 
Q 2269 2172 2066 2172 
L 1566 2172 
L 1566 841 
Q 1566 641 1594 525 
Q 1622 409 1703 350 
Q 1784 291 1925 273 
Q 2066 256 2325 256 
Q 2428 256 2597 256 
Q 2766 256 2881 269 
Q 3000 281 3126 314 
Q 3253 347 3306 403 
Q 3450 553 3608 858 
Q 3766 1163 3809 1306 
L 4034 1306 
z
" transform="scale(0.015625)"/>
       <path id="Georgia-6c" d="M 1669 0 
L 166 0 
L 166 206 
Q 238 213 319 220 
Q 400 228 453 244 
Q 541 272 584 342 
Q 628 413 628 525 
L 628 4094 
Q 628 4206 579 4304 
Q 531 4403 453 4459 
Q 397 4497 247 4528 
Q 97 4559 6 4566 
L 6 4766 
L 1166 4838 
L 1209 4791 
L 1209 563 
Q 1209 453 1250 383 
Q 1291 313 1381 275 
Q 1450 244 1517 228 
Q 1584 213 1669 206 
L 1669 0 
z
" transform="scale(0.015625)"/>
       <path id="Georgia-61" d="M 3144 56 
Q 2997 3 2886 -30 
Q 2775 -63 2634 -63 
Q 2391 -63 2245 51 
Q 2100 166 2059 384 
L 2041 384 
Q 1838 159 1605 40 
Q 1372 -78 1044 -78 
Q 697 -78 473 134 
Q 250 347 250 691 
Q 250 869 300 1009 
Q 350 1150 450 1263 
Q 528 1356 656 1429 
Q 784 1503 897 1547 
Q 1038 1600 1467 1744 
Q 1897 1888 2047 1969 
L 2047 2278 
Q 2047 2319 2030 2434 
Q 2013 2550 1956 2653 
Q 1894 2769 1780 2855 
Q 1666 2941 1456 2941 
Q 1313 2941 1189 2892 
Q 1066 2844 1016 2791 
Q 1016 2728 1045 2606 
Q 1075 2484 1075 2381 
Q 1075 2272 976 2181 
Q 878 2091 703 2091 
Q 547 2091 473 2202 
Q 400 2313 400 2450 
Q 400 2594 501 2725 
Q 603 2856 766 2959 
Q 906 3047 1106 3108 
Q 1306 3169 1497 3169 
Q 1759 3169 1954 3133 
Q 2150 3097 2309 2978 
Q 2469 2863 2551 2664 
Q 2634 2466 2634 2153 
Q 2634 1706 2625 1361 
Q 2616 1016 2616 606 
Q 2616 484 2658 412 
Q 2700 341 2788 291 
Q 2834 263 2936 259 
Q 3038 256 3144 256 
L 3144 56 
z
M 2053 1706 
Q 1788 1628 1588 1553 
Q 1388 1478 1216 1366 
Q 1059 1259 968 1114 
Q 878 969 878 769 
Q 878 509 1014 387 
Q 1150 266 1359 266 
Q 1581 266 1750 373 
Q 1919 481 2034 628 
L 2053 1706 
z
" transform="scale(0.015625)"/>
       <path id="Georgia-70" d="M 3041 2716 
Q 3225 2497 3326 2208 
Q 3428 1919 3428 1547 
Q 3428 1181 3306 879 
Q 3184 578 2984 366 
Q 2775 150 2519 34 
Q 2263 -81 1975 -81 
Q 1697 -81 1519 -18 
Q 1341 44 1228 128 
L 1203 128 
L 1203 -797 
Q 1203 -909 1247 -984 
Q 1291 -1059 1381 -1094 
Q 1456 -1122 1595 -1148 
Q 1734 -1175 1825 -1178 
L 1825 -1388 
L 103 -1388 
L 103 -1178 
Q 200 -1172 290 -1162 
Q 381 -1153 453 -1131 
Q 547 -1100 584 -1022 
Q 622 -944 622 -838 
L 622 2441 
Q 622 2534 575 2621 
Q 528 2709 453 2763 
Q 397 2800 297 2820 
Q 197 2841 103 2847 
L 103 3050 
L 1153 3119 
L 1197 3081 
L 1197 2734 
L 1222 2728 
Q 1384 2916 1625 3041 
Q 1866 3166 2103 3166 
Q 2391 3166 2630 3044 
Q 2869 2922 3041 2716 
z
M 2531 500 
Q 2656 694 2715 950 
Q 2775 1206 2775 1522 
Q 2775 1753 2725 1993 
Q 2675 2234 2569 2413 
Q 2463 2594 2291 2706 
Q 2119 2819 1878 2819 
Q 1647 2819 1484 2717 
Q 1322 2616 1203 2475 
L 1203 653 
Q 1231 569 1295 478 
Q 1359 388 1438 322 
Q 1534 244 1646 195 
Q 1759 147 1922 147 
Q 2097 147 2259 239 
Q 2422 331 2531 500 
z
" transform="scale(0.015625)"/>
       <path id="Georgia-73" d="M 2259 1509 
Q 2388 1397 2456 1250 
Q 2525 1103 2525 891 
Q 2525 463 2204 191 
Q 1884 -81 1375 -81 
Q 1106 -81 879 16 
Q 653 113 556 194 
L 494 -9 
L 259 -9 
L 228 1063 
L 444 1063 
Q 469 941 550 778 
Q 631 616 747 484 
Q 869 347 1039 253 
Q 1209 159 1422 159 
Q 1722 159 1884 295 
Q 2047 431 2047 684 
Q 2047 816 1995 911 
Q 1944 1006 1844 1078 
Q 1741 1150 1591 1208 
Q 1441 1266 1256 1322 
Q 1109 1366 929 1442 
Q 750 1519 622 1622 
Q 484 1731 396 1890 
Q 309 2050 309 2266 
Q 309 2644 590 2906 
Q 872 3169 1344 3169 
Q 1525 3169 1714 3122 
Q 1903 3075 2022 3009 
L 2094 3172 
L 2319 3172 
L 2366 2181 
L 2150 2181 
Q 2084 2513 1867 2720 
Q 1650 2928 1338 2928 
Q 1081 2928 934 2800 
Q 788 2672 788 2491 
Q 788 2350 836 2256 
Q 884 2163 981 2097 
Q 1075 2034 1217 1979 
Q 1359 1925 1569 1856 
Q 1775 1791 1958 1703 
Q 2141 1616 2259 1509 
z
" transform="scale(0.015625)"/>
       <path id="Georgia-65" d="M 2963 725 
Q 2769 356 2444 137 
Q 2119 -81 1697 -81 
Q 1325 -81 1045 50 
Q 766 181 584 406 
Q 403 631 314 931 
Q 225 1231 225 1566 
Q 225 1866 320 2155 
Q 416 2444 600 2675 
Q 778 2897 1042 3033 
Q 1306 3169 1634 3169 
Q 1972 3169 2212 3062 
Q 2453 2956 2603 2772 
Q 2747 2597 2817 2359 
Q 2888 2122 2888 1844 
L 2888 1638 
L 847 1638 
Q 847 1334 905 1087 
Q 963 841 1088 653 
Q 1209 472 1406 367 
Q 1603 263 1875 263 
Q 2153 263 2354 392 
Q 2556 522 2744 859 
L 2963 725 
z
M 2272 1900 
Q 2272 2075 2242 2275 
Q 2213 2475 2147 2609 
Q 2075 2753 1950 2843 
Q 1825 2934 1628 2934 
Q 1300 2934 1083 2661 
Q 866 2388 847 1900 
L 2272 1900 
z
" transform="scale(0.015625)"/>
       <path id="Georgia-64" d="M 3600 56 
L 2525 -13 
L 2478 31 
L 2478 319 
L 2453 325 
Q 2291 144 2052 28 
Q 1813 -88 1559 -88 
Q 1297 -88 1051 29 
Q 806 147 625 359 
Q 441 575 333 878 
Q 225 1181 225 1547 
Q 225 1881 340 2181 
Q 456 2481 659 2706 
Q 850 2916 1126 3041 
Q 1403 3166 1691 3166 
Q 1906 3166 2114 3111 
Q 2322 3056 2472 2972 
L 2472 4044 
Q 2472 4175 2428 4283 
Q 2384 4391 2306 4447 
Q 2219 4506 2070 4532 
Q 1922 4559 1750 4572 
L 1750 4766 
L 3009 4838 
L 3056 4791 
L 3056 634 
Q 3056 525 3098 448 
Q 3141 372 3222 319 
Q 3281 281 3393 272 
Q 3506 263 3600 259 
L 3600 56 
z
M 2472 597 
L 2472 2400 
Q 2447 2481 2390 2575 
Q 2334 2669 2250 2747 
Q 2159 2825 2037 2876 
Q 1916 2928 1753 2928 
Q 1566 2928 1408 2831 
Q 1250 2734 1128 2553 
Q 1013 2378 945 2108 
Q 878 1838 878 1509 
Q 878 1247 928 1033 
Q 978 819 1097 634 
Q 1206 459 1376 353 
Q 1547 247 1781 247 
Q 2031 247 2195 356 
Q 2359 466 2472 597 
z
" transform="scale(0.015625)"/>
       <path id="Georgia-20" transform="scale(0.015625)"/>
       <path id="Georgia-54" d="M 3909 3231 
L 3694 3231 
Q 3666 3344 3592 3498 
Q 3519 3653 3428 3791 
Q 3334 3934 3223 4042 
Q 3113 4150 3009 4166 
Q 2913 4178 2766 4184 
Q 2619 4191 2494 4191 
L 2313 4191 
L 2313 644 
Q 2313 541 2356 455 
Q 2400 369 2509 322 
Q 2566 300 2745 262 
Q 2925 225 3025 222 
L 3025 0 
L 931 0 
L 931 222 
Q 1019 228 1198 247 
Q 1378 266 1447 294 
Q 1550 334 1598 411 
Q 1647 488 1647 616 
L 1647 4191 
L 1466 4191 
Q 1369 4191 1225 4186 
Q 1081 4181 950 4166 
Q 847 4153 736 4042 
Q 625 3931 531 3791 
Q 438 3650 366 3492 
Q 294 3334 266 3231 
L 47 3231 
L 47 4434 
L 3909 4434 
L 3909 3231 
z
" transform="scale(0.015625)"/>
       <path id="Georgia-69" d="M 1722 0 
L 231 0 
L 231 206 
Q 303 213 379 219 
Q 456 225 513 244 
Q 600 272 642 342 
Q 684 413 684 525 
L 684 2428 
Q 684 2528 639 2611 
Q 594 2694 513 2750 
Q 453 2788 340 2814 
Q 228 2841 134 2847 
L 134 3050 
L 1222 3119 
L 1266 3075 
L 1266 563 
Q 1266 453 1308 381 
Q 1350 309 1441 275 
Q 1509 247 1575 230 
Q 1641 213 1722 206 
L 1722 0 
z
M 1328 4334 
Q 1328 4156 1211 4023 
Q 1094 3891 922 3891 
Q 763 3891 645 4017 
Q 528 4144 528 4306 
Q 528 4478 645 4606 
Q 763 4734 922 4734 
Q 1100 4734 1214 4614 
Q 1328 4494 1328 4334 
z
" transform="scale(0.015625)"/>
       <path id="Georgia-6d" d="M 5503 0 
L 4000 0 
L 4000 206 
Q 4072 213 4145 219 
Q 4219 225 4275 244 
Q 4363 272 4405 342 
Q 4447 413 4447 525 
L 4447 2116 
Q 4447 2441 4298 2617 
Q 4150 2794 3928 2794 
Q 3775 2794 3640 2747 
Q 3506 2700 3394 2616 
Q 3303 2547 3242 2467 
Q 3181 2388 3150 2334 
L 3150 556 
Q 3150 447 3187 376 
Q 3225 306 3316 269 
Q 3388 241 3445 227 
Q 3503 213 3597 206 
L 3597 0 
L 2125 0 
L 2125 206 
Q 2197 213 2264 219 
Q 2331 225 2388 244 
Q 2475 272 2517 342 
Q 2559 413 2559 525 
L 2559 2116 
Q 2559 2441 2411 2617 
Q 2263 2794 2041 2794 
Q 1888 2794 1753 2745 
Q 1619 2697 1506 2613 
Q 1416 2544 1353 2458 
Q 1291 2372 1259 2328 
L 1259 563 
Q 1259 456 1303 384 
Q 1347 313 1434 275 
Q 1500 244 1569 228 
Q 1638 213 1722 206 
L 1722 0 
L 225 0 
L 225 206 
Q 297 213 373 219 
Q 450 225 506 244 
Q 594 272 636 342 
Q 678 413 678 525 
L 678 2441 
Q 678 2541 633 2620 
Q 588 2700 506 2756 
Q 447 2794 359 2817 
Q 272 2841 178 2847 
L 178 3050 
L 1209 3119 
L 1253 3075 
L 1253 2634 
L 1275 2634 
Q 1353 2713 1465 2819 
Q 1578 2925 1675 2991 
Q 1784 3066 1948 3116 
Q 2113 3166 2303 3166 
Q 2603 3166 2818 3005 
Q 3034 2844 3128 2616 
Q 3241 2725 3327 2808 
Q 3413 2891 3553 2984 
Q 3672 3066 3833 3116 
Q 3994 3166 4191 3166 
Q 4581 3166 4809 2909 
Q 5038 2653 5038 2122 
L 5038 556 
Q 5038 447 5075 376 
Q 5113 306 5203 269 
Q 5275 241 5345 227 
Q 5416 213 5503 206 
L 5503 0 
z
" transform="scale(0.015625)"/>
       <path id="Georgia-28" d="M 2191 -1025 
Q 1338 -919 852 -165 
Q 366 588 366 1863 
Q 366 3159 852 3917 
Q 1338 4675 2191 4788 
L 2191 4528 
Q 1591 4419 1278 3762 
Q 966 3106 966 1856 
Q 966 666 1272 5 
Q 1578 -656 2191 -769 
L 2191 -1025 
z
" transform="scale(0.015625)"/>
       <path id="Georgia-68" d="M 3572 0 
L 2059 0 
L 2059 206 
Q 2131 213 2218 219 
Q 2306 225 2363 244 
Q 2450 272 2492 342 
Q 2534 413 2534 525 
L 2534 2109 
Q 2534 2438 2379 2616 
Q 2225 2794 2003 2794 
Q 1841 2794 1702 2742 
Q 1563 2691 1453 2616 
Q 1347 2538 1290 2459 
Q 1234 2381 1203 2328 
L 1203 556 
Q 1203 450 1245 381 
Q 1288 313 1375 275 
Q 1444 244 1517 228 
Q 1591 213 1678 206 
L 1678 0 
L 166 0 
L 166 206 
Q 238 213 316 220 
Q 394 228 447 244 
Q 534 272 578 342 
Q 622 413 622 525 
L 622 4113 
Q 622 4219 573 4325 
Q 525 4431 447 4484 
Q 391 4525 248 4542 
Q 106 4559 19 4566 
L 19 4766 
L 1159 4838 
L 1203 4791 
L 1203 2641 
L 1216 2641 
Q 1319 2744 1403 2823 
Q 1488 2903 1625 2991 
Q 1744 3066 1905 3116 
Q 2066 3166 2266 3166 
Q 2678 3166 2900 2905 
Q 3122 2644 3122 2153 
L 3122 550 
Q 3122 441 3161 373 
Q 3200 306 3291 269 
Q 3363 241 3420 227 
Q 3478 213 3572 206 
L 3572 0 
z
" transform="scale(0.015625)"/>
       <path id="Georgia-29" d="M 2034 1863 
Q 2034 588 1548 -165 
Q 1063 -919 209 -1025 
L 209 -769 
Q 822 -656 1128 5 
Q 1434 666 1434 1856 
Q 1434 3106 1121 3762 
Q 809 4419 209 4528 
L 209 4788 
Q 1063 4675 1548 3917 
Q 2034 3159 2034 1863 
z
" transform="scale(0.015625)"/>
      </defs>
      <use xlink:href="#Georgia-45"/>
      <use xlink:href="#Georgia-6c" transform="translate(65.332031 0)"/>
      <use xlink:href="#Georgia-61" transform="translate(93.945312 0)"/>
      <use xlink:href="#Georgia-70" transform="translate(144.335938 0)"/>
      <use xlink:href="#Georgia-73" transform="translate(201.464844 0)"/>
      <use xlink:href="#Georgia-65" transform="translate(244.677734 0)"/>
      <use xlink:href="#Georgia-64" transform="translate(293.017578 0)"/>
      <use xlink:href="#Georgia-20" transform="translate(350.439453 0)"/>
      <use xlink:href="#Georgia-54" transform="translate(374.560547 0)"/>
      <use xlink:href="#Georgia-69" transform="translate(436.425781 0)"/>
      <use xlink:href="#Georgia-6d" transform="translate(465.722656 0)"/>
      <use xlink:href="#Georgia-65" transform="translate(553.808594 0)"/>
      <use xlink:href="#Georgia-20" transform="translate(602.148438 0)"/>
      <use xlink:href="#Georgia-28" transform="translate(626.269531 0)"/>
      <use xlink:href="#Georgia-68" transform="translate(663.769531 0)"/>
      <use xlink:href="#Georgia-68" transform="translate(721.972656 0)"/>
      <use xlink:href="#Georgia-3a" transform="translate(780.175781 0)"/>
      <use xlink:href="#Georgia-6d" transform="translate(811.425781 0)"/>
      <use xlink:href="#Georgia-6d" transform="translate(899.511719 0)"/>
      <use xlink:href="#Georgia-29" transform="translate(987.597656 0)"/>
     </g>
    </g>
   </g>
   <g id="matplotlib.axis_2">
    <g id="ytick_1">
     <g id="line2d_15">
      <path d="M 48.000938 470.24 
L 717.600937 470.24 
" clip-path="url(#p99402984fd)" style="fill: none; stroke: #b0b0b0; stroke-opacity: 0.15; stroke-width: 0.8; stroke-linecap: square"/>
     </g>
     <g id="line2d_16"/>
     <g id="text_9">
      <!-- 0 -->
      <g transform="translate(33.863438 474.019687) scale(0.1 -0.1)">
       <use xlink:href="#Georgia-30"/>
      </g>
     </g>
    </g>
    <g id="ytick_2">
     <g id="line2d_17">
      <path d="M 48.000938 388.106667 
L 717.600937 388.106667 
" clip-path="url(#p99402984fd)" style="fill: none; stroke: #b0b0b0; stroke-opacity: 0.15; stroke-width: 0.8; stroke-linecap: square"/>
     </g>
     <g id="line2d_18"/>
     <g id="text_10">
      <!-- 20 -->
      <g transform="translate(28.2775 391.886354) scale(0.1 -0.1)">
       <use xlink:href="#Georgia-32"/>
       <use xlink:href="#Georgia-30" transform="translate(55.859375 0)"/>
      </g>
     </g>
    </g>
    <g id="ytick_3">
     <g id="line2d_19">
      <path d="M 48.000938 305.973333 
L 717.600937 305.973333 
" clip-path="url(#p99402984fd)" style="fill: none; stroke: #b0b0b0; stroke-opacity: 0.15; stroke-width: 0.8; stroke-linecap: square"/>
     </g>
     <g id="line2d_20"/>
     <g id="text_11">
      <!-- 40 -->
      <g transform="translate(28.213438 309.753021) scale(0.1 -0.1)">
       <defs>
        <path id="Georgia-34" d="M 3388 281 
L 2753 281 
L 2753 -1141 
L 2153 -1141 
L 2153 281 
L 153 281 
L 153 763 
L 2344 3434 
L 2753 3434 
L 2753 691 
L 3388 691 
L 3388 281 
z
M 2153 691 
L 2153 2738 
L 466 691 
L 2153 691 
z
" transform="scale(0.015625)"/>
       </defs>
       <use xlink:href="#Georgia-34"/>
       <use xlink:href="#Georgia-30" transform="translate(56.494141 0)"/>
      </g>
     </g>
    </g>
    <g id="ytick_4">
     <g id="line2d_21">
      <path d="M 48.000938 223.84 
L 717.600937 223.84 
" clip-path="url(#p99402984fd)" style="fill: none; stroke: #b0b0b0; stroke-opacity: 0.15; stroke-width: 0.8; stroke-linecap: square"/>
     </g>
     <g id="line2d_22"/>
     <g id="text_12">
      <!-- 60 -->
      <g transform="translate(28.204063 227.619687) scale(0.1 -0.1)">
       <defs>
        <path id="Georgia-36" d="M 3359 1441 
Q 3359 1116 3242 831 
Q 3125 547 2928 347 
Q 2700 119 2423 9 
Q 2147 -100 1847 -100 
Q 1500 -100 1219 28 
Q 938 156 741 391 
Q 541 628 431 972 
Q 322 1316 322 1744 
Q 322 2859 986 3625 
Q 1650 4391 2766 4544 
L 2822 4263 
L 2541 4213 
Q 1863 3994 1492 3531 
Q 1122 3069 1013 2409 
Q 1281 2644 1543 2741 
Q 1806 2838 2097 2838 
Q 2619 2838 2989 2438 
Q 3359 2038 3359 1441 
z
M 2681 1356 
Q 2681 1863 2448 2169 
Q 2216 2475 1825 2475 
Q 1591 2475 1389 2387 
Q 1188 2300 1000 2094 
Q 997 2056 990 1920 
Q 984 1784 984 1706 
Q 984 975 1223 561 
Q 1463 147 1853 147 
Q 2225 147 2453 470 
Q 2681 794 2681 1356 
z
" transform="scale(0.015625)"/>
       </defs>
       <use xlink:href="#Georgia-36"/>
       <use xlink:href="#Georgia-30" transform="translate(56.591797 0)"/>
      </g>
     </g>
    </g>
    <g id="ytick_5">
     <g id="line2d_23">
      <path d="M 48.000938 141.706667 
L 717.600937 141.706667 
" clip-path="url(#p99402984fd)" style="fill: none; stroke: #b0b0b0; stroke-opacity: 0.15; stroke-width: 0.8; stroke-linecap: square"/>
     </g>
     <g id="line2d_24"/>
     <g id="text_13">
      <!-- 80 -->
      <g transform="translate(27.900938 145.486354) scale(0.1 -0.1)">
       <defs>
        <path id="Georgia-38" d="M 3491 1175 
Q 3491 650 3037 272 
Q 2584 -106 1847 -106 
Q 1156 -106 740 241 
Q 325 588 325 1134 
Q 325 1538 570 1808 
Q 816 2078 1297 2266 
Q 900 2488 703 2753 
Q 506 3019 506 3353 
Q 506 3863 939 4206 
Q 1372 4550 1975 4550 
Q 2578 4550 2951 4225 
Q 3325 3900 3325 3409 
Q 3325 3094 3119 2811 
Q 2913 2528 2513 2347 
Q 3031 2125 3261 1856 
Q 3491 1588 3491 1175 
z
M 2734 3444 
Q 2734 3825 2507 4064 
Q 2281 4303 1928 4303 
Q 1575 4303 1350 4073 
Q 1125 3844 1125 3503 
Q 1125 3175 1381 2947 
Q 1638 2719 2294 2459 
Q 2528 2609 2631 2856 
Q 2734 3103 2734 3444 
z
M 2866 1028 
Q 2866 1225 2781 1373 
Q 2697 1522 2538 1644 
Q 2384 1763 2111 1892 
Q 1838 2022 1519 2156 
Q 1219 1994 1078 1742 
Q 938 1491 938 1169 
Q 938 709 1208 426 
Q 1478 144 1928 144 
Q 2359 144 2612 394 
Q 2866 644 2866 1028 
z
" transform="scale(0.015625)"/>
       </defs>
       <use xlink:href="#Georgia-38"/>
       <use xlink:href="#Georgia-30" transform="translate(59.619141 0)"/>
      </g>
     </g>
    </g>
    <g id="text_14">
     <!-- Number of Strava Activities -->
     <g transform="translate(15.515313 343.250156) rotate(-90) scale(0.11 -0.11)">
      <defs>
       <path id="Georgia-4e" d="M 4856 4213 
Q 4769 4209 4587 4162 
Q 4406 4116 4328 4066 
Q 4216 3988 4177 3766 
Q 4138 3544 4138 3203 
L 4138 -44 
L 3866 -44 
L 1178 3584 
L 1178 1297 
Q 1178 913 1226 706 
Q 1275 500 1375 413 
Q 1447 344 1672 284 
Q 1897 225 1969 222 
L 1969 0 
L 150 0 
L 150 222 
Q 234 228 434 283 
Q 634 338 684 381 
Q 794 469 834 648 
Q 875 828 875 1263 
L 875 3447 
Q 875 3591 825 3734 
Q 775 3878 691 3956 
Q 578 4059 386 4132 
Q 194 4206 75 4213 
L 75 4434 
L 1341 4434 
L 3834 1053 
L 3834 3163 
Q 3834 3550 3784 3758 
Q 3734 3966 3641 4034 
Q 3553 4094 3354 4150 
Q 3156 4206 3053 4213 
L 3053 4434 
L 4856 4434 
L 4856 4213 
z
" transform="scale(0.015625)"/>
       <path id="Georgia-75" d="M 3528 56 
L 2525 -13 
L 2478 31 
L 2478 422 
L 2459 422 
Q 2384 344 2290 255 
Q 2197 166 2075 94 
Q 1934 9 1803 -34 
Q 1672 -78 1431 -78 
Q 1022 -78 808 189 
Q 594 456 594 966 
L 594 2441 
Q 594 2553 551 2629 
Q 509 2706 428 2763 
Q 372 2800 287 2817 
Q 203 2834 109 2841 
L 109 3044 
L 1138 3119 
L 1184 3075 
L 1184 934 
Q 1184 600 1334 431 
Q 1484 263 1694 263 
Q 1866 263 2000 316 
Q 2134 369 2225 441 
Q 2309 506 2373 579 
Q 2438 653 2472 716 
L 2472 2463 
Q 2472 2566 2428 2645 
Q 2384 2725 2306 2781 
Q 2250 2819 2139 2826 
Q 2028 2834 1891 2841 
L 1891 3044 
L 3009 3119 
L 3056 3075 
L 3056 628 
Q 3056 522 3100 447 
Q 3144 372 3222 319 
Q 3278 284 3356 273 
Q 3434 263 3528 259 
L 3528 56 
z
" transform="scale(0.015625)"/>
       <path id="Georgia-62" d="M 3353 1544 
Q 3353 850 2915 378 
Q 2478 -94 1900 -94 
Q 1647 -94 1401 -15 
Q 1156 63 941 194 
L 709 -166 
L 516 -122 
Q 531 109 537 434 
Q 544 759 544 1063 
L 544 4113 
Q 544 4219 495 4325 
Q 447 4431 372 4478 
Q 313 4519 173 4539 
Q 34 4559 -50 4566 
L -50 4766 
L 1081 4838 
L 1125 4791 
L 1125 2759 
L 1147 2753 
Q 1341 2959 1570 3062 
Q 1800 3166 2022 3166 
Q 2591 3166 2972 2716 
Q 3353 2266 3353 1544 
z
M 2700 1522 
Q 2700 1753 2650 1993 
Q 2600 2234 2494 2413 
Q 2388 2594 2216 2706 
Q 2044 2819 1803 2819 
Q 1584 2819 1420 2733 
Q 1256 2647 1125 2500 
L 1125 706 
Q 1144 631 1198 531 
Q 1253 431 1347 341 
Q 1441 253 1559 198 
Q 1678 144 1850 144 
Q 2231 144 2465 512 
Q 2700 881 2700 1522 
z
" transform="scale(0.015625)"/>
       <path id="Georgia-72" d="M 2584 2684 
Q 2584 2525 2506 2401 
Q 2428 2278 2266 2278 
Q 2091 2278 1998 2368 
Q 1906 2459 1906 2569 
Q 1906 2638 1917 2694 
Q 1928 2750 1938 2806 
Q 1791 2806 1594 2687 
Q 1397 2569 1259 2350 
L 1259 556 
Q 1259 447 1301 378 
Q 1344 309 1434 275 
Q 1513 244 1636 228 
Q 1759 213 1850 206 
L 1850 0 
L 225 0 
L 225 206 
Q 297 213 373 219 
Q 450 225 506 244 
Q 594 272 636 342 
Q 678 413 678 525 
L 678 2428 
Q 678 2525 633 2619 
Q 588 2713 506 2769 
Q 447 2806 365 2823 
Q 284 2841 191 2847 
L 191 3050 
L 1216 3119 
L 1259 3075 
L 1259 2641 
L 1275 2641 
Q 1469 2894 1706 3025 
Q 1944 3156 2141 3156 
Q 2338 3156 2461 3028 
Q 2584 2900 2584 2684 
z
" transform="scale(0.015625)"/>
       <path id="Georgia-6f" d="M 3228 1572 
Q 3228 1247 3125 933 
Q 3022 619 2831 400 
Q 2616 150 2331 28 
Q 2047 -94 1694 -94 
Q 1400 -94 1134 17 
Q 869 128 663 341 
Q 459 550 339 851 
Q 219 1153 219 1528 
Q 219 2250 639 2709 
Q 1059 3169 1741 3169 
Q 2388 3169 2808 2733 
Q 3228 2297 3228 1572 
z
M 2581 1566 
Q 2581 1800 2534 2061 
Q 2488 2322 2394 2503 
Q 2294 2697 2131 2814 
Q 1969 2931 1734 2931 
Q 1494 2931 1323 2812 
Q 1153 2694 1047 2488 
Q 947 2297 906 2053 
Q 866 1809 866 1581 
Q 866 1281 914 1026 
Q 963 772 1069 572 
Q 1175 372 1336 258 
Q 1497 144 1734 144 
Q 2125 144 2353 522 
Q 2581 900 2581 1566 
z
" transform="scale(0.015625)"/>
       <path id="Georgia-66" d="M 2519 4466 
Q 2519 4325 2444 4228 
Q 2369 4131 2216 4131 
Q 2119 4131 2045 4172 
Q 1972 4213 1909 4281 
Q 1847 4350 1794 4437 
Q 1741 4525 1703 4578 
Q 1494 4569 1380 4286 
Q 1266 4003 1266 3384 
L 1266 3069 
L 2059 3069 
L 2059 2769 
L 1266 2769 
L 1266 556 
Q 1266 447 1308 378 
Q 1350 309 1441 275 
Q 1516 247 1641 230 
Q 1766 213 1856 206 
L 1856 0 
L 231 0 
L 231 206 
Q 303 213 379 219 
Q 456 225 513 244 
Q 600 272 642 342 
Q 684 413 684 525 
L 684 2769 
L 75 2769 
L 75 3069 
L 684 3069 
L 684 3266 
Q 684 3969 1048 4405 
Q 1413 4841 1959 4841 
Q 2238 4841 2378 4731 
Q 2519 4622 2519 4466 
z
" transform="scale(0.015625)"/>
       <path id="Georgia-53" d="M 3066 2034 
Q 3206 1878 3273 1692 
Q 3341 1506 3341 1259 
Q 3341 672 2906 290 
Q 2472 -91 1828 -91 
Q 1531 -91 1234 1 
Q 938 94 722 225 
L 588 -3 
L 338 -3 
L 294 1516 
L 547 1516 
Q 625 1234 729 1007 
Q 834 781 1006 584 
Q 1169 400 1386 290 
Q 1603 181 1891 181 
Q 2106 181 2267 237 
Q 2428 294 2528 397 
Q 2628 500 2676 639 
Q 2725 778 2725 959 
Q 2725 1225 2575 1454 
Q 2425 1684 2128 1803 
Q 1925 1884 1662 1982 
Q 1400 2081 1209 2169 
Q 834 2338 626 2611 
Q 419 2884 419 3325 
Q 419 3578 522 3797 
Q 625 4016 816 4188 
Q 997 4350 1244 4442 
Q 1491 4534 1759 4534 
Q 2066 4534 2308 4440 
Q 2550 4347 2750 4222 
L 2878 4434 
L 3128 4434 
L 3153 2963 
L 2900 2963 
Q 2831 3216 2745 3447 
Q 2659 3678 2522 3866 
Q 2388 4047 2194 4155 
Q 2000 4263 1719 4263 
Q 1422 4263 1212 4072 
Q 1003 3881 1003 3606 
Q 1003 3319 1137 3130 
Q 1272 2941 1528 2819 
Q 1756 2709 1976 2629 
Q 2197 2550 2403 2459 
Q 2591 2378 2764 2275 
Q 2938 2172 3066 2034 
z
" transform="scale(0.015625)"/>
       <path id="Georgia-74" d="M 2128 134 
Q 1925 50 1744 -8 
Q 1563 -66 1300 -66 
Q 913 -66 755 129 
Q 597 325 597 681 
L 597 2769 
L 41 2769 
L 41 3069 
L 609 3069 
L 609 4028 
L 1178 4028 
L 1178 3069 
L 2063 3069 
L 2063 2769 
L 1184 2769 
L 1184 1047 
Q 1184 853 1198 723 
Q 1213 594 1266 497 
Q 1316 406 1416 359 
Q 1516 313 1684 313 
Q 1763 313 1914 327 
Q 2066 341 2128 363 
L 2128 134 
z
" transform="scale(0.015625)"/>
       <path id="Georgia-76" d="M 3269 2891 
Q 3128 2866 3001 2789 
Q 2875 2713 2784 2519 
Q 2600 2100 2403 1645 
Q 2206 1191 1994 691 
Q 1931 547 1861 350 
Q 1791 153 1731 -28 
L 1488 -28 
Q 1191 706 941 1311 
Q 691 1916 422 2550 
Q 359 2694 220 2773 
Q 81 2853 -59 2875 
L -59 3081 
L 1366 3081 
L 1366 2863 
Q 1272 2859 1131 2823 
Q 991 2788 991 2725 
Q 991 2716 1006 2677 
Q 1022 2638 1038 2588 
Q 1166 2269 1400 1697 
Q 1634 1125 1781 775 
Q 1894 1044 2064 1444 
Q 2234 1844 2431 2338 
Q 2463 2422 2491 2495 
Q 2519 2569 2519 2644 
Q 2519 2697 2467 2739 
Q 2416 2781 2344 2813 
Q 2272 2844 2203 2859 
Q 2134 2875 2091 2881 
L 2091 3081 
L 3269 3081 
L 3269 2891 
z
" transform="scale(0.015625)"/>
       <path id="Georgia-41" d="M 4441 0 
L 2594 0 
L 2594 222 
Q 2838 238 2998 284 
Q 3159 331 3159 400 
Q 3159 428 3153 468 
Q 3147 509 3134 541 
L 2766 1534 
L 1213 1534 
Q 1125 1316 1070 1153 
Q 1016 991 972 853 
Q 931 719 915 634 
Q 900 550 900 497 
Q 900 372 1097 303 
Q 1294 234 1541 222 
L 1541 0 
L -128 0 
L -128 222 
Q -47 228 75 258 
Q 197 288 275 338 
Q 400 422 469 514 
Q 538 606 603 769 
Q 938 1603 1341 2643 
Q 1744 3684 2059 4497 
L 2309 4497 
L 3788 672 
Q 3834 550 3893 475 
Q 3953 400 4059 328 
Q 4131 284 4247 254 
Q 4363 225 4441 222 
L 4441 0 
z
M 2653 1813 
L 1981 3531 
L 1322 1813 
L 2653 1813 
z
" transform="scale(0.015625)"/>
       <path id="Georgia-63" d="M 1650 -81 
Q 981 -81 603 362 
Q 225 806 225 1553 
Q 225 1878 326 2161 
Q 428 2444 622 2675 
Q 806 2897 1084 3033 
Q 1363 3169 1691 3169 
Q 2144 3169 2428 2951 
Q 2713 2734 2713 2359 
Q 2713 2203 2638 2083 
Q 2563 1963 2391 1963 
Q 2206 1963 2104 2056 
Q 2003 2150 2003 2266 
Q 2003 2406 2040 2554 
Q 2078 2703 2084 2772 
Q 2028 2869 1917 2901 
Q 1806 2934 1678 2934 
Q 1528 2934 1392 2870 
Q 1256 2806 1128 2634 
Q 1013 2478 941 2212 
Q 869 1947 869 1578 
Q 869 997 1126 630 
Q 1384 263 1803 263 
Q 2106 263 2311 409 
Q 2516 556 2691 850 
L 2891 719 
Q 2684 350 2346 134 
Q 2009 -81 1650 -81 
z
" transform="scale(0.015625)"/>
      </defs>
      <use xlink:href="#Georgia-4e"/>
      <use xlink:href="#Georgia-75" transform="translate(76.708984 0)"/>
      <use xlink:href="#Georgia-6d" transform="translate(134.228516 0)"/>
      <use xlink:href="#Georgia-62" transform="translate(222.314453 0)"/>
      <use xlink:href="#Georgia-65" transform="translate(278.320312 0)"/>
      <use xlink:href="#Georgia-72" transform="translate(326.660156 0)"/>
      <use xlink:href="#Georgia-20" transform="translate(367.626953 0)"/>
      <use xlink:href="#Georgia-6f" transform="translate(391.748047 0)"/>
      <use xlink:href="#Georgia-66" transform="translate(445.654297 0)"/>
      <use xlink:href="#Georgia-20" transform="translate(478.173828 0)"/>
      <use xlink:href="#Georgia-53" transform="translate(502.294922 0)"/>
      <use xlink:href="#Georgia-74" transform="translate(558.398438 0)"/>
      <use xlink:href="#Georgia-72" transform="translate(592.919922 0)"/>
      <use xlink:href="#Georgia-61" transform="translate(633.886719 0)"/>
      <use xlink:href="#Georgia-76" transform="translate(684.277344 0)"/>
      <use xlink:href="#Georgia-61" transform="translate(733.935547 0)"/>
      <use xlink:href="#Georgia-20" transform="translate(784.326172 0)"/>
      <use xlink:href="#Georgia-41" transform="translate(808.447266 0)"/>
      <use xlink:href="#Georgia-63" transform="translate(875.537109 0)"/>
      <use xlink:href="#Georgia-74" transform="translate(920.947266 0)"/>
      <use xlink:href="#Georgia-69" transform="translate(955.46875 0)"/>
      <use xlink:href="#Georgia-76" transform="translate(984.765625 0)"/>
      <use xlink:href="#Georgia-69" transform="translate(1034.423828 0)"/>
      <use xlink:href="#Georgia-74" transform="translate(1063.720703 0)"/>
      <use xlink:href="#Georgia-69" transform="translate(1098.242188 0)"/>
      <use xlink:href="#Georgia-65" transform="translate(1127.539062 0)"/>
      <use xlink:href="#Georgia-73" transform="translate(1175.878906 0)"/>
     </g>
    </g>
   </g>
   <g id="line2d_25">
    <path d="M 78.437301 459.088282 
L 82.096984 457.161606 
L 85.756667 454.967056 
L 89.41635 452.465658 
L 93.076033 449.614959 
L 96.735716 446.37178 
L 100.395399 442.696031 
L 104.055082 438.555304 
L 107.714765 433.929696 
L 111.374448 428.816184 
L 115.034131 423.231759 
L 118.693814 417.214614 
L 122.353497 410.822895 
L 127.233075 401.847901 
L 134.552441 387.825751 
L 145.53149 366.738563 
L 152.850856 353.169037 
L 160.170222 340.08653 
L 167.489588 327.502479 
L 173.589059 317.519388 
L 178.468637 310.022867 
L 182.12832 304.784656 
L 185.788003 299.943688 
L 189.447686 295.544965 
L 193.107369 291.606868 
L 196.767052 288.112232 
L 200.426735 285.002874 
L 204.086418 282.178584 
L 213.845572 274.901653 
L 217.505255 271.759349 
L 219.945044 269.395178 
L 222.384833 266.762381 
L 224.824621 263.824453 
L 227.26441 260.555333 
L 229.704199 256.941257 
L 232.143987 252.982224 
L 234.583776 248.693022 
L 238.243459 241.710141 
L 241.903142 234.220874 
L 251.662297 213.749503 
L 254.102085 209.038414 
L 256.541874 204.700262 
L 258.981663 200.83954 
L 261.421451 197.555304 
L 262.641346 196.158089 
L 263.86124 194.938154 
L 265.081134 193.905051 
L 266.301029 193.067478 
L 267.520923 192.433214 
L 268.740817 192.009065 
L 269.960712 191.800814 
L 271.180606 191.813179 
L 272.4005 192.049788 
L 273.620395 192.513149 
L 274.840289 193.204647 
L 276.060183 194.124532 
L 277.280078 195.27193 
L 278.499972 196.644859 
L 279.719866 198.24025 
L 280.939761 200.053979 
L 283.379549 204.314949 
L 285.819338 209.375446 
L 288.259127 215.169625 
L 290.698915 221.620338 
L 293.138704 228.641626 
L 296.798387 240.040876 
L 300.45807 252.193317 
L 308.99733 281.72044 
L 315.096802 302.322468 
L 318.756485 314.038149 
L 322.416168 325.114071 
L 326.075851 335.478665 
L 329.735534 345.100822 
L 333.395217 353.981002 
L 337.0549 362.141547 
L 340.714583 369.617401 
L 344.374266 376.448277 
L 348.033949 382.67297 
L 351.693632 388.326162 
L 355.353315 393.43766 
L 359.012998 398.033664 
L 362.672681 402.139412 
L 366.332364 405.782373 
L 369.992047 408.995178 
L 373.65173 411.817576 
L 377.311413 414.296936 
L 380.971096 416.487122 
L 384.630779 418.445838 
L 389.510356 420.796732 
L 396.829722 424.005031 
L 409.028666 429.058667 
L 416.348032 431.895949 
L 421.227609 433.583023 
L 426.107186 435.012959 
L 429.766869 435.873061 
L 433.426552 436.525777 
L 437.086235 436.958521 
L 440.745918 437.170026 
L 444.405601 437.171383 
L 448.065284 436.986384 
L 452.944862 436.513852 
L 468.803488 434.681768 
L 472.463171 434.558261 
L 476.122854 434.661852 
L 479.782537 435.026549 
L 483.44222 435.669656 
L 487.101903 436.590475 
L 490.761586 437.77074 
L 494.421269 439.176755 
L 499.300846 441.322802 
L 506.620212 444.865231 
L 516.379367 449.566573 
L 522.478839 452.222818 
L 527.358416 454.131621 
L 533.457888 456.247191 
L 539.557359 458.09506 
L 545.656831 459.720069 
L 552.976197 461.426612 
L 560.295563 462.898985 
L 567.614929 464.146872 
L 574.934295 465.169928 
L 582.253661 465.968755 
L 589.573027 466.549264 
L 596.892393 466.924545 
L 605.431653 467.134494 
L 615.190808 467.147876 
L 659.107004 466.893071 
L 674.965631 467.148123 
L 687.164574 467.578571 
L 687.164574 467.578571 
" clip-path="url(#p99402984fd)" style="fill: none; stroke: #c38961; stroke-width: 1.5; stroke-linecap: square"/>
   </g>
   <g id="line2d_26">
    <path d="M 269.960712 470.24 
L 269.960712 82.16 
" clip-path="url(#p99402984fd)" style="fill: none; stroke-dasharray: 10,10; stroke-dashoffset: 0; stroke: #0f542f; stroke-opacity: 0.8"/>
   </g>
   <g id="AnnotationBbox_1">
    <g id="text_15">
     <!-- Your most frequent elapsed running -->
     <g transform="translate(355.357967 248.340261) scale(0.11 -0.11)">
      <defs>
       <path id="Georgia-59" d="M 4106 4213 
Q 4053 4209 3937 4170 
Q 3822 4131 3772 4094 
Q 3650 4019 3606 3978 
Q 3563 3938 3438 3766 
Q 3194 3422 2987 3069 
Q 2781 2716 2472 2172 
Q 2356 1972 2318 1850 
Q 2281 1728 2281 1497 
L 2281 650 
Q 2281 538 2326 455 
Q 2372 372 2481 322 
Q 2547 297 2715 261 
Q 2884 225 2988 222 
L 2988 0 
L 913 0 
L 913 222 
Q 1000 228 1175 245 
Q 1350 263 1419 291 
Q 1531 338 1573 419 
Q 1616 500 1616 619 
L 1616 1697 
Q 1616 1747 1555 1880 
Q 1494 2013 1409 2175 
Q 1222 2538 994 2959 
Q 766 3381 597 3681 
Q 494 3859 414 3950 
Q 334 4041 231 4109 
Q 156 4156 51 4181 
Q -53 4206 -138 4213 
L -138 4434 
L 1753 4434 
L 1753 4213 
Q 1434 4206 1303 4168 
Q 1172 4131 1172 4063 
Q 1172 4044 1190 3997 
Q 1209 3950 1244 3878 
Q 1284 3797 1340 3692 
Q 1397 3588 1447 3491 
Q 1594 3213 1747 2936 
Q 1900 2659 2147 2216 
Q 2638 3006 2895 3448 
Q 3153 3891 3153 3978 
Q 3153 4050 3100 4094 
Q 3047 4138 2959 4163 
Q 2869 4188 2762 4195 
Q 2656 4203 2566 4213 
L 2566 4434 
L 4106 4434 
L 4106 4213 
z
" transform="scale(0.015625)"/>
       <path id="Georgia-71" d="M 3606 -1388 
L 1941 -1388 
L 1941 -1178 
Q 2038 -1172 2131 -1162 
Q 2225 -1153 2300 -1131 
Q 2397 -1100 2434 -1022 
Q 2472 -944 2472 -838 
L 2472 300 
L 2453 306 
Q 2403 250 2311 176 
Q 2219 103 2119 56 
Q 1994 -9 1878 -45 
Q 1763 -81 1588 -81 
Q 1306 -81 1057 36 
Q 809 153 625 369 
Q 441 581 333 892 
Q 225 1203 225 1575 
Q 225 1928 350 2217 
Q 475 2506 681 2722 
Q 878 2925 1154 3045 
Q 1431 3166 1703 3166 
Q 1906 3166 2064 3127 
Q 2222 3088 2334 3034 
Q 2431 2994 2528 2930 
Q 2625 2866 2666 2844 
L 2931 3250 
L 3109 3225 
Q 3097 2994 3076 2656 
Q 3056 2319 3056 2066 
L 3056 -784 
Q 3056 -894 3097 -973 
Q 3138 -1053 3228 -1094 
Q 3303 -1125 3418 -1148 
Q 3534 -1172 3606 -1178 
L 3606 -1388 
z
M 2472 572 
L 2472 2413 
Q 2447 2491 2387 2586 
Q 2328 2681 2247 2753 
Q 2159 2828 2032 2878 
Q 1906 2928 1741 2928 
Q 1375 2928 1126 2550 
Q 878 2172 878 1509 
Q 878 1247 926 1034 
Q 975 822 1094 638 
Q 1206 463 1378 358 
Q 1550 253 1813 253 
Q 2038 253 2197 348 
Q 2356 444 2472 572 
z
" transform="scale(0.015625)"/>
       <path id="Georgia-6e" d="M 3628 0 
L 2119 0 
L 2119 206 
Q 2191 213 2277 219 
Q 2363 225 2419 244 
Q 2506 272 2548 342 
Q 2591 413 2591 525 
L 2591 2109 
Q 2591 2438 2436 2616 
Q 2281 2794 2059 2794 
Q 1894 2794 1756 2742 
Q 1619 2691 1513 2616 
Q 1409 2544 1348 2461 
Q 1288 2378 1259 2328 
L 1259 556 
Q 1259 450 1303 381 
Q 1347 313 1434 275 
Q 1500 244 1576 228 
Q 1653 213 1734 206 
L 1734 0 
L 225 0 
L 225 206 
Q 297 213 373 219 
Q 450 225 506 244 
Q 594 272 636 342 
Q 678 413 678 525 
L 678 2428 
Q 678 2534 633 2623 
Q 588 2713 506 2769 
Q 447 2806 365 2823 
Q 284 2841 191 2847 
L 191 3050 
L 1216 3119 
L 1259 3075 
L 1259 2641 
L 1275 2641 
Q 1350 2716 1462 2820 
Q 1575 2925 1675 2991 
Q 1791 3066 1950 3116 
Q 2109 3166 2309 3166 
Q 2753 3166 2967 2889 
Q 3181 2613 3181 2153 
L 3181 550 
Q 3181 441 3218 373 
Q 3256 306 3347 269 
Q 3422 238 3476 225 
Q 3531 213 3628 206 
L 3628 0 
z
" transform="scale(0.015625)"/>
       <path id="Georgia-67" d="M 2866 319 
Q 2991 200 3062 50 
Q 3134 -100 3134 -322 
Q 3134 -544 3037 -739 
Q 2941 -934 2744 -1078 
Q 2534 -1225 2243 -1306 
Q 1953 -1388 1525 -1388 
Q 825 -1388 478 -1183 
Q 131 -978 131 -584 
Q 131 -266 381 -81 
Q 631 103 1019 119 
L 1019 163 
Q 925 191 825 233 
Q 725 275 653 331 
Q 572 397 522 486 
Q 472 575 472 706 
Q 472 872 589 1011 
Q 706 1150 944 1250 
L 944 1297 
Q 644 1438 478 1658 
Q 313 1878 313 2169 
Q 313 2606 639 2887 
Q 966 3169 1475 3169 
Q 1616 3169 1755 3141 
Q 1894 3113 2038 3069 
L 3113 3069 
L 3113 2769 
L 2388 2769 
L 2388 2750 
Q 2503 2616 2559 2453 
Q 2616 2291 2616 2134 
Q 2616 1728 2286 1447 
Q 1956 1166 1519 1166 
L 1141 1166 
Q 1069 1141 991 1075 
Q 913 1009 913 897 
Q 913 781 978 720 
Q 1044 659 1138 638 
Q 1228 613 1348 606 
Q 1469 600 1597 597 
Q 1734 594 1973 578 
Q 2213 563 2313 559 
Q 2456 553 2601 490 
Q 2747 428 2866 319 
z
M 2022 2147 
Q 2022 2513 1873 2730 
Q 1725 2947 1456 2947 
Q 1309 2947 1204 2886 
Q 1100 2825 1034 2713 
Q 972 2609 945 2464 
Q 919 2319 919 2166 
Q 919 1819 1070 1600 
Q 1222 1381 1463 1381 
Q 1731 1381 1876 1598 
Q 2022 1816 2022 2147 
z
M 2622 -438 
Q 2622 -263 2540 -150 
Q 2459 -38 2294 3 
Q 2206 16 1934 31 
Q 1663 47 1303 47 
Q 966 -19 823 -173 
Q 681 -328 681 -572 
Q 681 -681 728 -781 
Q 775 -881 891 -966 
Q 1000 -1047 1184 -1098 
Q 1369 -1150 1634 -1150 
Q 2094 -1150 2358 -973 
Q 2622 -797 2622 -438 
z
" transform="scale(0.015625)"/>
      </defs>
      <use xlink:href="#Georgia-59"/>
      <use xlink:href="#Georgia-6f" transform="translate(61.523438 0)"/>
      <use xlink:href="#Georgia-75" transform="translate(115.429688 0)"/>
      <use xlink:href="#Georgia-72" transform="translate(172.949219 0)"/>
      <use xlink:href="#Georgia-20" transform="translate(213.916016 0)"/>
      <use xlink:href="#Georgia-6d" transform="translate(238.037109 0)"/>
      <use xlink:href="#Georgia-6f" transform="translate(326.123047 0)"/>
      <use xlink:href="#Georgia-73" transform="translate(380.029297 0)"/>
      <use xlink:href="#Georgia-74" transform="translate(423.242188 0)"/>
      <use xlink:href="#Georgia-20" transform="translate(457.763672 0)"/>
      <use xlink:href="#Georgia-66" transform="translate(481.884766 0)"/>
      <use xlink:href="#Georgia-72" transform="translate(514.404297 0)"/>
      <use xlink:href="#Georgia-65" transform="translate(555.371094 0)"/>
      <use xlink:href="#Georgia-71" transform="translate(603.710938 0)"/>
      <use xlink:href="#Georgia-75" transform="translate(659.667969 0)"/>
      <use xlink:href="#Georgia-65" transform="translate(717.1875 0)"/>
      <use xlink:href="#Georgia-6e" transform="translate(765.527344 0)"/>
      <use xlink:href="#Georgia-74" transform="translate(824.609375 0)"/>
      <use xlink:href="#Georgia-20" transform="translate(859.130859 0)"/>
      <use xlink:href="#Georgia-65" transform="translate(883.251953 0)"/>
      <use xlink:href="#Georgia-6c" transform="translate(931.591797 0)"/>
      <use xlink:href="#Georgia-61" transform="translate(960.205078 0)"/>
      <use xlink:href="#Georgia-70" transform="translate(1010.595703 0)"/>
      <use xlink:href="#Georgia-73" transform="translate(1067.724609 0)"/>
      <use xlink:href="#Georgia-65" transform="translate(1110.9375 0)"/>
      <use xlink:href="#Georgia-64" transform="translate(1159.277344 0)"/>
      <use xlink:href="#Georgia-20" transform="translate(1216.699219 0)"/>
      <use xlink:href="#Georgia-72" transform="translate(1240.820312 0)"/>
      <use xlink:href="#Georgia-75" transform="translate(1281.787109 0)"/>
      <use xlink:href="#Georgia-6e" transform="translate(1339.306641 0)"/>
      <use xlink:href="#Georgia-6e" transform="translate(1398.388672 0)"/>
      <use xlink:href="#Georgia-69" transform="translate(1457.470703 0)"/>
      <use xlink:href="#Georgia-6e" transform="translate(1486.767578 0)"/>
      <use xlink:href="#Georgia-67" transform="translate(1545.849609 0)"/>
     </g>
    </g>
    <g id="text_16">
     <!-- time was around  -->
     <g transform="translate(374.013279 263.041198) scale(0.11 -0.11)">
      <defs>
       <path id="Georgia-77" d="M 4816 2881 
Q 4684 2869 4532 2772 
Q 4381 2675 4313 2481 
Q 4156 2022 4017 1611 
Q 3878 1200 3706 688 
Q 3650 525 3592 337 
Q 3534 150 3488 -22 
L 3219 -22 
L 2391 2247 
L 1556 -22 
L 1300 -22 
Q 1066 672 842 1355 
Q 619 2038 447 2544 
Q 397 2691 256 2775 
Q 116 2859 -16 2875 
L -16 3081 
L 1359 3081 
L 1359 2863 
Q 1256 2859 1136 2828 
Q 1016 2797 1016 2725 
Q 1016 2713 1027 2672 
Q 1038 2631 1053 2584 
Q 1153 2256 1279 1851 
Q 1406 1447 1606 800 
L 2394 3019 
L 2694 3019 
L 3497 831 
Q 3631 1250 3764 1642 
Q 3897 2034 3997 2378 
Q 4019 2459 4039 2526 
Q 4059 2594 4059 2659 
Q 4059 2716 4009 2759 
Q 3959 2803 3888 2831 
Q 3825 2856 3751 2868 
Q 3678 2881 3644 2881 
L 3644 3081 
L 4816 3081 
L 4816 2881 
z
" transform="scale(0.015625)"/>
      </defs>
      <use xlink:href="#Georgia-74"/>
      <use xlink:href="#Georgia-69" transform="translate(34.521484 0)"/>
      <use xlink:href="#Georgia-6d" transform="translate(63.818359 0)"/>
      <use xlink:href="#Georgia-65" transform="translate(151.904297 0)"/>
      <use xlink:href="#Georgia-20" transform="translate(200.244141 0)"/>
      <use xlink:href="#Georgia-77" transform="translate(224.365234 0)"/>
      <use xlink:href="#Georgia-61" transform="translate(298.095703 0)"/>
      <use xlink:href="#Georgia-73" transform="translate(348.486328 0)"/>
      <use xlink:href="#Georgia-20" transform="translate(391.699219 0)"/>
      <use xlink:href="#Georgia-61" transform="translate(415.820312 0)"/>
      <use xlink:href="#Georgia-72" transform="translate(466.210938 0)"/>
      <use xlink:href="#Georgia-6f" transform="translate(507.177734 0)"/>
      <use xlink:href="#Georgia-75" transform="translate(561.083984 0)"/>
      <use xlink:href="#Georgia-6e" transform="translate(618.603516 0)"/>
      <use xlink:href="#Georgia-64" transform="translate(677.685547 0)"/>
      <use xlink:href="#Georgia-20" transform="translate(735.107422 0)"/>
     </g>
    </g>
    <g id="text_17">
     <!-- 57.8 mins -->
     <g style="fill: #0f542f" transform="translate(457.530779 263.041198) scale(0.11 -0.11)">
      <defs>
       <path id="Georgia-Bold-35" d="M 3013 1481 
Q 3247 1325 3406 1061 
Q 3566 797 3566 406 
Q 3566 -281 3033 -717 
Q 2500 -1153 1672 -1153 
Q 1031 -1153 603 -878 
Q 175 -603 175 -228 
Q 175 -6 317 147 
Q 459 300 697 300 
Q 944 300 1101 167 
Q 1259 34 1259 -188 
Q 1259 -344 1206 -528 
Q 1153 -713 1119 -809 
Q 1194 -838 1294 -852 
Q 1394 -866 1481 -866 
Q 1659 -866 1831 -786 
Q 2003 -706 2125 -553 
Q 2266 -378 2337 -139 
Q 2409 100 2409 403 
Q 2409 844 2173 1126 
Q 1938 1409 1563 1409 
Q 1272 1409 1075 1292 
Q 878 1175 722 984 
L 478 1066 
L 781 3366 
L 3422 3366 
L 3422 2503 
L 1006 2503 
L 878 1472 
Q 1047 1578 1312 1675 
Q 1578 1772 1938 1772 
Q 2216 1772 2486 1711 
Q 2756 1650 3013 1481 
z
" transform="scale(0.015625)"/>
       <path id="Georgia-Bold-37" d="M 3575 2994 
L 1300 -1153 
L 831 -1153 
L 2938 2525 
L 1506 2525 
Q 1234 2525 1081 2522 
Q 928 2519 800 2459 
Q 697 2413 623 2242 
Q 550 2072 506 1825 
L 278 1825 
L 278 3366 
L 3575 3366 
L 3575 2994 
z
" transform="scale(0.015625)"/>
       <path id="Georgia-Bold-2e" d="M 1669 519 
Q 1669 272 1486 90 
Q 1303 -91 1053 -91 
Q 800 -91 617 89 
Q 434 269 434 519 
Q 434 769 617 951 
Q 800 1134 1053 1134 
Q 1303 1134 1486 950 
Q 1669 766 1669 519 
z
" transform="scale(0.015625)"/>
       <path id="Georgia-Bold-38" d="M 4003 1241 
Q 4003 666 3489 275 
Q 2975 -116 2091 -116 
Q 1300 -116 812 218 
Q 325 553 325 1075 
Q 325 1478 586 1739 
Q 847 2000 1409 2131 
Q 959 2334 729 2643 
Q 500 2953 500 3334 
Q 500 3856 998 4209 
Q 1497 4563 2231 4563 
Q 2944 4563 3386 4250 
Q 3828 3938 3828 3475 
Q 3828 3119 3587 2876 
Q 3347 2634 2869 2491 
Q 3469 2275 3736 1961 
Q 4003 1647 4003 1241 
z
M 2784 3481 
Q 2784 3844 2623 4067 
Q 2463 4291 2175 4291 
Q 1903 4291 1725 4100 
Q 1547 3909 1547 3613 
Q 1547 3406 1625 3267 
Q 1703 3128 1847 3025 
Q 1978 2928 2217 2812 
Q 2456 2697 2644 2603 
Q 2713 2759 2748 2986 
Q 2784 3213 2784 3481 
z
M 2953 925 
Q 2953 1144 2859 1287 
Q 2766 1431 2591 1547 
Q 2416 1659 2145 1778 
Q 1875 1897 1631 2019 
Q 1528 1897 1450 1653 
Q 1372 1409 1372 1138 
Q 1372 678 1594 418 
Q 1816 159 2178 159 
Q 2541 159 2747 371 
Q 2953 584 2953 925 
z
" transform="scale(0.015625)"/>
       <path id="Georgia-Bold-20" transform="scale(0.015625)"/>
       <path id="Georgia-Bold-6d" d="M 6391 0 
L 4528 0 
L 4528 228 
Q 4597 238 4672 244 
Q 4747 250 4797 275 
Q 4866 306 4884 379 
Q 4903 453 4903 569 
L 4903 2028 
Q 4903 2350 4789 2511 
Q 4675 2672 4463 2672 
Q 4328 2672 4223 2630 
Q 4119 2588 4031 2525 
Q 3941 2459 3891 2393 
Q 3841 2328 3806 2281 
L 3806 603 
Q 3806 491 3832 420 
Q 3859 350 3931 309 
Q 3981 281 4045 259 
Q 4109 238 4181 228 
L 4181 0 
L 2397 0 
L 2397 228 
Q 2456 234 2540 243 
Q 2625 253 2666 275 
Q 2731 309 2751 375 
Q 2772 441 2772 569 
L 2772 2028 
Q 2772 2350 2658 2511 
Q 2544 2672 2331 2672 
Q 2197 2672 2092 2630 
Q 1988 2588 1900 2525 
Q 1809 2459 1759 2393 
Q 1709 2328 1675 2281 
L 1675 603 
Q 1675 494 1703 422 
Q 1731 350 1803 309 
Q 1853 281 1917 259 
Q 1981 238 2053 228 
L 2053 0 
L 181 0 
L 181 228 
Q 263 234 341 243 
Q 419 253 475 275 
Q 575 313 612 383 
Q 650 453 650 569 
L 650 2388 
Q 650 2488 597 2583 
Q 544 2678 469 2731 
Q 413 2769 327 2794 
Q 241 2819 138 2828 
L 138 3056 
L 1628 3138 
L 1675 3091 
L 1675 2650 
L 1688 2650 
Q 1775 2728 1895 2836 
Q 2016 2944 2122 3009 
Q 2238 3084 2419 3134 
Q 2600 3184 2816 3184 
Q 3172 3184 3411 3029 
Q 3650 2875 3750 2619 
L 3778 2619 
Q 3869 2703 4000 2817 
Q 4131 2931 4241 3000 
Q 4363 3078 4552 3131 
Q 4741 3184 4956 3184 
Q 5428 3184 5683 2906 
Q 5938 2628 5938 2116 
L 5938 597 
Q 5938 481 5972 411 
Q 6006 341 6097 303 
Q 6147 281 6220 259 
Q 6294 238 6391 228 
L 6391 0 
z
" transform="scale(0.015625)"/>
       <path id="Georgia-Bold-69" d="M 2156 0 
L 181 0 
L 181 228 
Q 263 234 341 243 
Q 419 253 475 275 
Q 575 313 615 383 
Q 656 453 656 569 
L 656 2388 
Q 656 2497 606 2580 
Q 556 2663 481 2713 
Q 425 2750 311 2784 
Q 197 2819 103 2828 
L 103 3056 
L 1634 3138 
L 1681 3091 
L 1681 609 
Q 1681 500 1728 423 
Q 1775 347 1863 309 
Q 1925 281 2000 259 
Q 2075 238 2156 228 
L 2156 0 
z
M 1700 4263 
Q 1700 4025 1517 3858 
Q 1334 3691 1084 3691 
Q 831 3691 648 3858 
Q 466 4025 466 4263 
Q 466 4500 648 4669 
Q 831 4838 1084 4838 
Q 1338 4838 1519 4669 
Q 1700 4500 1700 4263 
z
" transform="scale(0.015625)"/>
       <path id="Georgia-Bold-6e" d="M 4306 0 
L 2425 0 
L 2425 228 
Q 2484 234 2568 243 
Q 2653 253 2697 275 
Q 2763 309 2791 375 
Q 2819 441 2819 569 
L 2819 2031 
Q 2819 2350 2701 2511 
Q 2584 2672 2356 2672 
Q 2231 2672 2123 2634 
Q 2016 2597 1913 2525 
Q 1822 2463 1767 2397 
Q 1713 2331 1675 2281 
L 1675 603 
Q 1675 494 1706 420 
Q 1738 347 1809 309 
Q 1859 281 1934 259 
Q 2009 238 2081 228 
L 2081 0 
L 181 0 
L 181 228 
Q 259 234 339 245 
Q 419 256 475 275 
Q 575 309 612 381 
Q 650 453 650 569 
L 650 2388 
Q 650 2484 600 2578 
Q 550 2672 469 2731 
Q 413 2769 327 2794 
Q 241 2819 138 2828 
L 138 3056 
L 1628 3138 
L 1675 3091 
L 1675 2638 
L 1688 2638 
Q 1775 2716 1900 2825 
Q 2025 2934 2131 3003 
Q 2247 3078 2434 3131 
Q 2622 3184 2834 3184 
Q 3344 3184 3598 2895 
Q 3853 2606 3853 2128 
L 3853 597 
Q 3853 481 3887 412 
Q 3922 344 4016 303 
Q 4066 281 4139 259 
Q 4213 238 4306 228 
L 4306 0 
z
" transform="scale(0.015625)"/>
       <path id="Georgia-Bold-73" d="M 1628 -106 
Q 1325 -106 1036 -17 
Q 747 72 588 172 
L 494 -41 
L 250 -41 
L 209 1125 
L 438 1125 
Q 484 984 593 807 
Q 703 631 844 491 
Q 991 350 1180 253 
Q 1369 156 1584 156 
Q 1869 156 2008 267 
Q 2147 378 2147 609 
Q 2147 734 2084 815 
Q 2022 897 1913 956 
Q 1791 1019 1645 1062 
Q 1500 1106 1288 1169 
Q 1075 1231 923 1295 
Q 772 1359 609 1497 
Q 469 1619 384 1791 
Q 300 1963 300 2200 
Q 300 2641 670 2912 
Q 1041 3184 1641 3184 
Q 1925 3184 2164 3126 
Q 2403 3069 2566 3000 
L 2631 3184 
L 2869 3184 
L 2919 2119 
L 2697 2119 
Q 2588 2444 2322 2680 
Q 2056 2916 1750 2916 
Q 1509 2916 1371 2816 
Q 1234 2716 1234 2538 
Q 1234 2300 1436 2194 
Q 1638 2088 2000 1994 
Q 2559 1850 2818 1601 
Q 3078 1353 3078 969 
Q 3078 456 2676 175 
Q 2275 -106 1628 -106 
z
" transform="scale(0.015625)"/>
      </defs>
      <use xlink:href="#Georgia-Bold-35"/>
      <use xlink:href="#Georgia-Bold-37" transform="translate(59.912109 0)"/>
      <use xlink:href="#Georgia-Bold-2e" transform="translate(115.332031 0)"/>
      <use xlink:href="#Georgia-Bold-38" transform="translate(148.144531 0)"/>
      <use xlink:href="#Georgia-Bold-20" transform="translate(215.771484 0)"/>
      <use xlink:href="#Georgia-Bold-6d" transform="translate(241.162109 0)"/>
      <use xlink:href="#Georgia-Bold-69" transform="translate(342.724609 0)"/>
      <use xlink:href="#Georgia-Bold-6e" transform="translate(378.076172 0)"/>
      <use xlink:href="#Georgia-Bold-73" transform="translate(447.070312 0)"/>
     </g>
    </g>
   </g>
   <g id="AnnotationBbox_2">
    <g id="text_18">
     <!-- Distribution of Your  -->
     <g transform="translate(48.000938 26.71875) scale(0.2 -0.2)">
      <defs>
       <path id="Georgia-Bold-44" d="M 4209 3978 
Q 4616 3713 4866 3270 
Q 5116 2828 5116 2188 
Q 5116 1625 4892 1208 
Q 4669 791 4300 525 
Q 3925 259 3448 129 
Q 2972 0 2450 0 
L 216 0 
L 216 244 
Q 316 247 466 262 
Q 616 278 666 300 
Q 778 347 822 426 
Q 866 506 866 619 
L 866 3763 
Q 866 3869 825 3955 
Q 784 4041 666 4094 
Q 547 4147 414 4165 
Q 281 4184 209 4191 
L 209 4434 
L 2569 4434 
Q 2947 4434 3378 4337 
Q 3809 4241 4209 3978 
z
M 3572 800 
Q 3725 1050 3795 1395 
Q 3866 1741 3866 2191 
Q 3866 2631 3772 2993 
Q 3678 3356 3497 3613 
Q 3316 3869 3045 4009 
Q 2775 4150 2431 4150 
Q 2322 4150 2183 4145 
Q 2044 4141 1975 4138 
L 1975 772 
Q 1975 659 2004 573 
Q 2034 488 2106 422 
Q 2178 356 2283 320 
Q 2388 284 2556 284 
Q 2909 284 3162 415 
Q 3416 547 3572 800 
z
" transform="scale(0.015625)"/>
       <path id="Georgia-Bold-74" d="M 2506 144 
Q 2306 56 2078 -14 
Q 1850 -84 1522 -84 
Q 1034 -84 798 153 
Q 563 391 563 831 
L 563 2750 
L 0 2750 
L 0 3088 
L 575 3088 
L 575 4034 
L 1591 4034 
L 1591 3088 
L 2466 3088 
L 2466 2750 
L 1597 2750 
L 1597 1038 
Q 1597 672 1698 519 
Q 1800 366 2063 366 
Q 2147 366 2297 378 
Q 2447 391 2506 406 
L 2506 144 
z
" transform="scale(0.015625)"/>
       <path id="Georgia-Bold-72" d="M 3294 2528 
Q 3294 2291 3147 2111 
Q 3000 1931 2759 1931 
Q 2531 1931 2373 2047 
Q 2216 2163 2216 2388 
Q 2216 2497 2231 2558 
Q 2247 2619 2259 2672 
Q 2116 2666 1956 2572 
Q 1797 2478 1675 2322 
L 1675 606 
Q 1675 497 1709 425 
Q 1744 353 1825 313 
Q 1894 278 2048 254 
Q 2203 231 2272 228 
L 2272 0 
L 181 0 
L 181 228 
Q 259 234 339 245 
Q 419 256 475 275 
Q 575 309 612 381 
Q 650 453 650 569 
L 650 2388 
Q 650 2500 597 2589 
Q 544 2678 469 2731 
Q 413 2769 327 2794 
Q 241 2819 138 2828 
L 138 3056 
L 1628 3138 
L 1675 3091 
L 1675 2638 
L 1688 2638 
Q 1903 2888 2145 3030 
Q 2388 3172 2650 3172 
Q 2941 3172 3117 2992 
Q 3294 2813 3294 2528 
z
" transform="scale(0.015625)"/>
       <path id="Georgia-Bold-62" d="M 3909 1528 
Q 3909 825 3445 362 
Q 2981 -100 2269 -100 
Q 1994 -100 1795 -61 
Q 1597 -22 1459 34 
Q 1316 94 1230 151 
Q 1144 209 1094 247 
L 647 -159 
L 463 -88 
Q 478 141 489 408 
Q 500 675 500 1128 
L 500 4053 
Q 500 4172 451 4273 
Q 403 4375 322 4428 
Q 263 4466 148 4494 
Q 34 4522 -63 4528 
L -63 4756 
L 1481 4838 
L 1528 4788 
L 1528 2756 
L 1547 2756 
Q 1775 2978 2015 3081 
Q 2256 3184 2497 3184 
Q 3153 3184 3531 2737 
Q 3909 2291 3909 1528 
z
M 2788 1491 
Q 2788 1728 2752 1948 
Q 2716 2169 2631 2338 
Q 2547 2506 2409 2607 
Q 2272 2709 2069 2709 
Q 1878 2709 1753 2646 
Q 1628 2584 1528 2463 
L 1528 644 
Q 1547 581 1598 479 
Q 1650 378 1703 322 
Q 1778 241 1862 198 
Q 1947 156 2100 156 
Q 2419 156 2603 504 
Q 2788 853 2788 1491 
z
" transform="scale(0.015625)"/>
       <path id="Georgia-Bold-75" d="M 4259 66 
L 2769 -25 
L 2722 19 
L 2722 428 
L 2703 428 
Q 2597 331 2495 239 
Q 2394 147 2253 72 
Q 2094 -13 1951 -53 
Q 1809 -94 1538 -94 
Q 1066 -94 814 190 
Q 563 475 563 994 
L 563 2400 
Q 563 2522 516 2598 
Q 469 2675 391 2734 
Q 328 2781 228 2801 
Q 128 2822 47 2828 
L 47 3056 
L 1563 3138 
L 1597 3091 
L 1597 1013 
Q 1597 691 1720 537 
Q 1844 384 2059 384 
Q 2281 384 2457 500 
Q 2634 616 2716 747 
L 2716 2431 
Q 2716 2538 2675 2622 
Q 2634 2706 2556 2759 
Q 2500 2797 2395 2809 
Q 2291 2822 2181 2828 
L 2181 3056 
L 3697 3138 
L 3744 3091 
L 3744 678 
Q 3744 569 3787 492 
Q 3831 416 3916 363 
Q 3975 325 4070 311 
Q 4166 297 4259 294 
L 4259 66 
z
" transform="scale(0.015625)"/>
       <path id="Georgia-Bold-6f" d="M 3372 2731 
Q 3603 2516 3725 2216 
Q 3847 1916 3847 1566 
Q 3847 1219 3726 911 
Q 3606 603 3375 384 
Q 3128 150 2786 25 
Q 2444 -100 2003 -100 
Q 1622 -100 1301 9 
Q 981 119 734 338 
Q 497 547 359 855 
Q 222 1163 222 1544 
Q 222 1919 342 2211 
Q 463 2503 703 2731 
Q 934 2950 1273 3070 
Q 1613 3191 2031 3191 
Q 2469 3191 2801 3070 
Q 3134 2950 3372 2731 
z
M 2572 566 
Q 2641 741 2673 991 
Q 2706 1241 2706 1572 
Q 2706 1791 2675 2072 
Q 2644 2353 2581 2516 
Q 2506 2713 2373 2825 
Q 2241 2938 2038 2938 
Q 1816 2938 1683 2816 
Q 1550 2694 1478 2500 
Q 1413 2322 1388 2083 
Q 1363 1844 1363 1584 
Q 1363 1244 1384 1020 
Q 1406 797 1491 572 
Q 1563 378 1697 265 
Q 1831 153 2038 153 
Q 2225 153 2359 258 
Q 2494 363 2572 566 
z
" transform="scale(0.015625)"/>
       <path id="Georgia-Bold-66" d="M 3138 4309 
Q 3138 4231 3113 4137 
Q 3088 4044 3031 3978 
Q 2966 3900 2884 3859 
Q 2803 3819 2641 3819 
Q 2394 3819 2253 3991 
Q 2113 4163 1953 4563 
Q 1828 4509 1750 4287 
Q 1672 4066 1672 3334 
L 1672 3088 
L 2534 3088 
L 2534 2750 
L 1678 2750 
L 1678 597 
Q 1678 475 1734 408 
Q 1791 341 1881 309 
Q 1956 284 2078 261 
Q 2200 238 2297 228 
L 2297 0 
L 188 0 
L 188 228 
Q 269 234 345 243 
Q 422 253 481 275 
Q 581 313 617 383 
Q 653 453 653 569 
L 653 2750 
L 19 2750 
L 19 3088 
L 653 3088 
Q 653 3422 750 3736 
Q 847 4050 1050 4297 
Q 1247 4541 1569 4691 
Q 1891 4841 2325 4841 
Q 2713 4841 2925 4694 
Q 3138 4547 3138 4309 
z
" transform="scale(0.015625)"/>
       <path id="Georgia-Bold-59" d="M 4897 4191 
Q 4784 4178 4690 4150 
Q 4597 4122 4513 4072 
Q 4378 3997 4273 3880 
Q 4169 3763 4069 3619 
Q 3866 3322 3642 2973 
Q 3419 2625 3156 2206 
Q 2984 1941 2945 1798 
Q 2906 1656 2906 1306 
L 2906 678 
Q 2906 566 2948 481 
Q 2991 397 3109 344 
Q 3163 322 3334 286 
Q 3506 250 3588 244 
L 3588 0 
L 1116 0 
L 1116 244 
Q 1203 250 1367 269 
Q 1531 288 1597 313 
Q 1713 363 1755 445 
Q 1797 528 1797 647 
L 1797 1428 
Q 1797 1531 1794 1609 
Q 1791 1688 1772 1741 
Q 1750 1800 1697 1892 
Q 1644 1984 1559 2131 
Q 1319 2553 1094 2931 
Q 869 3309 666 3641 
Q 559 3813 451 3917 
Q 344 4022 231 4088 
Q 147 4134 26 4159 
Q -94 4184 -191 4191 
L -191 4434 
L 2350 4434 
L 2350 4191 
Q 2000 4181 1878 4142 
Q 1756 4103 1756 4034 
Q 1756 4000 1801 3897 
Q 1847 3794 1963 3578 
Q 2069 3375 2273 3019 
Q 2478 2663 2766 2184 
Q 3359 3125 3581 3498 
Q 3803 3872 3803 3956 
Q 3803 4063 3673 4119 
Q 3544 4175 3253 4191 
L 3253 4434 
L 4897 4434 
L 4897 4191 
z
" transform="scale(0.015625)"/>
      </defs>
      <use xlink:href="#Georgia-Bold-44"/>
      <use xlink:href="#Georgia-Bold-69" transform="translate(83.398438 0)"/>
      <use xlink:href="#Georgia-Bold-73" transform="translate(118.75 0)"/>
      <use xlink:href="#Georgia-Bold-74" transform="translate(170.019531 0)"/>
      <use xlink:href="#Georgia-Bold-72" transform="translate(209.765625 0)"/>
      <use xlink:href="#Georgia-Bold-69" transform="translate(261.767578 0)"/>
      <use xlink:href="#Georgia-Bold-62" transform="translate(297.119141 0)"/>
      <use xlink:href="#Georgia-Bold-75" transform="translate(361.669922 0)"/>
      <use xlink:href="#Georgia-Bold-74" transform="translate(429.345703 0)"/>
      <use xlink:href="#Georgia-Bold-69" transform="translate(469.091797 0)"/>
      <use xlink:href="#Georgia-Bold-6f" transform="translate(504.443359 0)"/>
      <use xlink:href="#Georgia-Bold-6e" transform="translate(568.017578 0)"/>
      <use xlink:href="#Georgia-Bold-20" transform="translate(637.011719 0)"/>
      <use xlink:href="#Georgia-Bold-6f" transform="translate(662.402344 0)"/>
      <use xlink:href="#Georgia-Bold-66" transform="translate(725.976562 0)"/>
      <use xlink:href="#Georgia-Bold-20" transform="translate(765.283203 0)"/>
      <use xlink:href="#Georgia-Bold-59" transform="translate(790.673828 0)"/>
      <use xlink:href="#Georgia-Bold-6f" transform="translate(863.867188 0)"/>
      <use xlink:href="#Georgia-Bold-75" transform="translate(927.441406 0)"/>
      <use xlink:href="#Georgia-Bold-72" transform="translate(995.117188 0)"/>
      <use xlink:href="#Georgia-Bold-20" transform="translate(1047.119141 0)"/>
     </g>
    </g>
    <g id="text_19">
     <!-- Running Duration -->
     <g style="fill: #c38961" transform="translate(262.510312 26.71875) scale(0.2 -0.2)">
      <defs>
       <path id="Georgia-Bold-52" d="M 5306 0 
L 3606 0 
Q 3166 675 2873 1075 
Q 2581 1475 2147 2000 
L 1975 2000 
L 1975 653 
Q 1975 541 2017 462 
Q 2059 384 2178 331 
Q 2238 306 2364 279 
Q 2491 253 2581 244 
L 2581 0 
L 216 0 
L 216 244 
Q 306 253 454 270 
Q 603 288 666 313 
Q 784 363 825 439 
Q 866 516 866 634 
L 866 3763 
Q 866 3875 831 3950 
Q 797 4025 666 4081 
Q 566 4122 430 4150 
Q 294 4178 216 4191 
L 216 4434 
L 2703 4434 
Q 3538 4434 3970 4173 
Q 4403 3913 4403 3384 
Q 4403 2919 4136 2636 
Q 3869 2353 3322 2194 
Q 3534 1919 3817 1556 
Q 4100 1194 4406 816 
Q 4503 694 4670 517 
Q 4838 341 4966 300 
Q 5038 278 5148 262 
Q 5259 247 5306 244 
L 5306 0 
z
M 3178 3297 
Q 3178 3741 2929 3945 
Q 2681 4150 2222 4150 
L 1975 4150 
L 1975 2294 
L 2213 2294 
Q 2672 2294 2925 2534 
Q 3178 2775 3178 3297 
z
" transform="scale(0.015625)"/>
       <path id="Georgia-Bold-67" d="M 3681 2750 
L 2994 2750 
Q 3116 2613 3177 2459 
Q 3238 2306 3238 2141 
Q 3238 1925 3122 1736 
Q 3006 1547 2819 1428 
Q 2628 1306 2372 1237 
Q 2116 1169 1816 1169 
L 1306 1169 
Q 1269 1141 1223 1080 
Q 1178 1019 1178 963 
Q 1178 825 1287 772 
Q 1397 719 1684 713 
Q 1969 706 2259 689 
Q 2550 672 2675 669 
Q 2856 659 3034 595 
Q 3213 531 3344 428 
Q 3488 319 3581 148 
Q 3675 -22 3675 -244 
Q 3675 -481 3561 -690 
Q 3447 -900 3213 -1053 
Q 2966 -1213 2620 -1300 
Q 2275 -1388 1766 -1388 
Q 944 -1388 516 -1188 
Q 88 -988 88 -588 
Q 88 -341 319 -181 
Q 550 -22 1038 -6 
L 1038 31 
Q 750 128 589 289 
Q 428 450 428 663 
Q 428 794 492 884 
Q 556 975 656 1044 
Q 744 1103 869 1145 
Q 994 1188 1078 1213 
L 1078 1247 
Q 656 1403 457 1628 
Q 259 1853 259 2178 
Q 259 2638 682 2913 
Q 1106 3188 1756 3188 
Q 1969 3188 2167 3152 
Q 2366 3116 2469 3088 
L 3681 3088 
L 3681 2750 
z
M 2216 2153 
Q 2216 2519 2100 2731 
Q 1984 2944 1744 2944 
Q 1622 2944 1531 2886 
Q 1441 2828 1384 2719 
Q 1331 2613 1312 2470 
Q 1294 2328 1294 2178 
Q 1294 1838 1412 1619 
Q 1531 1400 1750 1400 
Q 1975 1400 2095 1597 
Q 2216 1794 2216 2153 
z
M 2741 -472 
Q 2741 -366 2681 -261 
Q 2622 -156 2416 -91 
Q 2303 -72 2045 -65 
Q 1788 -59 1338 -59 
Q 1228 -153 1154 -281 
Q 1081 -409 1081 -591 
Q 1081 -669 1125 -762 
Q 1169 -856 1263 -938 
Q 1372 -1028 1506 -1079 
Q 1641 -1131 1913 -1131 
Q 2316 -1131 2528 -975 
Q 2741 -819 2741 -472 
z
" transform="scale(0.015625)"/>
       <path id="Georgia-Bold-61" d="M 3753 66 
Q 3616 6 3428 -44 
Q 3241 -94 3031 -94 
Q 2647 -94 2465 20 
Q 2284 134 2219 347 
L 2200 347 
Q 2094 241 1995 166 
Q 1897 91 1784 38 
Q 1638 -31 1502 -64 
Q 1366 -97 1122 -97 
Q 759 -97 503 117 
Q 247 331 247 684 
Q 247 888 303 1030 
Q 359 1172 463 1281 
Q 556 1381 679 1447 
Q 803 1513 950 1569 
Q 1231 1672 1625 1783 
Q 2019 1894 2200 1981 
L 2200 2281 
Q 2200 2359 2187 2487 
Q 2175 2616 2134 2703 
Q 2091 2803 1997 2872 
Q 1903 2941 1750 2941 
Q 1613 2941 1520 2902 
Q 1428 2863 1372 2822 
Q 1381 2759 1425 2631 
Q 1469 2503 1469 2384 
Q 1469 2331 1441 2251 
Q 1413 2172 1359 2125 
Q 1288 2063 1198 2028 
Q 1109 1994 925 1994 
Q 663 1994 528 2120 
Q 394 2247 394 2450 
Q 394 2625 533 2764 
Q 672 2903 872 2994 
Q 1069 3088 1325 3139 
Q 1581 3191 1800 3191 
Q 2103 3191 2356 3155 
Q 2609 3119 2813 3006 
Q 3006 2897 3120 2689 
Q 3234 2481 3234 2147 
Q 3234 1794 3220 1309 
Q 3206 825 3206 672 
Q 3206 531 3248 450 
Q 3291 369 3378 328 
Q 3431 303 3545 298 
Q 3659 294 3753 294 
L 3753 66 
z
M 2200 1694 
Q 2025 1634 1853 1557 
Q 1681 1481 1572 1397 
Q 1456 1309 1390 1173 
Q 1325 1038 1325 853 
Q 1325 609 1436 500 
Q 1547 391 1709 391 
Q 1881 391 1992 461 
Q 2103 531 2188 634 
L 2200 1694 
z
" transform="scale(0.015625)"/>
      </defs>
      <use xlink:href="#Georgia-Bold-52"/>
      <use xlink:href="#Georgia-Bold-75" transform="translate(79.736328 0)"/>
      <use xlink:href="#Georgia-Bold-6e" transform="translate(147.412109 0)"/>
      <use xlink:href="#Georgia-Bold-6e" transform="translate(216.40625 0)"/>
      <use xlink:href="#Georgia-Bold-69" transform="translate(285.400391 0)"/>
      <use xlink:href="#Georgia-Bold-6e" transform="translate(320.751953 0)"/>
      <use xlink:href="#Georgia-Bold-67" transform="translate(389.746094 0)"/>
      <use xlink:href="#Georgia-Bold-20" transform="translate(447.412109 0)"/>
      <use xlink:href="#Georgia-Bold-44" transform="translate(472.802734 0)"/>
      <use xlink:href="#Georgia-Bold-75" transform="translate(556.201172 0)"/>
      <use xlink:href="#Georgia-Bold-72" transform="translate(623.876953 0)"/>
      <use xlink:href="#Georgia-Bold-61" transform="translate(675.878906 0)"/>
      <use xlink:href="#Georgia-Bold-74" transform="translate(735.449219 0)"/>
      <use xlink:href="#Georgia-Bold-69" transform="translate(775.195312 0)"/>
      <use xlink:href="#Georgia-Bold-6f" transform="translate(810.546875 0)"/>
      <use xlink:href="#Georgia-Bold-6e" transform="translate(874.121094 0)"/>
     </g>
    </g>
   </g>
  </g>
  <g id="text_20">
   <!-- Visualise how long you typically run (elapsed time) across your recorded running activities -->
   <g style="fill: #6e6e6e" transform="translate(48.000938 50.156) scale(0.12 -0.12)">
    <defs>
     <path id="Georgia-56" d="M 4397 4213 
Q 4316 4209 4200 4176 
Q 4084 4144 4009 4097 
Q 3903 4031 3839 3928 
Q 3775 3825 3713 3684 
Q 3503 3188 3084 2136 
Q 2666 1084 2222 -56 
L 1963 -56 
Q 1513 1153 1094 2275 
Q 675 3397 525 3791 
Q 488 3888 425 3961 
Q 363 4034 259 4100 
Q 175 4153 72 4179 
Q -31 4206 -119 4213 
L -119 4434 
L 1716 4434 
L 1716 4213 
Q 1481 4200 1320 4165 
Q 1159 4131 1159 4044 
Q 1159 4009 1171 3962 
Q 1184 3916 1194 3888 
Q 1309 3581 1568 2889 
Q 1828 2197 2306 919 
Q 2544 1497 2853 2284 
Q 3163 3072 3269 3366 
Q 3372 3650 3389 3759 
Q 3406 3869 3406 3938 
Q 3406 4009 3342 4057 
Q 3278 4106 3172 4141 
Q 3069 4172 2962 4187 
Q 2856 4203 2747 4213 
L 2747 4434 
L 4397 4434 
L 4397 4213 
z
" transform="scale(0.015625)"/>
     <path id="Georgia-79" d="M -9 -1006 
Q -9 -850 77 -751 
Q 163 -653 291 -653 
Q 391 -653 462 -690 
Q 534 -728 591 -788 
Q 638 -834 691 -915 
Q 744 -997 775 -1050 
Q 931 -966 1148 -609 
Q 1366 -253 1463 16 
Q 1166 756 925 1340 
Q 684 1925 422 2550 
Q 363 2694 222 2773 
Q 81 2853 -59 2875 
L -59 3081 
L 1347 3081 
L 1347 2863 
Q 1253 2859 1122 2823 
Q 991 2788 991 2741 
Q 991 2722 1005 2678 
Q 1019 2634 1038 2588 
Q 1156 2278 1400 1695 
Q 1644 1113 1778 763 
Q 1919 1097 2070 1455 
Q 2222 1813 2409 2300 
Q 2431 2359 2472 2464 
Q 2513 2569 2513 2644 
Q 2513 2725 2370 2795 
Q 2228 2866 2100 2881 
L 2100 3081 
L 3244 3081 
L 3244 2888 
Q 3150 2872 2997 2780 
Q 2844 2688 2769 2519 
Q 2397 1656 2108 947 
Q 1819 238 1669 -97 
Q 1472 -534 1317 -779 
Q 1163 -1025 1016 -1166 
Q 872 -1297 755 -1342 
Q 638 -1388 513 -1388 
Q 269 -1388 130 -1272 
Q -9 -1156 -9 -1006 
z
" transform="scale(0.015625)"/>
    </defs>
    <use xlink:href="#Georgia-56"/>
    <use xlink:href="#Georgia-69" transform="translate(66.650391 0)"/>
    <use xlink:href="#Georgia-73" transform="translate(95.947266 0)"/>
    <use xlink:href="#Georgia-75" transform="translate(139.160156 0)"/>
    <use xlink:href="#Georgia-61" transform="translate(196.679688 0)"/>
    <use xlink:href="#Georgia-6c" transform="translate(247.070312 0)"/>
    <use xlink:href="#Georgia-69" transform="translate(275.683594 0)"/>
    <use xlink:href="#Georgia-73" transform="translate(304.980469 0)"/>
    <use xlink:href="#Georgia-65" transform="translate(348.193359 0)"/>
    <use xlink:href="#Georgia-20" transform="translate(396.533203 0)"/>
    <use xlink:href="#Georgia-68" transform="translate(420.654297 0)"/>
    <use xlink:href="#Georgia-6f" transform="translate(478.857422 0)"/>
    <use xlink:href="#Georgia-77" transform="translate(532.763672 0)"/>
    <use xlink:href="#Georgia-20" transform="translate(606.494141 0)"/>
    <use xlink:href="#Georgia-6c" transform="translate(630.615234 0)"/>
    <use xlink:href="#Georgia-6f" transform="translate(659.228516 0)"/>
    <use xlink:href="#Georgia-6e" transform="translate(713.134766 0)"/>
    <use xlink:href="#Georgia-67" transform="translate(772.216797 0)"/>
    <use xlink:href="#Georgia-20" transform="translate(823.144531 0)"/>
    <use xlink:href="#Georgia-79" transform="translate(847.265625 0)"/>
    <use xlink:href="#Georgia-6f" transform="translate(896.484375 0)"/>
    <use xlink:href="#Georgia-75" transform="translate(950.390625 0)"/>
    <use xlink:href="#Georgia-20" transform="translate(1007.910156 0)"/>
    <use xlink:href="#Georgia-74" transform="translate(1032.03125 0)"/>
    <use xlink:href="#Georgia-79" transform="translate(1066.552734 0)"/>
    <use xlink:href="#Georgia-70" transform="translate(1115.771484 0)"/>
    <use xlink:href="#Georgia-69" transform="translate(1172.900391 0)"/>
    <use xlink:href="#Georgia-63" transform="translate(1202.197266 0)"/>
    <use xlink:href="#Georgia-61" transform="translate(1247.607422 0)"/>
    <use xlink:href="#Georgia-6c" transform="translate(1297.998047 0)"/>
    <use xlink:href="#Georgia-6c" transform="translate(1326.611328 0)"/>
    <use xlink:href="#Georgia-79" transform="translate(1355.224609 0)"/>
    <use xlink:href="#Georgia-20" transform="translate(1404.443359 0)"/>
    <use xlink:href="#Georgia-72" transform="translate(1428.564453 0)"/>
    <use xlink:href="#Georgia-75" transform="translate(1469.53125 0)"/>
    <use xlink:href="#Georgia-6e" transform="translate(1527.050781 0)"/>
    <use xlink:href="#Georgia-20" transform="translate(1586.132812 0)"/>
    <use xlink:href="#Georgia-28" transform="translate(1610.253906 0)"/>
    <use xlink:href="#Georgia-65" transform="translate(1647.753906 0)"/>
    <use xlink:href="#Georgia-6c" transform="translate(1696.09375 0)"/>
    <use xlink:href="#Georgia-61" transform="translate(1724.707031 0)"/>
    <use xlink:href="#Georgia-70" transform="translate(1775.097656 0)"/>
    <use xlink:href="#Georgia-73" transform="translate(1832.226562 0)"/>
    <use xlink:href="#Georgia-65" transform="translate(1875.439453 0)"/>
    <use xlink:href="#Georgia-64" transform="translate(1923.779297 0)"/>
    <use xlink:href="#Georgia-20" transform="translate(1981.201172 0)"/>
    <use xlink:href="#Georgia-74" transform="translate(2005.322266 0)"/>
    <use xlink:href="#Georgia-69" transform="translate(2039.84375 0)"/>
    <use xlink:href="#Georgia-6d" transform="translate(2069.140625 0)"/>
    <use xlink:href="#Georgia-65" transform="translate(2157.226562 0)"/>
    <use xlink:href="#Georgia-29" transform="translate(2205.566406 0)"/>
    <use xlink:href="#Georgia-20" transform="translate(2243.066406 0)"/>
    <use xlink:href="#Georgia-61" transform="translate(2267.1875 0)"/>
    <use xlink:href="#Georgia-63" transform="translate(2317.578125 0)"/>
    <use xlink:href="#Georgia-72" transform="translate(2362.988281 0)"/>
    <use xlink:href="#Georgia-6f" transform="translate(2403.955078 0)"/>
    <use xlink:href="#Georgia-73" transform="translate(2457.861328 0)"/>
    <use xlink:href="#Georgia-73" transform="translate(2501.074219 0)"/>
    <use xlink:href="#Georgia-20" transform="translate(2544.287109 0)"/>
    <use xlink:href="#Georgia-79" transform="translate(2568.408203 0)"/>
    <use xlink:href="#Georgia-6f" transform="translate(2617.626953 0)"/>
    <use xlink:href="#Georgia-75" transform="translate(2671.533203 0)"/>
    <use xlink:href="#Georgia-72" transform="translate(2729.052734 0)"/>
    <use xlink:href="#Georgia-20" transform="translate(2770.019531 0)"/>
    <use xlink:href="#Georgia-72" transform="translate(2794.140625 0)"/>
    <use xlink:href="#Georgia-65" transform="translate(2835.107422 0)"/>
    <use xlink:href="#Georgia-63" transform="translate(2883.447266 0)"/>
    <use xlink:href="#Georgia-6f" transform="translate(2928.857422 0)"/>
    <use xlink:href="#Georgia-72" transform="translate(2982.763672 0)"/>
    <use xlink:href="#Georgia-64" transform="translate(3023.730469 0)"/>
    <use xlink:href="#Georgia-65" transform="translate(3081.152344 0)"/>
    <use xlink:href="#Georgia-64" transform="translate(3129.492188 0)"/>
    <use xlink:href="#Georgia-20" transform="translate(3186.914062 0)"/>
    <use xlink:href="#Georgia-72" transform="translate(3211.035156 0)"/>
    <use xlink:href="#Georgia-75" transform="translate(3252.001953 0)"/>
    <use xlink:href="#Georgia-6e" transform="translate(3309.521484 0)"/>
    <use xlink:href="#Georgia-6e" transform="translate(3368.603516 0)"/>
    <use xlink:href="#Georgia-69" transform="translate(3427.685547 0)"/>
    <use xlink:href="#Georgia-6e" transform="translate(3456.982422 0)"/>
    <use xlink:href="#Georgia-67" transform="translate(3516.064453 0)"/>
    <use xlink:href="#Georgia-20" transform="translate(3566.992188 0)"/>
    <use xlink:href="#Georgia-61" transform="translate(3591.113281 0)"/>
    <use xlink:href="#Georgia-63" transform="translate(3641.503906 0)"/>
    <use xlink:href="#Georgia-74" transform="translate(3686.914062 0)"/>
    <use xlink:href="#Georgia-69" transform="translate(3721.435547 0)"/>
    <use xlink:href="#Georgia-76" transform="translate(3750.732422 0)"/>
    <use xlink:href="#Georgia-69" transform="translate(3800.390625 0)"/>
    <use xlink:href="#Georgia-74" transform="translate(3829.6875 0)"/>
    <use xlink:href="#Georgia-69" transform="translate(3864.208984 0)"/>
    <use xlink:href="#Georgia-65" transform="translate(3893.505859 0)"/>
    <use xlink:href="#Georgia-73" transform="translate(3941.845703 0)"/>
   </g>
  </g>
 </g>
 <defs>
  <clipPath id="p99402984fd">
   <rect x="48.000938" y="82.16" width="669.6" height="388.08"/>
  </clipPath>
 </defs>
</svg>
